<svg width="97" height="92" viewBox="0 0 97 92" fill="none" xmlns="http://www.w3.org/2000/svg">
<path fill-rule="evenodd" clip-rule="evenodd" d="M1 46V92H48.5H96V46V0H48.5H1V46Z" fill="#B0DCFF"/>
<path fill-rule="evenodd" clip-rule="evenodd" d="M1.015 2.25005C1.024 3.50805 1.355 4.03205 1.765 3.43905C2.169 2.85505 4.075 1.88805 6 1.29105L9.5 0.204053L5.25 0.102053C1.475 0.0110528 1.002 0.251053 1.015 2.25005ZM76.885 4.85405C73.406 7.56005 64.6 9.39005 55.834 9.23105C47.86 9.08605 45.134 10.3001 46.344 13.4551C46.657 14.2701 46.495 15.1941 45.985 15.5091C45.475 15.8241 44.777 18.2011 44.434 20.7911L43.809 25.5001L35.265 25.3351C30.565 25.2441 25.125 24.8711 23.175 24.5051C18.697 23.6651 9.156 23.6931 4.537 24.5591L1 25.2231V58.6111V92.0001H48.536H96.072L95.786 56.1041C95.513 21.8381 95.409 20.1061 93.5 17.9661C92.4 16.7331 90.13 15.1441 88.455 14.4341C86.326 13.5331 84.694 11.6171 83.034 8.07205C81.727 5.28205 80.346 3.00005 79.964 3.00005C79.582 3.00005 78.197 3.83405 76.885 4.85405ZM25.48 15.3621C26.504 16.1111 28.16 16.5091 29.16 16.2481C31.925 15.5251 30.29 14.0001 26.75 14.0001C23.862 14.0001 23.763 14.1061 25.48 15.3621ZM33.5 31.0001C33.16 31.5501 32.346 31.9931 31.691 31.9851C30.975 31.9751 31.099 31.5821 32 31.0001C33.921 29.7581 34.267 29.7581 33.5 31.0001ZM93.435 34.1051C92.563 35.5171 91 35.1491 91 33.5311C91 32.6391 91.587 32.2881 92.494 32.6361C93.316 32.9521 93.74 33.6121 93.435 34.1051ZM34 52.0001C34 52.5501 33.55 53.0001 33 53.0001C32.45 53.0001 32 52.5501 32 52.0001C32 51.4501 32.45 51.0001 33 51.0001C33.55 51.0001 34 51.4501 34 52.0001Z" fill="#898D91"/>
<path fill-rule="evenodd" clip-rule="evenodd" d="M1.01507 2.25005C1.02407 3.50805 1.35507 4.03205 1.76507 3.43905C2.16907 2.85505 4.07507 1.88805 6.00007 1.29105L9.50007 0.204053L5.25007 0.102053C1.47507 0.0110528 1.00207 0.251053 1.01507 2.25005ZM79.0001 3.87605C78.1751 4.21905 76.3751 5.25605 75.0001 6.18005C71.7201 8.38405 65.3011 9.41205 55.7471 9.26205C48.8791 9.15505 47.8691 9.37605 46.8941 11.1981C46.0501 12.7751 46.1091 13.4541 47.1471 14.1121C48.0411 14.6791 48.0991 14.9751 47.3171 14.9851C45.9031 15.0031 44.3081 19.4391 44.0771 24.0001C44.0151 25.2251 42.4181 25.4701 35.3601 25.3351C30.6081 25.2441 25.1251 24.8711 23.1751 24.5051C18.6971 23.6651 9.15607 23.6931 4.53707 24.5591C1.66007 25.0991 1.00007 25.6681 1.00007 27.6111C1.00007 28.9251 1.50507 30.0001 2.12207 30.0001C2.94307 30.0001 2.94807 30.3581 2.14107 31.3301C1.00107 32.7041 0.641074 63.0001 1.76407 63.0001C2.08207 63.0001 3.15407 62.2661 4.14607 61.3681C5.36907 60.2611 8.28607 59.6271 13.2241 59.3951C19.4871 59.1001 20.1171 59.2151 17.7501 60.2191C16.2381 60.8611 15.0001 61.7761 15.0001 62.2521C15.0001 62.7281 14.5391 62.8331 13.9751 62.4851C13.4121 62.1361 13.0741 62.3881 13.2251 63.0431C13.3761 63.6981 12.6711 64.3731 11.6581 64.5421C10.6451 64.7111 9.52307 65.1431 9.16407 65.5021C8.32307 66.3441 21.0211 64.9701 23.0001 64.0061C23.8251 63.6031 25.6251 63.3811 27.0001 63.5121C28.3751 63.6431 30.0091 63.3451 30.6321 62.8511C31.2551 62.3561 34.6301 61.5391 38.1321 61.0361C41.6341 60.5331 45.7381 59.8161 47.2501 59.4441C48.9071 59.0361 50.0001 59.1761 50.0001 59.7961C50.0001 60.3611 48.0871 61.1411 45.7501 61.5281C43.4131 61.9151 40.7121 62.6461 39.7501 63.1511C38.6181 63.7461 38.0001 63.7051 38.0001 63.0351C38.0001 62.4661 37.6341 62.0001 37.1861 62.0001C36.7381 62.0001 36.4011 63.4621 36.4361 65.2501C36.4711 67.0371 36.9501 68.3301 37.5001 68.1231C41.3591 66.6671 41.3681 66.6561 39.4271 65.8951C37.6401 65.1951 37.6591 65.1351 39.6911 65.0701C42.4711 64.9811 43.5351 66.6011 41.4581 67.7641C39.3851 68.9241 38.8391 77.2621 40.5101 82.2501C41.2011 84.3131 41.4241 86.0001 41.0051 86.0001C39.8581 86.0001 37.9341 83.3991 38.5941 82.7391C38.9121 82.4221 38.1671 81.6241 36.9391 80.9671C34.7601 79.8011 34.7201 79.875 35.2721 83.993C35.8011 87.932 35.7401 88.0731 34.3631 86.1071C33.5511 84.9481 32.1251 83.9641 31.1931 83.9211C30.1521 83.8731 29.9811 83.6481 30.7501 83.3381C32.0921 82.7961 32.4941 80.05 31.2501 79.923C30.8371 79.881 29.7131 79.6961 28.7501 79.5121C27.5361 79.2801 26.9761 79.8391 26.9211 81.3381C26.8711 82.7211 26.6641 82.9601 26.3481 82.0001C26.0761 81.1751 25.4141 79.5881 24.8771 78.4721C24.2431 77.1571 24.2421 75.5761 24.8721 73.9721C25.8421 71.5071 25.8461 71.5091 26.5541 74.7851C26.9451 76.5911 27.5011 77.8331 27.7901 77.5431C28.0791 77.2541 28.8521 77.4621 29.5061 78.0051C30.3291 78.6881 31.2541 78.3771 32.5031 76.9961C33.4971 75.8981 34.9631 75.0001 35.7621 75.0001C36.6751 75.0001 36.9891 74.4131 36.6071 73.4181C36.2731 72.5481 36.0001 71.4481 36.0001 70.9731C36.0001 70.4981 33.8621 69.9721 31.2501 69.8051C27.2651 69.5491 26.5511 69.2021 26.8171 67.6501C26.9911 66.6321 26.6921 66.0721 26.1521 66.4061C25.6121 66.7391 24.9811 66.4471 24.7481 65.7561C24.4111 64.7541 24.0101 64.7601 22.7681 65.7851C21.9111 66.4921 20.8261 67.0011 20.3551 66.9171C19.8851 66.8321 15.3381 66.8161 10.2501 66.8821L1.00007 67.0001V72.1401C1.00007 75.8791 1.47607 77.6281 2.74807 78.5581C3.71007 79.2611 4.13607 80.1981 3.69407 80.6391C3.25307 81.0811 2.52507 80.8491 2.07707 80.1241C1.59907 79.3521 1.20307 81.5321 1.11907 85.3911L0.976074 91.9761L48.4881 91.9691L96.0001 91.9631V81.5651C96.0001 74.1821 95.6381 71.0201 94.7501 70.6621C93.7621 70.2641 93.7661 70.1411 94.7681 70.0791C95.7541 70.0181 96.0191 65.1111 95.9601 48.0491C95.8871 27.0031 95.8011 26.0721 93.8811 25.4621C92.2671 24.9501 92.0021 24.2671 92.5141 21.9381C92.9291 20.0461 92.6051 18.2751 91.5741 16.8021C90.7081 15.5661 90.0001 14.8921 90.0001 15.3031C90.0001 15.7151 88.6351 15.3461 86.9671 14.4831C85.2991 13.6211 84.2011 12.4841 84.5261 11.9571C84.8521 11.4311 84.6151 11.0001 84.0001 11.0001C83.3851 11.0001 83.2031 10.4801 83.5951 9.84505C84.0381 9.13005 83.8701 8.96205 83.1551 9.40505C81.9611 10.1421 81.9041 10.0321 81.5071 6.21805C81.2131 3.39205 80.8891 3.08905 79.0001 3.87605ZM83.2081 18.1091C83.5971 23.1521 83.4571 23.6711 81.8211 23.2431C79.8761 22.7341 79.6251 20.9021 80.6521 14.6901C81.4911 9.61205 82.6731 11.1931 83.2081 18.1091ZM25.4801 15.3621C26.5041 16.1111 28.1601 16.5091 29.1601 16.2481C31.9251 15.5251 30.2901 14.0001 26.7501 14.0001C23.8621 14.0001 23.7631 14.1061 25.4801 15.3621ZM82.6471 24.7651C83.7231 25.4551 84.4201 28.2431 84.0801 30.5001C83.9971 31.0501 83.2451 30.3751 82.4101 29.0001L80.8901 26.5001L81.2941 29.1851C81.5161 30.6621 81.3231 32.4621 80.8641 33.1851C80.3571 33.9851 80.0251 32.4421 80.0151 29.2501C80.0001 24.0541 80.4201 23.3391 82.6471 24.7651ZM19.0001 29.0001C19.0001 29.5501 18.5501 30.0001 18.0001 30.0001C17.4501 30.0001 17.0001 29.5501 17.0001 29.0001C17.0001 28.4501 17.4501 28.0001 18.0001 28.0001C18.5501 28.0001 19.0001 28.4501 19.0001 29.0001ZM43.6831 30.1881C43.3641 30.9851 43.1271 30.7481 43.0791 29.5831C43.0361 28.5291 43.2721 27.9391 43.6041 28.2711C43.9361 28.6031 43.9721 29.4661 43.6831 30.1881ZM10.5001 30.0001C10.1601 30.5501 9.12107 30.9931 8.19107 30.9851C6.73407 30.9711 6.70707 30.8351 8.00007 30.0001C9.95807 28.7341 11.2821 28.7341 10.5001 30.0001ZM33.5001 31.0001C33.1601 31.5501 32.3461 31.9931 31.6911 31.9851C30.9751 31.9751 31.0991 31.5821 32.0001 31.0001C33.9211 29.7581 34.2671 29.7581 33.5001 31.0001ZM75.9851 32.2501C75.9721 34.0691 75.7841 34.2131 75.0001 33.0001C73.7471 31.0611 73.7471 30.0001 75.0001 30.0001C75.5501 30.0001 75.9931 31.0121 75.9851 32.2501ZM93.6221 34.5641C93.0051 35.8951 92.1361 36.9881 91.6911 36.9921C91.2461 36.9961 91.2071 36.4741 91.6051 35.8301C92.0901 35.0451 91.7851 34.8691 90.6791 35.2931C89.3151 35.8161 89.2201 35.6211 90.1281 34.1671C90.7321 33.2001 92.0181 32.3491 92.9851 32.2761C94.4961 32.1621 94.5861 32.4851 93.6221 34.5641ZM84.0001 37.5831C84.0001 38.4541 83.4661 38.9891 82.8131 38.7711C80.9581 38.1531 80.6511 36.0001 82.4171 36.0001C83.2871 36.0001 84.0001 36.7121 84.0001 37.5831ZM87.6711 39.6631C87.3751 39.9581 86.6051 39.8741 85.9601 39.4751C85.0901 38.9371 85.1371 38.5321 86.1431 37.9071C87.4771 37.0791 88.7691 38.5641 87.6711 39.6631ZM5.00007 44.0001C3.66207 44.8651 4.26007 45.4221 6.21407 45.1301C6.60707 45.0721 6.66407 45.7131 6.34107 46.5541C5.63807 48.3861 3.52707 47.9221 3.43507 45.9171C3.34307 43.9101 3.93207 42.9981 5.30907 43.0151C6.02507 43.0251 5.90107 43.4181 5.00007 44.0001ZM39.9141 47.0001C39.8781 47.9891 39.5671 47.8191 39.0001 46.5001C37.8191 43.7511 37.8191 42.1721 39.0001 44.0001C39.5331 44.8251 39.9451 46.1751 39.9141 47.0001ZM89.0001 45.1071C89.0001 45.5981 88.3251 46.0001 87.5001 46.0001C86.6751 46.0001 86.0001 45.3391 86.0001 44.5311C86.0001 43.6371 86.5861 43.2881 87.5001 43.6381C88.3251 43.9551 89.0001 44.6161 89.0001 45.1071ZM17.7331 46.7501C17.7191 50.2181 18.0171 51.1081 18.9891 50.5071C19.5551 50.1571 19.7231 50.5581 19.3821 51.4481C18.6931 53.2421 18.0771 53.3421 16.0001 52.0001C15.0001 51.3541 14.9171 51.0261 15.7501 51.0151C16.4381 51.0071 17.0001 50.5231 17.0001 49.9411C17.0001 49.3591 16.4801 49.2031 15.8451 49.5951C15.1301 50.0381 14.9621 49.8701 15.4051 49.1551C15.7971 48.5201 15.6411 48.0001 15.0591 48.0001C14.4771 48.0001 14.0001 47.5231 14.0001 46.9411C14.0001 46.3591 14.4191 46.1411 14.9311 46.4571C15.4431 46.7741 16.1441 46.5751 16.4901 46.0161C17.3941 44.5531 17.7401 44.7571 17.7331 46.7501ZM26.5001 52.0001C26.1601 52.5501 25.3461 52.9931 24.6911 52.9851C23.9751 52.9751 24.0991 52.5821 25.0001 52.0001C26.9211 50.7581 27.2671 50.7581 26.5001 52.0001ZM36.6351 53.5521C37.9361 54.9551 39.0001 56.1961 39.0001 56.3091C39.0001 56.4221 36.9751 56.3531 34.5001 56.1571C29.9621 55.7961 28.8901 54.5101 31.2001 52.2001C32.9551 50.4451 33.9961 50.7031 36.6351 53.5521ZM40.0001 52.0001C40.0001 52.5501 39.5231 53.0001 38.9411 53.0001C38.3591 53.0001 38.1601 52.5501 38.5001 52.0001C38.8401 51.4501 39.3161 51.0001 39.5591 51.0001C39.8021 51.0001 40.0001 51.4501 40.0001 52.0001ZM31.0001 58.3931C31.0001 58.6091 30.3021 59.0541 29.4481 59.3821C28.5581 59.7231 28.1571 59.5551 28.5071 58.9891C29.0941 58.0381 31.0001 57.5831 31.0001 58.3931ZM64.7871 60.2201C70.1291 60.2511 73.4151 60.4801 72.0881 60.7291C70.2221 61.0791 69.9951 61.3841 71.0881 62.0751C72.0621 62.6921 71.3201 62.9741 68.6911 62.9851C66.5961 62.9931 65.1021 62.6431 65.3721 62.2081C65.6411 61.7721 64.9931 61.3501 63.9311 61.2701C62.8691 61.1901 62.0001 61.7221 62.0001 62.4531C62.0001 63.2181 60.5641 63.9491 58.6141 64.1771C56.1021 64.4701 55.3591 64.2291 55.7361 63.2451C56.0231 62.4971 55.6731 62.0451 54.9321 62.2091C54.2101 62.3691 53.4361 61.6591 53.2131 60.6321C52.9521 59.4281 53.2111 59.0121 53.9411 59.4641C54.5651 59.8491 59.4461 60.1901 64.7871 60.2201ZM88.1221 61.6751C86.9431 63.7021 86.6591 63.0531 87.6241 60.5391C87.9661 59.6451 88.4581 59.1241 88.7151 59.3821C88.9731 59.6391 88.7061 60.6711 88.1221 61.6751ZM26.0001 61.0001C26.0001 61.5501 25.8021 62.0001 25.5591 62.0001C25.3161 62.0001 24.8401 61.5501 24.5001 61.0001C24.1601 60.4501 24.3591 60.0001 24.9411 60.0001C25.5231 60.0001 26.0001 60.4501 26.0001 61.0001ZM83.7621 61.6871C82.8061 61.9371 81.0061 61.9461 79.7621 61.7071C78.5181 61.4681 79.3001 61.2631 81.5001 61.2521C83.7001 61.2411 84.7181 61.4371 83.7621 61.6871ZM84.7911 68.5251C84.6671 73.2421 84.3421 74.1171 82.5731 74.5021C78.0291 75.4891 65.0481 78.0001 64.4831 78.0001C64.1521 78.0001 64.1601 77.5501 64.5001 77.0001C64.8521 76.4301 63.9861 76.0001 62.4861 76.0001C60.5341 76.0001 59.9391 75.5551 60.1851 74.2791C60.4401 72.9531 61.4691 72.5891 64.6641 72.6911C68.0431 72.8001 68.9101 72.451 69.3391 70.812C69.6281 69.705 70.3461 69.0961 70.9331 69.4581C71.5201 69.8211 72.0001 69.6411 72.0001 69.0591C72.0001 68.4771 72.7051 68.0001 73.5671 68.0001C74.6801 68.0001 74.9501 68.5811 74.5001 70.0001C74.0651 71.3691 74.3201 72.0001 75.3081 72.0001C76.1251 72.0001 77.0221 70.6381 77.3781 68.8581C78.0551 65.4771 80.4541 63.0831 83.2181 63.0321C84.6561 63.0051 84.9121 63.9021 84.7911 68.5251ZM92.7981 68.7621C92.7301 70.5571 92.0631 72.5331 91.3151 73.1541C90.2411 74.0441 90.0871 73.9361 90.5841 72.6411C90.9771 71.6161 90.7041 71.0001 89.8571 71.0001C89.0431 71.0001 88.5001 69.8991 88.5001 68.2501C88.5001 66.0801 88.9661 65.5001 90.7101 65.5001C92.5641 65.5001 92.9011 66.0261 92.7981 68.7621ZM14.2501 68.6621C13.5631 68.9401 12.4381 68.9401 11.7501 68.6621C11.0631 68.3851 11.6251 68.1581 13.0001 68.1581C14.3751 68.1581 14.9381 68.3851 14.2501 68.6621ZM51.0001 70.0001C53.0361 72.0361 53.8051 78.0001 52.0311 78.0001C51.4991 78.0001 51.3221 77.3241 51.6391 76.4981C52.3941 74.5311 51.2371 70.0001 49.9811 70.0001C49.4411 70.0001 49.0001 70.6891 49.0001 71.5311C49.0001 72.3741 48.3251 73.3221 47.5001 73.6381C46.6751 73.9551 45.9931 74.9531 45.9851 75.8571C45.9711 77.2831 45.8411 77.3021 45.0001 76.0001C43.9511 74.3761 43.6921 75.1041 43.9341 79.0001C44.0581 80.9991 43.8831 81.1991 43.0601 80.0001C40.8131 76.7251 41.9851 73.3881 45.2141 73.8701C45.6071 73.9281 45.6571 73.2691 45.3251 72.4041C44.8391 71.1371 44.5581 71.0911 43.8761 72.1661C43.4111 72.9001 43.0241 73.0851 43.0151 72.5791C42.9911 71.1331 46.1661 68.0001 47.6551 68.0001C48.3951 68.0001 49.9001 68.9001 51.0001 70.0001ZM45.7361 69.5981C45.0171 70.3161 45.9311 73.0001 46.8941 73.0001C47.2681 73.0001 47.6421 72.1001 47.7251 71.0001C47.8721 69.0511 46.9401 68.3941 45.7361 69.5981ZM7.72907 70.604C7.39707 70.936 6.53407 70.9721 5.81307 70.6831C5.01507 70.3641 5.25207 70.1271 6.41707 70.0791C7.47107 70.0361 8.06107 70.272 7.72907 70.604ZM9.66207 74.2501C9.38507 74.9381 9.15807 74.3751 9.15807 73.0001C9.15807 71.6251 9.38507 71.0631 9.66207 71.7501C9.94007 72.4381 9.94007 73.5631 9.66207 74.2501ZM38.0791 73.5831C38.1271 74.7481 38.3641 74.9851 38.6831 74.1881C38.9721 73.4661 38.9361 72.6031 38.6041 72.2711C38.2721 71.9391 38.0361 72.5291 38.0791 73.5831ZM37.1581 78.0001C37.1581 79.3751 37.3851 79.9381 37.6621 79.2501C37.9401 78.5631 37.9401 77.4381 37.6621 76.7501C37.3851 76.0631 37.1581 76.6251 37.1581 78.0001ZM58.6071 77.4711C58.3031 79.5421 57.0001 80.6461 57.0001 78.8331C57.0001 77.5241 57.8491 76.0001 58.5781 76.0001C58.7131 76.0001 58.7261 76.6621 58.6071 77.4711ZM12.0001 80.0281C12.0001 80.5281 11.3281 80.6791 10.5061 80.3641C9.68407 80.0481 9.26507 79.3801 9.57507 78.8791C10.2231 77.8301 12.0001 78.6721 12.0001 80.0281ZM76.7291 78.604C76.3971 78.936 75.5341 78.9721 74.8131 78.6831C74.0151 78.3641 74.2521 78.1271 75.4171 78.0791C76.4711 78.0361 77.0611 78.272 76.7291 78.604ZM67.5001 81.0001C67.1601 81.5501 65.6711 81.9551 64.1911 81.9001L61.5001 81.8011L64.0001 81.0001C67.5491 79.8631 68.2031 79.8631 67.5001 81.0001ZM49.8621 82.6671C49.2531 83.4001 48.2481 83.9641 47.6281 83.9211C46.9251 83.8721 46.9741 83.6511 47.7561 83.3361C48.4471 83.0571 48.8041 82.4931 48.5501 82.0811C48.2961 81.6701 48.7361 81.3331 49.5281 81.3331C50.6151 81.3331 50.6971 81.6611 49.8621 82.6671ZM8.50007 83.0001C8.16007 83.5501 7.34607 83.9931 6.69107 83.9851C5.97507 83.9751 6.09907 83.5821 7.00007 83.0001C8.92107 81.7581 9.26707 81.7581 8.50007 83.0001ZM53.0001 84.3781C53.0001 84.5851 52.2121 85.3731 51.2501 86.1281C49.6641 87.3711 49.6291 87.3361 50.8721 85.7501C52.1791 84.0841 53.0001 83.5551 53.0001 84.3781ZM32.7291 85.604C32.3971 85.936 31.5341 85.9721 30.8131 85.6831C30.0151 85.3641 30.2521 85.1271 31.4171 85.0791C32.4711 85.0361 33.0611 85.272 32.7291 85.604ZM37.0001 90.5981C37.0001 90.8191 35.7251 91.0001 34.1671 91.0001C32.4151 91.0001 31.3331 90.4701 31.3331 89.6101C31.3331 88.5181 31.9411 88.4321 34.1671 89.2081C35.7251 89.7511 37.0001 90.3771 37.0001 90.5981ZM45.2501 88.6621C44.5631 88.9401 43.4381 88.9401 42.7501 88.6621C42.0631 88.3851 42.6251 88.1581 44.0001 88.1581C45.3751 88.1581 45.9381 88.3851 45.2501 88.6621ZM82.7291 88.604C82.3971 88.936 81.5341 88.9721 80.8131 88.6831C80.0151 88.3641 80.2521 88.1271 81.4171 88.0791C82.4711 88.0361 83.0611 88.272 82.7291 88.604Z" fill="#1A4E7E"/>
<path fill-rule="evenodd" clip-rule="evenodd" d="M1.01507 2.25005C1.02407 3.50805 1.35507 4.03205 1.76507 3.43905C2.16907 2.85505 4.07507 1.88805 6.00007 1.29105L9.50007 0.204053L5.25007 0.102053C1.47507 0.0110528 1.00207 0.251053 1.01507 2.25005ZM79.0001 3.77705C78.1751 4.04005 76.5581 5.11005 75.4061 6.15505C74.2541 7.20105 71.8921 8.15605 70.1581 8.27805C68.4231 8.40005 67.0031 8.86505 67.0021 9.31005C67.0011 9.75605 65.5701 9.89505 63.8231 9.61905C62.0761 9.34405 59.7691 9.58905 58.6961 10.1631C57.5821 10.7591 56.4781 10.8251 56.1231 10.3171C55.7801 9.82805 53.8451 9.29905 51.8231 9.14305C48.9861 8.92405 47.9001 9.31805 47.0731 10.8641C45.5551 13.7011 45.7411 14.7371 47.3691 12.5101C48.6991 10.6911 48.8341 10.6991 52.1191 12.8021C55.0441 14.6741 55.2041 14.9691 53.3091 14.9831C52.1041 14.9921 50.8031 15.5101 50.4171 16.1341C49.9301 16.9221 50.6001 17.1011 52.6081 16.7201C54.1991 16.4181 59.1001 15.4731 63.5001 14.6201C74.5911 12.4711 78.2721 12.5041 77.6491 14.7501C76.7221 18.0931 75.5941 28.5171 75.8371 31.5001C76.0261 33.8221 75.8481 34.1611 75.0511 33.0001C74.2481 31.8321 74.0581 32.1641 74.1911 34.5001C74.2861 36.1501 74.7711 38.0441 75.2701 38.7091C76.5771 40.4511 75.1241 46.0001 73.3621 46.0001C72.5481 46.0001 72.1601 46.4501 72.5001 47.0001C72.8401 47.5501 72.6151 48.0001 72.0001 48.0001C71.3851 48.0001 71.1411 48.4191 71.4571 48.9311C71.7741 49.4431 71.5751 50.1441 71.0161 50.4901C70.4571 50.8351 70.0001 50.6831 70.0001 50.1521C70.0001 49.6201 67.5361 49.0311 64.5241 48.8431C60.2991 48.5781 58.9541 48.8431 58.6401 50.0001C58.3851 50.9371 58.1881 50.7301 58.1161 49.4501C58.0521 48.3221 57.4601 46.8601 56.8001 46.2001C55.5001 44.9001 52.5931 44.5221 53.3361 45.7501C53.5861 46.1631 53.1571 47.0851 52.3831 47.8011C50.3701 49.6621 49.8301 47.7091 50.1991 39.8951C50.4931 33.6541 50.5661 33.5011 53.2391 33.5391C55.1321 33.5651 55.6571 33.2561 54.9391 32.5391C54.3681 31.9671 52.1331 31.4721 49.9721 31.4381C47.8111 31.4041 45.7401 31.0741 45.3711 30.7041C44.3101 29.6441 46.7691 16.7631 48.2061 15.8511C49.1771 15.2361 49.0801 15.0271 47.8171 15.0151C45.9431 14.9981 44.3381 18.8521 44.0771 24.0001C44.0151 25.2251 42.4181 25.4701 35.3601 25.3351C30.6081 25.2441 25.1251 24.8711 23.1751 24.5051C18.6971 23.6651 9.15607 23.6931 4.53707 24.5591C1.66007 25.0991 1.00007 25.6681 1.00007 27.6111C1.00007 28.9251 1.50507 30.0001 2.12207 30.0001C2.94307 30.0001 2.94807 30.3581 2.14107 31.3301C1.00107 32.7041 0.641074 63.0001 1.76407 63.0001C2.08207 63.0001 3.15407 62.2661 4.14607 61.3681C5.36907 60.2611 8.28607 59.6271 13.2241 59.3951C19.4871 59.1001 20.1171 59.2151 17.7501 60.2191C16.2381 60.8611 15.0001 61.7761 15.0001 62.2521C15.0001 62.7281 14.5391 62.8331 13.9751 62.4851C13.4121 62.1361 13.0741 62.3881 13.2251 63.0431C13.3761 63.6981 12.6711 64.3731 11.6581 64.5421C10.6451 64.7111 9.52307 65.1431 9.16407 65.5021C8.32307 66.3441 21.0211 64.9701 23.0001 64.0061C23.8251 63.6031 25.6251 63.3811 27.0001 63.5121C28.3751 63.6431 30.0091 63.3451 30.6321 62.8511C31.2551 62.3561 34.6301 61.5391 38.1321 61.0361C41.6341 60.5331 45.7381 59.8161 47.2501 59.4441C48.9071 59.0361 50.0001 59.1761 50.0001 59.7961C50.0001 60.3611 48.0871 61.1411 45.7501 61.5281C43.4131 61.9151 40.7121 62.6461 39.7501 63.1511C38.6181 63.7461 38.0001 63.7051 38.0001 63.0351C38.0001 62.4661 37.6341 62.0001 37.1861 62.0001C36.7381 62.0001 36.4011 63.4621 36.4361 65.2501C36.4711 67.0371 36.9501 68.3301 37.5001 68.1231C41.3591 66.6671 41.3681 66.6561 39.4271 65.8951C37.6401 65.1951 37.6591 65.1351 39.6911 65.0701C42.4711 64.9811 43.5351 66.6011 41.4581 67.7641C39.3851 68.9241 38.8391 77.2621 40.5101 82.2501C41.2011 84.3131 41.4241 86.0001 41.0051 86.0001C39.8581 86.0001 37.9341 83.3991 38.5941 82.7391C38.9121 82.4221 38.1671 81.6241 36.9391 80.9671C34.7601 79.8011 34.7201 79.875 35.2721 83.993C35.8011 87.932 35.7401 88.0731 34.3631 86.1071C33.5511 84.9481 32.1251 83.9641 31.1931 83.9211C30.1521 83.8731 29.9811 83.6481 30.7501 83.3381C32.0921 82.7961 32.4941 80.05 31.2501 79.923C30.8371 79.881 29.7131 79.6961 28.7501 79.5121C27.5361 79.2801 26.9761 79.8391 26.9211 81.3381C26.8711 82.7211 26.6641 82.9601 26.3481 82.0001C26.0761 81.1751 25.4141 79.5881 24.8771 78.4721C24.2431 77.1571 24.2421 75.5761 24.8721 73.9721C25.8421 71.5071 25.8461 71.5091 26.5541 74.7851C26.9451 76.5911 27.5011 77.8331 27.7901 77.5431C28.0791 77.2541 28.8521 77.4621 29.5061 78.0051C30.3291 78.6881 31.2541 78.3771 32.5031 76.9961C33.4971 75.8981 34.9631 75.0001 35.7621 75.0001C36.6751 75.0001 36.9891 74.4131 36.6071 73.4181C36.2731 72.5481 36.0001 71.4481 36.0001 70.9731C36.0001 70.4981 33.8621 69.9721 31.2501 69.8051C27.2651 69.5491 26.5511 69.2021 26.8171 67.6501C26.9911 66.6321 26.6921 66.0721 26.1521 66.4061C25.6121 66.7391 24.9811 66.4471 24.7481 65.7561C24.4111 64.7541 24.0101 64.7601 22.7681 65.7851C21.9111 66.4921 20.8261 67.0011 20.3551 66.9171C19.8851 66.8321 15.3381 66.8161 10.2501 66.8821L1.00007 67.0001V72.1401C1.00007 75.8791 1.47607 77.6281 2.74807 78.5581C3.71007 79.2611 4.13607 80.1981 3.69407 80.6391C3.25307 81.0811 2.52507 80.8491 2.07707 80.1241C1.59907 79.3521 1.20307 81.5321 1.11907 85.3911L0.976074 91.9761L48.4881 91.9691L96.0001 91.9631V81.5651C96.0001 74.1821 95.6381 71.0201 94.7501 70.6621C93.7501 70.2591 93.7501 70.1421 94.7501 70.0791C96.5181 69.9671 96.3521 62.0861 94.4871 57.6221C92.5911 53.0851 89.2861 52.7151 86.7021 56.7501C85.7331 58.2621 85.0631 58.8251 85.2131 58.0001C85.3641 57.1751 85.1991 56.5001 84.8481 56.5001C84.4971 56.5001 83.2631 55.6431 82.1051 54.5951C80.2851 52.9481 80.0001 51.5591 80.0001 44.3451C80.0001 39.4481 80.4131 36.0001 81.0001 36.0001C81.5501 36.0001 82.0321 35.2121 82.0701 34.2501C82.1301 32.7541 82.2651 32.7901 83.0001 34.5001C83.7171 36.1681 83.8711 36.2151 83.9301 34.7811C83.9711 33.7711 84.5521 33.2751 85.3401 33.5771C86.0771 33.8601 87.2571 33.3961 87.9621 32.5461C88.9691 31.3331 88.9771 31.0001 88.0001 31.0001C87.1001 31.0001 87.0501 30.6441 87.8201 29.7161C88.9911 28.3051 87.7641 25.4101 86.3621 26.2761C85.8881 26.5691 85.4321 25.6811 85.3501 24.3041C85.2671 22.9261 84.6541 21.2821 83.9871 20.6501C83.0501 19.7611 82.9241 19.9921 83.4291 21.6671C83.9771 23.4851 83.7541 23.7481 82.0411 23.3001C79.8631 22.7311 79.5941 21.0911 80.6391 14.7701C81.2771 10.9091 83.0001 10.5121 83.0001 14.2261C83.0001 16.7791 83.9041 16.0961 84.4791 13.1091C84.7511 11.6971 84.5081 11.1861 83.7781 11.6371C83.0441 12.0911 82.8861 11.7391 83.3191 10.6121C83.7621 9.45605 83.5991 9.13005 82.8191 9.61205C82.0381 10.0951 81.8751 9.76905 82.3191 8.61205C82.7621 7.45605 82.5991 7.13005 81.8191 7.61205C81.0701 8.07505 80.8641 7.79605 81.2381 6.82305C82.0171 4.79305 80.8411 3.19105 79.0001 3.77705ZM25.4801 15.3621C26.5041 16.1111 28.1601 16.5091 29.1601 16.2481C31.9251 15.5251 30.2901 14.0001 26.7501 14.0001C23.8621 14.0001 23.7631 14.1061 25.4801 15.3621ZM90.7081 19.9901C91.0821 21.4211 90.5841 22.2181 88.9381 22.8271L86.6471 23.6751L89.0301 24.2981C91.9091 25.0501 91.8251 25.1231 92.6151 21.1771C93.1071 18.7141 92.9061 18.0001 91.7191 18.0001C90.6821 18.0001 90.3551 18.6431 90.7081 19.9901ZM49.0401 20.0461C50.8781 21.2091 54.0001 21.2761 54.0001 20.1521C54.0001 19.6861 52.5551 19.2631 50.7901 19.2131C48.4601 19.1471 47.9801 19.3751 49.0401 20.0461ZM84.4281 27.5001C84.2631 29.1501 84.0831 30.7251 84.0281 31.0001C83.9741 31.2751 83.2451 30.3751 82.4101 29.0001L80.8901 26.5001L81.2941 29.1851C81.5161 30.6621 81.3231 32.4621 80.8641 33.1851C80.3561 33.9871 80.0251 32.4911 80.0151 29.3561C80.0011 24.5701 80.1651 24.2221 82.3641 24.3561C84.3651 24.4781 84.6821 24.9601 84.4281 27.5001ZM47.5001 27.3721C48.6001 28.1911 49.6511 28.4391 49.8351 27.9241C50.0201 27.4091 50.6951 27.2871 51.3351 27.6541C51.9761 28.0211 52.1451 27.9311 51.7121 27.4561C51.2791 26.9801 49.7041 26.4321 48.2121 26.2381C45.5991 25.8971 45.5731 25.9391 47.5001 27.3721ZM89.6941 26.7301C90.3501 26.9501 90.6621 27.7171 90.3861 28.4361C90.1111 29.1541 90.6141 30.0221 91.5061 30.3641C92.3971 30.7061 92.8501 31.4341 92.5111 31.9811C92.1481 32.5691 92.5731 32.7171 93.5471 32.3441C95.0141 31.7811 95.0481 31.9721 93.8491 34.0661C93.1071 35.3621 91.9381 37.0351 91.2501 37.7831C89.5961 39.5821 89.6721 40.0631 91.5001 39.3621C92.4661 38.9911 93.0001 39.3831 93.0001 40.4641C93.0001 41.9391 93.1781 41.9651 94.4661 40.6771C96.0351 39.1081 96.4181 29.6241 94.8741 30.5781C94.3931 30.8751 94.0001 30.6411 94.0001 30.0591C94.0001 29.4771 94.4501 29.0001 95.0001 29.0001C95.5501 29.0001 95.9991 28.4381 95.9971 27.7501C95.9951 26.9881 94.5311 26.4671 92.2471 26.4161C90.1861 26.3691 89.0371 26.5111 89.6941 26.7301ZM19.0001 29.0001C19.0001 29.5501 18.5501 30.0001 18.0001 30.0001C17.4501 30.0001 17.0001 29.5501 17.0001 29.0001C17.0001 28.4501 17.4501 28.0001 18.0001 28.0001C18.5501 28.0001 19.0001 28.4501 19.0001 29.0001ZM43.6831 30.1881C43.3641 30.9851 43.1271 30.7481 43.0791 29.5831C43.0361 28.5291 43.2721 27.9391 43.6041 28.2711C43.9361 28.6031 43.9721 29.4661 43.6831 30.1881ZM10.5001 30.0001C10.1601 30.5501 9.12107 30.9931 8.19107 30.9851C6.73407 30.9711 6.70707 30.8351 8.00007 30.0001C9.95807 28.7341 11.2821 28.7341 10.5001 30.0001ZM33.5001 31.0001C33.1601 31.5501 32.3461 31.9931 31.6911 31.9851C30.9751 31.9751 31.0991 31.5821 32.0001 31.0001C33.9211 29.7581 34.2671 29.7581 33.5001 31.0001ZM89.5831 32.6431C88.6311 35.1261 89.6811 35.4651 90.9541 33.0861C91.5681 31.9381 91.6531 31.0001 91.1421 31.0001C90.6321 31.0001 89.9301 31.7391 89.5831 32.6431ZM47.9651 34.9341C49.2871 37.4061 49.3121 44.6891 48.0001 45.5001C47.4501 45.8401 47.0001 47.2161 47.0001 48.5591C47.0001 49.9021 46.5501 51.0001 46.0001 51.0001C45.4071 51.0001 45.0001 47.3331 45.0001 42.0001C45.0001 33.1291 45.8781 31.0361 47.9651 34.9341ZM86.5701 36.6771C86.2691 37.4621 86.4291 37.8531 86.9261 37.5461C87.4231 37.2391 87.9801 37.3751 88.1651 37.8491C88.3491 38.3231 89.3071 37.9321 90.2931 36.9801C92.0111 35.3231 91.9821 35.2501 89.6021 35.2501C88.2361 35.2501 86.8721 35.8921 86.5701 36.6771ZM56.2501 38.0311C53.3251 39.2071 53.4131 39.5151 56.7501 39.7911C58.2631 39.9151 59.6501 40.4631 59.8331 41.0091C60.4151 42.7371 62.0001 42.0781 62.0001 40.1071C62.0001 38.6491 59.7981 36.6381 58.6681 37.0631C58.5761 37.0981 57.4871 37.5341 56.2501 38.0311ZM85.0001 40.0001C85.0001 40.5501 85.4771 41.0001 86.0591 41.0001C86.6411 41.0001 86.8401 40.5501 86.5001 40.0001C86.1601 39.4501 85.6841 39.0001 85.4411 39.0001C85.1981 39.0001 85.0001 39.4501 85.0001 40.0001ZM53.0791 42.5831C53.1271 43.7481 53.3641 43.9851 53.6831 43.1881C53.9721 42.4661 53.9361 41.6031 53.6041 41.2711C53.2721 40.9391 53.0361 41.5291 53.0791 42.5831ZM5.00007 44.0001C3.66207 44.8651 4.26007 45.4221 6.21407 45.1301C6.60707 45.0721 6.66407 45.7131 6.34107 46.5541C5.63807 48.3861 3.52707 47.9221 3.43507 45.9171C3.34307 43.9101 3.93207 42.9981 5.30907 43.0151C6.02507 43.0251 5.90107 43.4181 5.00007 44.0001ZM39.9141 47.0001C39.8781 47.9891 39.5671 47.8191 39.0001 46.5001C37.8191 43.7511 37.8191 42.1721 39.0001 44.0001C39.5331 44.8251 39.9451 46.1751 39.9141 47.0001ZM59.3261 44.4141C58.4571 45.4051 58.4441 46.0441 59.2761 46.8761C61.0241 48.6241 61.7501 48.2201 61.7501 45.5001C61.7501 42.7181 61.0781 42.4171 59.3261 44.4141ZM17.7331 46.7501C17.7191 50.2181 18.0171 51.1081 18.9891 50.5071C19.5551 50.1571 19.7231 50.5581 19.3821 51.4481C18.6931 53.2421 18.0771 53.3421 16.0001 52.0001C15.0001 51.3541 14.9171 51.0261 15.7501 51.0151C16.4381 51.0071 17.0001 50.5231 17.0001 49.9411C17.0001 49.3591 16.4801 49.2031 15.8451 49.5951C15.1301 50.0381 14.9621 49.8701 15.4051 49.1551C15.7971 48.5201 15.6411 48.0001 15.0591 48.0001C14.4771 48.0001 14.0001 47.5231 14.0001 46.9411C14.0001 46.3591 14.4191 46.1411 14.9311 46.4571C15.4431 46.7741 16.1441 46.5751 16.4901 46.0161C17.3941 44.5531 17.7401 44.7571 17.7331 46.7501ZM91.0001 50.4411C91.0001 51.2981 91.4501 52.0001 92.0001 52.0001C92.5501 52.0001 93.0001 51.5771 93.0001 51.0591C93.0001 50.5411 92.5501 49.8401 92.0001 49.5001C91.4501 49.1601 91.0001 49.5841 91.0001 50.4411ZM26.5001 52.0001C26.1601 52.5501 25.3461 52.9931 24.6911 52.9851C23.9751 52.9751 24.0991 52.5821 25.0001 52.0001C26.9211 50.7581 27.2671 50.7581 26.5001 52.0001ZM36.6351 53.5521C37.9361 54.9551 39.0001 56.1961 39.0001 56.3091C39.0001 56.4221 36.9751 56.3531 34.5001 56.1571C29.9621 55.7961 28.8901 54.5101 31.2001 52.2001C32.9551 50.4451 33.9961 50.7031 36.6351 53.5521ZM40.0001 52.0001C40.0001 52.5501 39.5231 53.0001 38.9411 53.0001C38.3591 53.0001 38.1601 52.5501 38.5001 52.0001C38.8401 51.4501 39.3161 51.0001 39.5591 51.0001C39.8021 51.0001 40.0001 51.4501 40.0001 52.0001ZM47.8271 55.5771C48.2001 58.9091 46.6651 57.9531 45.5071 54.1321C44.9751 52.3731 45.1391 51.8781 46.1451 52.2091C46.8901 52.4541 47.6471 53.9701 47.8271 55.5771ZM31.0001 58.3931C31.0001 58.6091 30.3021 59.0541 29.4481 59.3821C28.5581 59.7231 28.1571 59.5551 28.5071 58.9891C29.0941 58.0381 31.0001 57.5831 31.0001 58.3931ZM64.7871 60.2201C70.1291 60.2511 73.4151 60.4801 72.0881 60.7291C70.2221 61.0791 69.9951 61.3841 71.0881 62.0751C72.0621 62.6921 71.3201 62.9741 68.6911 62.9851C66.5961 62.9931 65.1021 62.6431 65.3721 62.2081C65.6411 61.7721 64.9931 61.3501 63.9311 61.2701C62.8691 61.1901 62.0001 61.7221 62.0001 62.4531C62.0001 63.2181 60.5641 63.9491 58.6141 64.1771C56.1021 64.4701 55.3591 64.2291 55.7361 63.2451C56.0231 62.4971 55.6731 62.0451 54.9321 62.2091C54.2101 62.3691 53.4361 61.6591 53.2131 60.6321C52.9521 59.4281 53.2111 59.0121 53.9411 59.4641C54.5651 59.8491 59.4461 60.1901 64.7871 60.2201ZM88.1221 61.6751C86.9431 63.7021 86.6591 63.0531 87.6241 60.5391C87.9661 59.6451 88.4581 59.1241 88.7151 59.3821C88.9731 59.6391 88.7061 60.6711 88.1221 61.6751ZM26.0001 61.0001C26.0001 61.5501 25.8021 62.0001 25.5591 62.0001C25.3161 62.0001 24.8401 61.5501 24.5001 61.0001C24.1601 60.4501 24.3591 60.0001 24.9411 60.0001C25.5231 60.0001 26.0001 60.4501 26.0001 61.0001ZM82.5001 61.6851C80.8501 61.8971 78.4881 62.5801 77.2521 63.2031C76.0151 63.8271 74.7121 64.0451 74.3561 63.6901C73.3401 62.6731 78.1401 61.1181 82.0001 61.2131C85.2571 61.2941 85.2911 61.3261 82.5001 61.6851ZM84.7911 68.5251C84.6671 73.2421 84.3421 74.1171 82.5731 74.5021C78.0291 75.4891 65.0481 78.0001 64.4831 78.0001C64.1521 78.0001 64.1601 77.5501 64.5001 77.0001C64.8521 76.4301 63.9861 76.0001 62.4861 76.0001C60.5341 76.0001 59.9391 75.5551 60.1851 74.2791C60.4401 72.9531 61.4691 72.5891 64.6641 72.6911C68.0431 72.8001 68.9101 72.451 69.3391 70.812C69.6281 69.705 70.3461 69.0961 70.9331 69.4581C71.5201 69.8211 72.0001 69.6411 72.0001 69.0591C72.0001 68.4771 72.7051 68.0001 73.5671 68.0001C74.6801 68.0001 74.9501 68.5811 74.5001 70.0001C74.0651 71.3691 74.3201 72.0001 75.3081 72.0001C76.1251 72.0001 77.0221 70.6381 77.3781 68.8581C78.0551 65.4771 80.4541 63.0831 83.2181 63.0321C84.6561 63.0051 84.9121 63.9021 84.7911 68.5251ZM92.7981 68.7621C92.7301 70.5571 92.0631 72.5331 91.3151 73.1541C90.2411 74.0441 90.0871 73.9361 90.5841 72.6411C90.9771 71.6161 90.7041 71.0001 89.8571 71.0001C89.0431 71.0001 88.5001 69.8991 88.5001 68.2501C88.5001 66.0801 88.9661 65.5001 90.7101 65.5001C92.5641 65.5001 92.9011 66.0261 92.7981 68.7621ZM57.6621 70.2501C57.3851 70.9381 57.1581 70.3751 57.1581 69.0001C57.1581 67.6251 57.3851 67.0631 57.6621 67.7501C57.9401 68.4381 57.9401 69.5631 57.6621 70.2501ZM14.2501 68.6621C13.5631 68.9401 12.4381 68.9401 11.7501 68.6621C11.0631 68.3851 11.6251 68.1581 13.0001 68.1581C14.3751 68.1581 14.9381 68.3851 14.2501 68.6621ZM51.0001 70.0001C53.0361 72.0361 53.8051 78.0001 52.0311 78.0001C51.4991 78.0001 51.3221 77.3241 51.6391 76.4981C52.3941 74.5311 51.2371 70.0001 49.9811 70.0001C49.4411 70.0001 49.0001 70.6891 49.0001 71.5311C49.0001 72.3741 48.3251 73.3221 47.5001 73.6381C46.6751 73.9551 45.9931 74.9531 45.9851 75.8571C45.9711 77.2831 45.8411 77.3021 45.0001 76.0001C43.9511 74.3761 43.6921 75.1041 43.9341 79.0001C44.0581 80.9991 43.8831 81.1991 43.0601 80.0001C40.8131 76.7251 41.9851 73.3881 45.2141 73.8701C45.6071 73.9281 45.6571 73.2691 45.3251 72.4041C44.8391 71.1371 44.5581 71.0911 43.8761 72.1661C43.4111 72.9001 43.0241 73.0851 43.0151 72.5791C42.9911 71.1331 46.1661 68.0001 47.6551 68.0001C48.3951 68.0001 49.9001 68.9001 51.0001 70.0001ZM45.7361 69.5981C45.0171 70.3161 45.9311 73.0001 46.8941 73.0001C47.2681 73.0001 47.6421 72.1001 47.7251 71.0001C47.8721 69.0511 46.9401 68.3941 45.7361 69.5981ZM7.72907 70.604C7.39707 70.936 6.53407 70.9721 5.81307 70.6831C5.01507 70.3641 5.25207 70.1271 6.41707 70.0791C7.47107 70.0361 8.06107 70.272 7.72907 70.604ZM9.66207 74.2501C9.38507 74.9381 9.15807 74.3751 9.15807 73.0001C9.15807 71.6251 9.38507 71.0631 9.66207 71.7501C9.94007 72.4381 9.94007 73.5631 9.66207 74.2501ZM38.0791 73.5831C38.1271 74.7481 38.3641 74.9851 38.6831 74.1881C38.9721 73.4661 38.9361 72.6031 38.6041 72.2711C38.2721 71.9391 38.0361 72.5291 38.0791 73.5831ZM37.1581 78.0001C37.1581 79.3751 37.3851 79.9381 37.6621 79.2501C37.9401 78.5631 37.9401 77.4381 37.6621 76.7501C37.3851 76.0631 37.1581 76.6251 37.1581 78.0001ZM58.6071 77.4711C58.3031 79.5421 57.0001 80.6461 57.0001 78.8331C57.0001 77.5241 57.8491 76.0001 58.5781 76.0001C58.7131 76.0001 58.7261 76.6621 58.6071 77.4711ZM12.0001 80.0281C12.0001 80.5281 11.3281 80.6791 10.5061 80.3641C9.68407 80.0481 9.26507 79.3801 9.57507 78.8791C10.2231 77.8301 12.0001 78.6721 12.0001 80.0281ZM76.7291 78.604C76.3971 78.936 75.5341 78.9721 74.8131 78.6831C74.0151 78.3641 74.2521 78.1271 75.4171 78.0791C76.4711 78.0361 77.0611 78.272 76.7291 78.604ZM67.5001 81.0001C67.1601 81.5501 65.6711 81.9551 64.1911 81.9001L61.5001 81.8011L64.0001 81.0001C67.5491 79.8631 68.2031 79.8631 67.5001 81.0001ZM49.8621 82.6671C49.2531 83.4001 48.2481 83.9641 47.6281 83.9211C46.9251 83.8721 46.9741 83.6511 47.7561 83.3361C48.4471 83.0571 48.8041 82.4931 48.5501 82.0811C48.2961 81.6701 48.7361 81.3331 49.5281 81.3331C50.6151 81.3331 50.6971 81.6611 49.8621 82.6671ZM8.50007 83.0001C8.16007 83.5501 7.34607 83.9931 6.69107 83.9851C5.97507 83.9751 6.09907 83.5821 7.00007 83.0001C8.92107 81.7581 9.26707 81.7581 8.50007 83.0001ZM53.0001 84.3781C53.0001 84.5851 52.2121 85.3731 51.2501 86.1281C49.6641 87.3711 49.6291 87.3361 50.8721 85.7501C52.1791 84.0841 53.0001 83.5551 53.0001 84.3781ZM32.7291 85.604C32.3971 85.936 31.5341 85.9721 30.8131 85.6831C30.0151 85.3641 30.2521 85.1271 31.4171 85.0791C32.4711 85.0361 33.0611 85.272 32.7291 85.604ZM37.0001 90.5981C37.0001 90.8191 35.7251 91.0001 34.1671 91.0001C32.4151 91.0001 31.3331 90.4701 31.3331 89.6101C31.3331 88.5181 31.9411 88.4321 34.1671 89.2081C35.7251 89.7511 37.0001 90.3771 37.0001 90.5981ZM45.2501 88.6621C44.5631 88.9401 43.4381 88.9401 42.7501 88.6621C42.0631 88.3851 42.6251 88.1581 44.0001 88.1581C45.3751 88.1581 45.9381 88.3851 45.2501 88.6621ZM82.7291 88.604C82.3971 88.936 81.5341 88.9721 80.8131 88.6831C80.0151 88.3641 80.2521 88.1271 81.4171 88.0791C82.4711 88.0361 83.0611 88.272 82.7291 88.604Z" fill="#34373B"/>
<path fill-rule="evenodd" clip-rule="evenodd" d="M1.01505 2.25005C1.02405 3.50805 1.35505 4.03205 1.76505 3.43905C2.16905 2.85505 4.07505 1.88805 6.00005 1.29105L9.50005 0.204053L5.25005 0.102053C1.47505 0.0110528 1.00205 0.251053 1.01505 2.25005ZM79.0001 3.72805C78.1751 4.04105 76.1841 5.39305 74.5751 6.73205C72.7231 8.27305 70.8071 9.00505 69.3551 8.72805C68.0931 8.48605 67.2671 8.62305 67.5191 9.03105C67.7711 9.43905 66.9701 10.0431 65.7391 10.3731C62.4281 11.2601 54.8031 11.1271 55.3811 10.1921C55.6561 9.74805 54.1321 9.28105 51.9951 9.15505C48.9201 8.97305 47.8731 9.36805 46.9741 11.0481C46.3491 12.2161 46.0581 13.3921 46.3281 13.6611C46.5971 13.9301 47.1141 13.2171 47.4761 12.0751C48.2421 9.66205 50.5261 9.32305 51.3621 11.5001C51.6781 12.3251 52.6791 13.0001 53.5851 13.0001C54.7561 13.0001 55.0781 13.5961 54.6951 15.0571C54.3061 16.5451 54.4811 16.8501 55.3291 16.1571C56.2381 15.4141 74.3371 12.0001 77.3691 12.0001C77.7161 12.0001 78.0001 12.7021 78.0001 13.5591C78.0001 14.4161 78.4121 14.8641 78.9151 14.5531C79.4181 14.2421 80.0291 14.5531 80.2741 15.2441C80.5181 15.9351 80.6691 13.4661 80.6091 9.75805C80.5491 6.05005 80.5001 3.04805 80.5001 3.08705C80.5001 3.12605 79.8251 3.41405 79.0001 3.72805ZM81.3361 8.56705C81.0051 9.42905 81.2441 10.6441 81.8671 11.2671C82.4901 11.8901 83.0001 13.2851 83.0001 14.3671C83.0001 16.7851 83.9161 16.0301 84.4701 13.1561C84.7141 11.8891 84.4001 11.1331 83.6891 11.2701C83.0351 11.3971 82.5361 10.4881 82.5791 9.25005C82.6721 6.62205 82.1851 6.35405 81.3361 8.56705ZM25.4801 15.3621C26.5041 16.1111 28.1601 16.5091 29.1601 16.2481C31.9251 15.5251 30.2901 14.0001 26.7501 14.0001C23.8621 14.0001 23.7631 14.1061 25.4801 15.3621ZM44.9181 18.2501C44.8731 18.9381 44.6321 20.7381 44.3841 22.2501C44.1301 23.7911 44.3931 25.0001 44.9821 25.0001C45.5591 25.0001 45.9361 23.7501 45.8201 22.2211C45.7041 20.6931 45.9481 18.8931 46.3631 18.2211C46.7781 17.5501 46.6411 17.0001 46.0591 17.0001C45.4771 17.0001 44.9631 17.5631 44.9181 18.2501ZM90.7081 19.9901C91.0821 21.4211 90.5841 22.2181 88.9381 22.8271L86.6471 23.6751L89.0301 24.2981C91.9091 25.0501 91.8251 25.1231 92.6151 21.1771C93.1071 18.7141 92.9061 18.0001 91.7191 18.0001C90.6821 18.0001 90.3551 18.6431 90.7081 19.9901ZM52.5001 20.0001C52.8401 20.5501 53.3161 21.0001 53.5591 21.0001C53.8021 21.0001 54.0001 20.5501 54.0001 20.0001C54.0001 19.4501 53.5231 19.0001 52.9411 19.0001C52.3591 19.0001 52.1601 19.4501 52.5001 20.0001ZM83.4291 21.6671C83.9891 23.5251 83.7551 23.7651 81.7911 23.3481C79.7761 22.9211 79.7121 22.9981 81.2581 23.9851C82.2251 24.6031 83.4091 24.8651 83.8911 24.5681C84.5791 24.1421 84.6581 27.8291 84.0281 31.0001C83.9741 31.2751 83.2771 30.3751 82.4811 29.0001L81.0321 26.5001L81.1491 29.5001C81.2141 31.1501 80.9341 33.2881 80.5261 34.2501C80.0791 35.3091 80.2231 36.0001 80.8931 36.0001C81.5021 36.0001 82.0321 35.2121 82.0701 34.2501C82.1301 32.7541 82.2651 32.7901 83.0001 34.5001C83.7171 36.1681 83.8711 36.2151 83.9301 34.7811C83.9711 33.7711 84.552 33.2751 85.34 33.5771C86.077 33.8601 87.2571 33.3961 87.9621 32.5461C88.9691 31.3331 88.9771 31.0001 88.0001 31.0001C87.1001 31.0001 87.0501 30.6441 87.8201 29.7161C88.9911 28.3051 87.7641 25.4101 86.3621 26.2761C85.8881 26.5691 85.4321 25.6811 85.3501 24.3041C85.2671 22.9261 84.6541 21.2821 83.9871 20.6501C83.0501 19.7611 82.9241 19.9921 83.4291 21.6671ZM12.0001 23.7511C1.31505 24.9281 1.00005 25.0371 1.00005 27.5611C1.00005 28.9031 1.54005 30.0001 2.20005 30.0001C3.13305 30.0001 3.13305 30.2671 2.20005 31.2001C0.329053 33.0711 0.626053 44.6421 2.56305 45.3861C3.43805 45.7221 3.81105 46.4971 3.40905 47.1471C2.95905 47.8751 3.12805 48.0391 3.86205 47.5851C4.50605 47.1871 4.77405 46.4431 4.45705 45.9311C4.14105 45.4191 4.56905 45.0001 5.41005 45.0001C6.42405 45.0001 6.72305 45.5601 6.29905 46.6641C5.86905 47.7831 6.04305 48.0911 6.83005 47.6051C8.70005 46.4491 8.20005 49.5091 6.22705 51.2941C4.93105 52.4681 4.05805 52.6181 2.97705 51.8551C1.75405 50.9901 1.80005 50.9081 3.25005 51.3741C5.51805 52.1041 5.51005 50.7991 3.23705 49.3801C1.63405 48.3791 1.45805 48.8111 1.29705 54.1391C1.15505 58.8611 1.42505 60.0001 2.68305 60.0001C4.02005 60.0001 4.05005 60.2521 2.89005 61.7501C1.59905 63.4171 1.63305 63.4171 3.59605 61.7501C4.73005 60.7881 6.41005 60.0001 7.32905 60.0001C8.24805 60.0001 9.00005 59.5271 9.00005 58.9491C9.00005 58.3141 11.1801 57.9851 14.5001 58.1201C19.7321 58.3311 21.4721 59.2391 18.7501 60.3381C18.0631 60.6151 18.6251 60.8851 20.0001 60.9361C21.7671 61.0031 22.1091 61.2791 21.1651 61.8771C20.1511 62.5201 20.3311 62.8531 21.9151 63.2681C23.8041 63.7621 24.4731 62.9971 24.1181 60.7501C24.0531 60.3371 24.4501 60.0001 25.0001 60.0001C25.5501 60.0001 26.0001 60.4501 26.0001 61.0001C26.0001 61.5501 28.1371 61.9321 30.7501 61.8501L35.5001 61.7001L31.0001 61.1001C26.3351 60.4781 26.4681 59.2991 31.1831 59.4851C32.6581 59.5431 33.6331 59.2151 33.3481 58.7551C33.0641 58.2951 31.9521 58.1981 30.8771 58.5391C29.1591 59.0841 29.0041 58.8161 29.5991 56.3301C30.8921 50.9221 32.6971 49.9041 35.9891 52.7221C38.8981 55.2141 38.4871 55.9961 34.2501 56.0301C31.3301 56.0541 30.8701 56.2771 32.1711 57.0361C33.2011 57.6371 34.7541 57.6641 36.2231 57.1051C37.6761 56.5531 39.2681 56.5701 40.3031 57.1491C42.7031 58.4931 42.4081 60.0031 39.7501 59.9851C37.9311 59.9721 37.7871 59.7841 39.0001 59.0001C40.2131 58.2161 40.0691 58.0281 38.2501 58.0151C36.8471 58.0061 36.0001 58.6031 36.0001 59.6011C36.0001 60.8981 36.8071 61.1041 40.2501 60.6891C42.5871 60.4081 45.7371 59.8601 47.2501 59.4721C48.9251 59.0431 50.0001 59.1691 50.0001 59.7961C50.0001 60.3611 48.0871 61.1411 45.7501 61.5281C43.4131 61.9151 40.7121 62.6461 39.7501 63.1511C38.6181 63.7461 38.0001 63.7051 38.0001 63.0351C38.0001 62.4661 37.6341 62.0001 37.1861 62.0001C36.7381 62.0001 36.4011 63.4621 36.4361 65.2501C36.4711 67.0371 36.7251 68.4171 37.0001 68.3151C41.6001 66.6081 41.5001 66.7081 39.4271 65.8951C37.6401 65.1951 37.6591 65.1351 39.6911 65.0701C42.4711 64.9811 43.5351 66.6011 41.4581 67.7641C39.3921 68.9201 38.8371 77.2561 40.4961 82.2101C41.4001 84.9091 41.4341 86.0461 40.6191 86.3811C40.0041 86.6351 40.4001 86.8851 41.5001 86.9361C42.6001 86.9881 44.1751 87.5091 45.0001 88.0941C46.1381 88.9001 45.7771 89.0041 43.5001 88.5251C41.8501 88.1771 39.7121 87.8891 38.7501 87.8841C37.7461 87.8791 37.0341 87.1561 37.0791 86.1881C37.1281 85.1371 37.3491 84.9741 37.6641 85.7561C37.9431 86.4471 38.6121 86.7401 39.1511 86.4071C39.7241 86.0531 39.3771 84.941 38.3151 83.729C37.3171 82.589 37.0631 81.9851 37.7501 82.3871C38.4381 82.7891 39.0001 82.8821 39.0001 82.5941C39.0001 82.3061 38.0801 81.5781 36.9561 80.9761C35.0151 79.9371 34.9261 80.1241 35.1951 84.6911C35.3511 87.3361 35.9331 89.8311 36.4891 90.2351C37.0451 90.6391 36.0111 90.9761 34.1911 90.9851C32.3531 90.9931 31.1431 90.5781 31.4691 90.0501C32.1911 88.8821 28.9691 87.1021 27.2501 87.7181C26.5631 87.9651 26.0001 87.6531 26.0001 87.0241C26.0001 86.3961 25.5501 86.1601 25.0001 86.5001C24.4501 86.8401 24.0001 86.6091 24.0001 85.9881C24.0001 83.4851 21.2411 82.1431 16.8911 82.5291C14.4761 82.7431 13.1751 82.6461 14.0001 82.3131C14.8251 81.9791 15.8601 81.0981 16.3001 80.3531C16.7401 79.6091 17.5541 79.0001 18.1091 79.0001C18.6641 79.0001 18.8431 79.4451 18.5071 79.9891C18.1551 80.5591 18.5641 80.7211 19.4741 80.3721C20.7791 79.8711 20.8311 79.4851 19.7761 78.1331C18.6391 76.6781 18.6911 76.6501 20.2501 77.8721C21.7531 79.0511 22.0001 79.0281 22.0001 77.7061C22.0001 76.8591 21.5391 75.9381 20.9751 75.6581C20.4111 75.3791 20.5241 75.2741 21.2251 75.4261C21.9261 75.5781 22.4201 76.7821 22.3211 78.1011C22.2231 79.4211 22.3601 81.1621 22.6251 81.9721C23.0501 83.2681 23.2191 83.2681 24.0381 81.9721C24.7701 80.8151 24.9731 80.9941 24.9851 82.8091C24.9931 84.0911 25.4451 84.8431 26.0001 84.5001C26.5501 84.1601 27.0001 84.3941 27.0001 85.0201C27.0001 85.7731 28.0501 85.9281 30.1001 85.4781C32.9621 84.8491 33.1451 84.9671 32.4951 87.0171C31.9781 88.6461 32.1511 89.1161 33.1451 88.7851C35.3201 88.0601 34.7101 85.6651 32.0001 84.2941C30.6251 83.5991 30.0631 83.0231 30.7501 83.0151C32.0661 82.9991 32.5421 80.055 31.2501 79.923C30.8371 79.881 29.7131 79.6961 28.7501 79.5121C27.5441 79.2811 26.9641 79.8491 26.8841 81.3381C26.7751 83.3641 26.7371 83.3751 26.2761 81.5001C26.0061 80.4001 25.3641 78.9811 24.8491 78.3461C24.3351 77.7111 24.2221 75.965 24.5981 74.465C25.1111 72.422 24.9461 71.851 23.9391 72.187C22.5311 72.656 19.0001 70.1681 19.0001 68.7061C19.0001 68.2391 19.6501 68.5071 20.4441 69.3011C21.2861 70.1431 22.9561 70.5401 24.4531 70.2541C26.5031 69.8621 26.9851 70.1391 26.8511 71.6321C26.5171 75.3531 27.0201 78.1061 27.9311 77.5431C28.4431 77.2261 29.1631 77.4541 29.5301 78.0491C29.9731 78.7651 30.8801 78.5161 32.2141 77.3151C34.2111 75.5171 34.1981 75.4951 30.9441 75.0001C29.1371 74.7251 27.4591 73.8941 27.2141 73.1531C26.8781 72.1361 27.2261 72.0401 28.6341 72.7621C29.6601 73.2881 32.0101 74.0051 33.8551 74.3551C36.6481 74.8851 37.1091 74.7271 36.6051 73.4141C36.2721 72.5461 36.0001 71.4231 36.0001 70.9181C36.0001 70.4131 34.4251 70.0001 32.5001 70.0001C30.4591 70.0001 29.0001 70.4971 29.0001 71.1911C29.0001 71.8461 28.3751 71.5281 27.6111 70.4831C26.8471 69.4381 26.4741 67.9291 26.7811 67.1281C27.1211 66.2431 26.9141 65.9351 26.2551 66.3421C25.6591 66.7111 24.9811 66.4471 24.7481 65.7561C24.4111 64.7541 24.0101 64.7601 22.7681 65.7851C21.9111 66.4921 20.8261 67.0011 20.3551 66.9171C19.8851 66.8321 15.3381 66.8161 10.2501 66.8821C2.43305 66.9821 1.00005 67.2511 1.00005 68.6221C1.00005 70.0191 1.23205 70.0541 2.66305 68.8721C3.95905 67.8021 4.41805 67.7751 4.74605 68.7501C4.97705 69.4381 5.91705 70.0361 6.83305 70.0791C7.92505 70.1311 8.05705 70.336 7.21605 70.673C6.51005 70.957 5.27905 70.6461 4.48005 69.9831C3.22705 68.9441 3.17605 69.2081 4.11105 71.8881C4.70805 73.6001 5.77405 75.0001 6.48105 75.0001C7.18805 75.0001 8.04405 76.0131 8.38305 77.2501C8.89805 79.1271 9.16305 79.2511 9.98505 78.0001C10.5261 77.1751 10.9761 75.3051 10.9851 73.8441C10.9971 71.6831 11.3731 71.2851 13.0001 71.7101C14.1001 71.9981 14.9641 72.9681 14.9211 73.8671C14.8711 74.9031 14.6581 75.0431 14.3381 74.2501C14.0601 73.5631 13.4211 73.0001 12.9171 73.0001C11.5271 73.0001 11.8201 76.7691 13.2501 77.2801C13.9381 77.5251 14.1381 78.1121 13.6961 78.5841C13.2531 79.0561 12.4801 78.7801 11.9771 77.9711C11.3041 76.8881 11.1201 77.2121 11.2811 79.1961C11.4021 80.6781 11.2321 81.8031 10.9041 81.6961C10.5761 81.5881 9.59205 82.0941 8.71805 82.8191C7.50605 83.8251 6.63105 83.8731 5.04305 83.0231C2.01905 81.4041 1.00005 82.5441 1.00005 87.5471V91.9761L48.5001 91.9691L96.0001 91.9631V83.4221C96.0001 77.9831 95.6371 75.1061 95.0001 75.5001C94.4501 75.8401 94.0001 75.4541 94.0001 74.6421C94.0001 73.8311 94.5631 72.9041 95.2501 72.5831C96.2501 72.1171 96.2501 71.8831 95.2501 71.4171C94.5631 71.0961 94.0001 69.1711 94.0001 67.1391C94.0001 65.1071 93.2991 62.4451 92.4431 61.2231C91.5871 60.0001 91.1441 59.0001 91.4581 59.0001C91.7721 59.0001 92.9011 60.4331 93.9671 62.1851C95.5841 64.8451 95.8761 65.0101 95.7391 63.1851C95.6481 61.9831 95.2201 61.0001 94.7871 61.0001C94.3541 61.0001 94.0001 60.3251 94.0001 59.5001C94.0001 58.5851 93.0681 58.0001 91.6081 58.0001C89.8631 58.0001 89.0391 58.7071 88.5601 60.6181C88.1981 62.0581 87.687 63.0201 87.423 62.7571C86.25 61.5831 89.0781 57.0001 90.9751 57.0001C92.0891 57.0001 93.0001 56.6421 93.0001 56.2041C93.0001 55.7651 91.8111 55.4281 90.3591 55.4541C87.8041 55.4981 86.74 56.5721 85.604 60.2501C85.23 61.4581 84.0311 62.0001 81.7311 62.0001C79.8991 62.0001 77.8991 62.5011 77.2871 63.1131C76.6761 63.7241 75.5731 63.9801 74.8381 63.6801C73.9441 63.3161 74.2431 62.9081 75.7391 62.4541C76.9701 62.0791 77.7261 61.3661 77.4201 60.8701C77.1131 60.3741 76.4431 60.2261 75.9311 60.5431C75.4191 60.8591 75.0001 60.7541 75.0001 60.3091C75.0001 59.8641 77.0911 59.4191 79.6471 59.3211C82.2031 59.2221 84.6491 58.5691 85.0811 57.8681C85.9871 56.4031 85.2591 54.7221 84.0441 55.4731C83.5951 55.7511 82.6341 55.2641 81.9101 54.3921C80.7201 52.9571 80.5251 52.9821 79.8671 54.6531C79.4551 55.7021 79.1101 53.3661 79.0701 49.2501C79.0151 43.5031 78.6891 42.0001 77.5001 42.0001C76.3711 42.0001 76.0001 43.2101 76.0001 46.8931C76.0001 50.2721 75.5461 51.9601 74.5321 52.3491C73.7251 52.6591 72.7981 52.4821 72.4731 51.9561C72.1481 51.4301 72.6101 51.0001 73.5001 51.0001C74.3901 51.0001 74.8391 50.5491 74.4981 49.9971C74.0861 49.3301 73.2291 49.3421 71.9391 50.0321C70.6041 50.7471 70.0001 50.7481 70.0001 50.0351C70.0001 49.4661 69.3251 49.0001 68.5001 49.0001C67.6751 49.0001 67.0071 49.3371 67.0151 49.7501C67.0511 51.4931 68.6651 52.8441 70.5151 52.6781C71.9001 52.5541 72.4111 53.0291 72.2061 54.2501C72.0451 55.2131 72.4091 56.0001 73.0151 56.0001C73.6221 56.0001 73.8591 55.5811 73.5431 55.0691C73.2261 54.5571 73.4251 53.8561 73.9841 53.5101C75.1081 52.8151 75.3351 54.9631 74.3951 57.4121C74.0631 58.2791 73.3881 58.7401 72.8951 58.4351C72.4031 58.1311 72.0001 58.3211 72.0001 58.8581C72.0001 59.3941 72.5631 60.0601 73.2501 60.3381C73.9381 60.6151 73.3751 60.8851 72.0001 60.9361C70.0081 61.0111 69.8051 61.2271 71.0001 62.0001C72.1131 62.7201 71.5191 62.9731 68.6911 62.9851C65.9241 62.9961 65.0791 62.6581 65.6011 61.7501C65.9971 61.0631 65.9641 60.8221 65.5291 61.2151C65.0931 61.6081 63.9401 61.5031 62.9671 60.9821C61.5001 60.1971 61.2851 60.3751 61.7151 62.0171C62.1481 63.6751 61.7321 64.0001 59.1761 64.0001C57.4941 64.0001 55.8651 64.4101 55.5551 64.9111C54.9841 65.8361 53.7081 65.7791 51.0001 64.7101C50.1751 64.3841 48.6001 63.9181 47.5001 63.6751C46.4001 63.4311 47.1611 63.1801 49.1911 63.1161C51.2211 63.0521 53.1651 63.4571 53.5101 64.0161C53.8561 64.5751 54.5571 64.7741 55.0691 64.4571C56.4121 63.6271 56.2151 61.9551 54.8091 62.2501C54.1551 62.3871 53.4471 61.7141 53.2371 60.7541C52.9511 59.4471 53.3141 59.1561 54.6771 59.5981C55.9631 60.0141 56.1221 59.9161 55.2171 59.2651C54.5111 58.7571 51.9231 58.3771 49.4661 58.4201C47.0091 58.4641 44.9991 58.1631 45.0001 57.7501C45.0001 57.3371 44.2121 56.9641 43.2501 56.9211C42.1941 56.8731 41.9981 56.6411 42.7561 56.3361C43.4471 56.0571 43.6851 55.3051 43.2841 54.6651C42.1411 52.8361 42.0721 50.9271 43.1741 51.6081C43.7481 51.9621 44.0891 51.2191 43.9761 49.8621C43.8671 48.5631 43.8281 44.0131 43.8891 39.7501C43.9941 32.4491 44.1301 31.9931 46.2501 31.8841C47.9431 31.7971 48.0671 31.6551 46.7501 31.3111C45.7181 31.0411 45.0001 29.9021 45.0001 28.5341C45.0001 25.4691 43.2061 24.9141 33.5741 25.0001C29.1331 25.0401 23.0251 24.7131 20.0001 24.2741C16.9751 23.8351 13.3751 23.6001 12.0001 23.7511ZM76.6381 24.5001C76.2881 25.4141 76.6371 26.0001 77.5311 26.0001C78.3391 26.0001 79.0001 25.3251 79.0001 24.5001C79.0001 23.6751 78.5981 23.0001 78.1071 23.0001C77.6161 23.0001 76.9551 23.6751 76.6381 24.5001ZM93.6641 26.7741C92.2571 27.0851 91.9751 27.7621 92.4541 29.6741C92.8921 31.4181 92.7341 31.9541 91.9281 31.4561C91.2951 31.0641 90.3841 31.3641 89.9041 32.1221C88.5851 34.2041 88.8891 35.7151 90.2821 34.0001C90.9521 33.1751 92.3061 32.3631 93.2921 32.1971C94.8791 31.9281 94.9361 32.1521 93.7921 34.1581C93.0811 35.4041 91.9381 37.0351 91.2501 37.7831C89.5961 39.5821 89.6721 40.0631 91.5001 39.3621C92.4661 38.9911 93.0001 39.3831 93.0001 40.4641C93.0001 41.9391 93.1781 41.9651 94.4661 40.6771C95.8891 39.2541 96.4691 29.9961 95.1241 30.1601C93.0731 30.4121 92.8621 29.8221 94.5571 28.5821C96.7631 26.9691 96.3711 26.1761 93.6641 26.7741ZM24.0001 28.0001C24.0001 28.5501 23.5501 29.0001 23.0001 29.0001C22.4501 29.0001 22.0001 28.5501 22.0001 28.0001C22.0001 27.4501 22.4501 27.0001 23.0001 27.0001C23.5501 27.0001 24.0001 27.4501 24.0001 28.0001ZM15.0001 28.3781C15.0001 28.5851 14.2131 29.3731 13.2501 30.1281C11.6641 31.3711 11.6291 31.3361 12.8721 29.7501C14.1791 28.0841 15.0001 27.5551 15.0001 28.3781ZM19.0001 29.0001C19.0001 29.5501 18.5501 30.0001 18.0001 30.0001C17.4501 30.0001 17.0001 29.5501 17.0001 29.0001C17.0001 28.4501 17.4501 28.0001 18.0001 28.0001C18.5501 28.0001 19.0001 28.4501 19.0001 29.0001ZM43.6831 30.1881C43.3641 30.9851 43.1271 30.7481 43.0791 29.5831C43.0361 28.5291 43.2721 27.9391 43.6041 28.2711C43.9361 28.6031 43.9721 29.4661 43.6831 30.1881ZM10.5001 30.0001C10.1601 30.5501 9.12105 30.9931 8.19105 30.9851C6.73405 30.9711 6.70705 30.8351 8.00005 30.0001C9.95805 28.7341 11.2821 28.7341 10.5001 30.0001ZM33.5001 31.0001C33.1601 31.5501 32.3461 31.9931 31.6911 31.9851C30.9751 31.9751 31.0991 31.5821 32.0001 31.0001C33.9211 29.7581 34.2671 29.7581 33.5001 31.0001ZM74.2141 34.8251C74.2651 36.6111 74.6871 38.3071 75.1531 38.5951C76.2921 39.2991 76.2071 34.8751 75.0461 33.0401C74.3771 31.9821 74.1471 32.4751 74.2141 34.8251ZM86.5701 36.6771C86.2691 37.4621 86.4291 37.8531 86.9261 37.5461C87.4231 37.2391 87.9801 37.3751 88.1651 37.8491C88.3491 38.3231 89.3071 37.9321 90.2931 36.9801C92.0111 35.3231 91.9821 35.2501 89.6021 35.2501C88.2361 35.2501 86.8721 35.8921 86.5701 36.6771ZM56.2501 38.0311C53.3251 39.2071 53.4131 39.5151 56.7501 39.7911C58.2631 39.9151 59.6501 40.4631 59.8331 41.0091C60.4151 42.7371 62.0001 42.0781 62.0001 40.1071C62.0001 38.6491 59.7981 36.6381 58.6681 37.0631C58.5761 37.0981 57.4871 37.5341 56.2501 38.0311ZM85.0001 40.0001C85.0001 40.5501 85.4771 41.0001 86.0591 41.0001C86.6411 41.0001 86.8401 40.5501 86.5001 40.0001C86.1601 39.4501 85.6841 39.0001 85.4411 39.0001C85.1981 39.0001 85.0001 39.4501 85.0001 40.0001ZM14.8071 43.5261C14.4991 43.8341 13.9401 43.2791 13.5641 42.2931C13.0221 40.8681 13.1361 40.7531 14.1241 41.7331C14.8081 42.4121 15.1151 43.2191 14.8071 43.5261ZM53.0791 42.5831C53.1271 43.7481 53.3641 43.9851 53.6831 43.1881C53.9721 42.4661 53.9361 41.6031 53.6041 41.2711C53.2721 40.9391 53.0361 41.5291 53.0791 42.5831ZM6.00005 42.8931C6.00005 43.3841 5.32505 44.0451 4.50005 44.3621C3.58605 44.7121 3.00005 44.3631 3.00005 43.4691C3.00005 42.6611 3.67505 42.0001 4.50005 42.0001C5.32505 42.0001 6.00005 42.4021 6.00005 42.8931ZM39.6261 44.4671C40.6441 47.1191 39.5271 47.9911 38.3441 45.4671C37.6981 44.0881 37.6011 43.0001 38.1251 43.0001C38.6411 43.0001 39.3161 43.6601 39.6261 44.4671ZM59.2601 44.4851C58.5781 45.2601 58.4231 46.1441 58.9161 46.4481C59.4091 46.7531 59.5591 47.9721 59.2491 49.1571C58.8621 50.6341 59.0491 51.0871 59.8421 50.5971C60.5041 50.1891 61.0001 50.4681 61.0001 51.2501C61.0001 52.0021 61.7121 53.4911 62.5821 54.5591C63.8391 56.1021 64.0561 56.1561 63.6411 54.8231C63.3541 53.9011 63.7671 52.6081 64.5591 51.9511C66.8051 50.0871 66.2561 48.7181 63.4761 49.2491C62.0881 49.5151 60.7111 49.3421 60.4171 48.8661C60.1231 48.3901 60.3021 48.0001 60.8161 48.0001C61.3301 48.0001 61.7501 46.8751 61.7501 45.5001C61.7501 42.6911 61.0791 42.4181 59.2601 44.4851ZM13.9781 47.0831C13.9901 46.3041 14.2961 45.9631 14.6581 46.3251C15.0201 46.6871 15.8841 46.5111 16.5781 45.9361C18.2811 44.5221 17.8971 47.2141 16.0841 49.3991C15.2031 50.4601 15.1331 51.0001 15.8781 51.0001C16.4951 51.0001 17.0361 50.4381 17.0791 49.7501C17.1421 48.7571 17.2621 48.7581 17.6641 49.7561C17.9431 50.4471 18.5771 50.7611 19.0741 50.4541C19.5711 50.1471 19.7091 50.5941 19.3821 51.4481C18.6721 53.2971 18.4711 53.3221 15.8071 51.8971C14.2411 51.0591 13.5541 51.1041 12.9481 52.0831C12.3131 53.1111 11.6791 53.1261 9.82605 52.1561C8.54005 51.4831 8.32305 51.1771 9.34005 51.4721C11.7621 52.1751 13.3601 51.1601 12.1931 49.6611C11.6961 49.0221 11.0171 47.3751 10.6841 46.0001L10.0801 43.5001L12.0181 46.0001C13.1981 47.5221 13.9641 47.9461 13.9781 47.0831ZM53.5001 46.0001C53.8401 46.5501 53.6411 47.0001 53.0591 47.0001C52.4771 47.0001 52.0001 47.5051 52.0001 48.1221C52.0001 48.8981 52.4641 48.8601 53.5001 48.0001C54.7031 47.0021 55.3291 47.0271 56.6611 48.1281C58.1811 49.3841 58.2031 49.3091 56.9201 47.2501C56.1491 46.0131 54.9261 45.0001 54.2001 45.0001C53.4751 45.0001 53.1601 45.4501 53.5001 46.0001ZM54.4331 50.7501C54.5741 51.7121 55.4461 52.6481 56.3711 52.8281C58.1521 53.1761 58.2421 51.0451 56.5001 49.7651C54.8601 48.5601 54.1611 48.8931 54.4331 50.7501ZM26.5001 52.0001C26.1601 52.5501 25.3461 52.9931 24.6911 52.9851C23.9751 52.9751 24.0991 52.5821 25.0001 52.0001C26.9211 50.7581 27.2671 50.7581 26.5001 52.0001ZM40.0001 52.0001C40.0001 52.5501 39.5231 53.0001 38.9411 53.0001C38.3591 53.0001 38.1601 52.5501 38.5001 52.0001C38.8401 51.4501 39.3161 51.0001 39.5591 51.0001C39.8021 51.0001 40.0001 51.4501 40.0001 52.0001ZM51.8751 51.5001C51.8061 51.7751 51.6941 52.4131 51.6251 52.9171C51.5561 53.4211 51.1631 54.1711 50.7501 54.5831C50.3371 54.9961 50.0001 55.7831 50.0001 56.3331C50.0001 56.8831 50.2841 57.0491 50.6311 56.7021C50.9791 56.3551 52.1611 56.5511 53.2591 57.1381C55.2731 58.2171 57.0601 56.9241 56.9061 54.5001C56.8711 53.9501 56.6241 54.0371 56.3561 54.6941C56.0891 55.3501 55.2271 55.6411 54.4411 55.3391C53.6551 55.0371 53.2601 54.3881 53.5651 53.8951C53.8691 53.4031 53.6151 53.0001 53.0001 53.0001C52.3851 53.0001 52.1601 52.5501 52.5001 52.0001C52.8401 51.4501 52.8661 51.0001 52.5591 51.0001C52.2521 51.0001 51.9441 51.2251 51.8751 51.5001ZM68.2501 53.8201C65.3131 54.2371 65.3811 56.3651 68.3951 58.3391C70.5981 59.7831 70.8271 59.7701 71.2401 58.1881C71.9771 55.3701 70.6801 53.4741 68.2501 53.8201ZM23.0001 55.5001C23.0001 56.3251 22.5501 57.0001 22.0001 57.0001C21.4501 57.0001 21.0001 56.3251 21.0001 55.5001C21.0001 54.6751 21.4501 54.0001 22.0001 54.0001C22.5501 54.0001 23.0001 54.6751 23.0001 55.5001ZM28.4091 54.8531C28.6991 55.3221 28.3321 56.5321 27.5931 57.5421C26.3471 59.2461 26.2501 59.1851 26.2501 56.6891C26.2501 54.0701 27.3481 53.1361 28.4091 54.8531ZM8.00005 58.0001C8.00005 58.5501 7.12705 59.0001 6.05905 59.0001C4.99105 59.0001 3.84005 58.5501 3.50005 58.0001C3.14905 57.4331 3.99005 57.0001 5.44105 57.0001C6.84805 57.0001 8.00005 57.4501 8.00005 58.0001ZM63.4621 59.0611C63.1431 59.5781 64.3341 60.0001 66.1081 60.0001C69.5761 60.0001 69.6021 59.1941 66.1561 58.5301C64.9931 58.3061 63.7811 58.5451 63.4621 59.0611ZM15.0001 62.0591C15.0001 62.6411 14.4801 62.7971 13.8451 62.4051C13.1671 61.9851 12.9611 62.1281 13.3461 62.7521C13.7071 63.3351 14.8961 63.5781 15.9901 63.2921C17.0831 63.0071 17.7311 62.3741 17.4301 61.8861C16.6691 60.6561 15.0001 60.7741 15.0001 62.0591ZM84.7931 68.4191C84.6701 73.0991 84.3231 73.9871 82.2511 74.9321C80.9301 75.5331 79.4141 75.7561 78.8811 75.4271C78.3481 75.0971 77.3701 75.2551 76.7061 75.7781C76.0431 76.3001 74.8251 76.7961 74.0001 76.8801C73.1751 76.9641 71.3001 77.1381 69.8331 77.2671C68.3661 77.3951 66.8291 77.8381 66.4161 78.2501C65.1131 79.5541 63.7621 79.0611 64.3621 77.5001C64.7801 76.4091 64.2441 76.0001 62.3951 76.0001C60.5291 76.0001 59.9411 75.5431 60.1851 74.2791C60.4401 72.9531 61.4691 72.5891 64.6641 72.6911C68.0431 72.8001 68.9101 72.451 69.3391 70.812C69.6281 69.705 70.3461 69.0961 70.9331 69.4581C71.5201 69.8211 72.0001 69.6411 72.0001 69.0591C72.0001 68.4771 72.7051 68.0001 73.5671 68.0001C74.6801 68.0001 74.9501 68.5811 74.5001 70.0001C74.0651 71.3691 74.3201 72.0001 75.3081 72.0001C76.1251 72.0001 77.0221 70.6381 77.3781 68.8581C78.0551 65.4771 80.4541 63.0831 83.2181 63.0321C84.6521 63.0051 84.9121 63.8971 84.7931 68.4191ZM9.90905 65.0771C8.88405 65.7271 9.24905 65.9741 11.2501 65.9851C14.2361 66.0011 14.7741 65.5111 12.6591 64.7001C11.9221 64.4171 10.6841 64.5871 9.90905 65.0771ZM18.2691 64.6931C19.2421 64.9471 20.5921 64.9301 21.2691 64.6561C21.9461 64.3821 21.1501 64.1751 19.5001 64.1951C17.8501 64.2151 17.2961 64.4391 18.2691 64.6931ZM92.798 68.7621C92.73 70.5571 92.0631 72.5331 91.3151 73.1541C90.2411 74.0441 90.0871 73.9361 90.5841 72.6411C90.9771 71.6161 90.7041 71.0001 89.8571 71.0001C89.0431 71.0001 88.5001 69.8991 88.5001 68.2501C88.5001 66.0801 88.9661 65.5001 90.7101 65.5001C92.5641 65.5001 92.901 66.0261 92.798 68.7621ZM56.0001 68.0001C56.0001 68.5501 55.5231 69.0001 54.9411 69.0001C54.3591 69.0001 54.1601 68.5501 54.5001 68.0001C54.8401 67.4501 55.3161 67.0001 55.5591 67.0001C55.8021 67.0001 56.0001 67.4501 56.0001 68.0001ZM57.3861 72.1511C56.9171 75.6841 57.0361 77.0961 57.7631 76.6461C58.3921 76.2581 58.6881 76.7051 58.4891 77.7451C58.3041 78.7101 58.1051 79.9501 58.0461 80.5001C57.9871 81.0501 57.4341 80.6291 56.8161 79.5651C55.5371 77.3601 55.1161 70.9981 56.2501 70.9991C56.6631 71.0001 57.0001 70.1001 57.0001 69.0001C57.0001 67.9001 57.2401 67.0001 57.5341 67.0001C57.8281 67.0001 57.7611 69.3181 57.3861 72.1511ZM13.0021 68.8941C11.2981 69.3681 10.3031 70.5291 9.87005 72.5451C9.27405 75.3251 9.23005 75.3491 9.11805 72.9501C8.97505 69.8691 10.6761 67.9651 13.4501 68.1001C15.1691 68.1831 15.0961 68.3121 13.0021 68.8941ZM51.0001 70.0001C53.0361 72.0361 53.8051 78.0001 52.0311 78.0001C51.4991 78.0001 51.3221 77.3241 51.6391 76.4981C52.3591 74.6231 51.2621 70.0001 50.0981 70.0001C49.6221 70.0001 48.9831 70.9581 48.6761 72.1301C48.3261 73.4711 47.5841 74.0541 46.6731 73.7051C45.6351 73.3061 45.3681 73.6931 45.7301 75.0751C46.0161 76.1691 45.7261 77.0001 45.0581 77.0001C44.4111 77.0001 44.2031 76.4801 44.5951 75.8451C45.0041 75.1841 44.8731 74.9601 44.2891 75.3221C43.7271 75.6681 43.4681 77.2011 43.7121 78.7261C44.0591 80.8911 43.9231 81.1711 43.0941 80.0001C41.7151 78.0551 41.6921 74.0001 43.0591 74.0001C43.6411 74.0001 43.8221 73.522 43.4611 72.937C42.6671 71.653 45.7701 68.0001 47.6551 68.0001C48.3951 68.0001 49.9001 68.9001 51.0001 70.0001ZM46.6511 70.4681C46.3411 71.2751 46.4241 72.1441 46.8361 72.3991C47.2481 72.6531 47.6501 71.9931 47.7301 70.9311C47.9031 68.6341 47.4321 68.4321 46.6511 70.4681ZM21.0001 72.9501C21.0001 74.1681 18.1141 73.7391 17.6181 72.4471C17.3151 71.6561 17.8281 71.4041 19.0751 71.7301C20.1341 72.0071 21.0001 72.5561 21.0001 72.9501ZM38.0791 73.5831C38.1271 74.7481 38.3641 74.9851 38.6831 74.1881C38.9721 73.4661 38.9361 72.6031 38.6041 72.2711C38.2721 71.9391 38.0361 72.5291 38.0791 73.5831ZM1.00005 75.3931C1.00005 76.7091 1.67505 78.0451 2.50005 78.3621C3.32505 78.6781 4.00005 79.6261 4.00005 80.4691C4.00005 81.3111 4.67505 82.0001 5.50005 82.0001C6.51805 82.0001 7.00005 80.9811 7.00005 78.8331C7.00005 77.0921 6.70305 75.9641 6.34005 76.3271C5.97705 76.6901 5.05105 76.0901 4.28305 74.9941C2.40205 72.3091 1.00005 72.4791 1.00005 75.3931ZM87.0001 75.3831C87.0001 75.5941 86.0991 76.0021 84.9991 76.2901C83.8981 76.5781 83.2491 76.4051 83.5581 75.9071C84.0961 75.0361 87.0001 74.5941 87.0001 75.3831ZM37.1581 78.0001C37.1581 79.3751 37.3851 79.9381 37.6621 79.2501C37.9401 78.5631 37.9401 77.4381 37.6621 76.7501C37.3851 76.0631 37.1581 76.6251 37.1581 78.0001ZM81.5001 77.0001C81.1601 77.5501 80.3461 77.9931 79.6911 77.9851C78.9751 77.9751 79.0991 77.5821 80.0001 77.0001C81.9211 75.7581 82.2671 75.7581 81.5001 77.0001ZM77.5001 78.0001C77.1601 78.5501 76.1211 78.9931 75.1911 78.9851C73.7341 78.9711 73.7071 78.8351 75.0001 78.0001C76.9581 76.7341 78.2821 76.7341 77.5001 78.0001ZM72.5001 79.0001C72.1601 79.5501 71.3461 79.9931 70.6911 79.9851C69.9751 79.9751 70.0991 79.5821 71.0001 79.0001C72.9211 77.7581 73.2671 77.7581 72.5001 79.0001ZM55.2901 81.0011C55.5781 82.1021 55.4051 82.7511 54.9071 82.4421C54.4081 82.1341 54.0001 81.2341 54.0001 80.4411C54.0001 78.3711 54.6791 78.6661 55.2901 81.0011ZM68.0001 80.5001C66.5811 82.2101 61.5041 82.6121 62.5421 80.9321C62.9051 80.3441 63.8171 80.1001 64.5691 80.3881C65.3211 80.6771 66.2021 80.4821 66.5271 79.9561C66.8521 79.4301 67.5971 79.0001 68.1811 79.0001C68.8521 79.0001 68.7851 79.5541 68.0001 80.5001ZM49.8621 82.6671C49.2531 83.4001 48.2481 83.9641 47.6281 83.9211C46.9251 83.8721 46.9741 83.6511 47.7561 83.3361C48.4471 83.0571 48.8041 82.4931 48.5501 82.0811C48.2961 81.6701 48.7361 81.3331 49.5281 81.3331C50.6151 81.3331 50.6971 81.6611 49.8621 82.6671ZM59.5001 82.0001C59.1601 82.5501 58.3461 82.9931 57.6911 82.9851C56.9751 82.9751 57.0991 82.5821 58.0001 82.0001C59.9211 80.7581 60.2671 80.7581 59.5001 82.0001ZM53.0001 84.3781C53.0001 84.5851 52.2121 85.3731 51.2501 86.1281C49.6641 87.3711 49.6291 87.3361 50.8721 85.7501C52.1791 84.0841 53.0001 83.5551 53.0001 84.3781ZM82.729 88.604C82.397 88.936 81.5341 88.9721 80.8131 88.6831C80.0151 88.3641 80.2521 88.1271 81.4171 88.0791C82.4711 88.0361 83.061 88.272 82.729 88.604Z" fill="#C8C0B5"/>
<path fill-rule="evenodd" clip-rule="evenodd" d="M1.015 2.25005C1.024 3.50805 1.355 4.03205 1.765 3.43905C2.169 2.85505 4.075 1.88805 6 1.29105L9.5 0.204053L5.25 0.102053C1.475 0.0110528 1.002 0.251053 1.015 2.25005ZM76.419 5.61905C70.676 9.51705 63.531 11.3371 56.75 10.6301C52.934 10.2321 51 10.3931 51 11.1091C51 11.7021 51.936 12.4321 53.081 12.7311C54.541 13.1131 55.012 13.8481 54.659 15.1951C54.299 16.5731 54.488 16.8441 55.329 16.1571C56.238 15.4141 74.337 12.0001 77.369 12.0001C77.716 12.0001 78 12.7021 78 13.5591C78 14.4161 78.412 14.8641 78.915 14.5531C79.418 14.2421 80.029 14.5531 80.274 15.2441C80.518 15.9351 80.669 13.4661 80.609 9.75805C80.549 6.05005 80.45 3.01205 80.39 3.00805C80.329 3.00405 78.542 4.17905 76.419 5.61905ZM81.079 9.19105C81.036 10.1211 81.45 11.1601 82 11.5001C82.55 11.8401 83.007 13.1041 83.015 14.3091C83.028 16.0561 83.22 16.2011 83.965 15.0231C84.585 14.0421 84.456 13.0341 83.58 12.0231C82.854 11.1851 82.013 9.82505 81.709 9.00005C81.261 7.78205 81.143 7.81705 81.079 9.19105ZM46.624 11.5391C45.659 14.0531 45.943 14.7021 47.122 12.6751C47.706 11.6711 47.973 10.6391 47.715 10.3821C47.458 10.1241 46.966 10.6451 46.624 11.5391ZM25.48 15.3621C26.504 16.1111 28.16 16.5091 29.16 16.2481C31.925 15.5251 30.29 14.0001 26.75 14.0001C23.862 14.0001 23.763 14.1061 25.48 15.3621ZM45 18.5001C45 19.3251 45.177 20.0001 45.393 20.0001C45.609 20.0001 46.045 19.3251 46.362 18.5001C46.678 17.6751 46.501 17.0001 45.969 17.0001C45.436 17.0001 45 17.6751 45 18.5001ZM90.708 19.9901C91.082 21.4211 90.584 22.2181 88.938 22.8271L86.647 23.6751L89.03 24.2981C91.909 25.0501 91.825 25.1231 92.615 21.1771C93.107 18.7141 92.906 18.0001 91.719 18.0001C90.682 18.0001 90.355 18.6431 90.708 19.9901ZM52.5 20.0001C52.84 20.5501 53.316 21.0001 53.559 21.0001C53.802 21.0001 54 20.5501 54 20.0001C54 19.4501 53.523 19.0001 52.941 19.0001C52.359 19.0001 52.16 19.4501 52.5 20.0001ZM83.429 21.6671C83.989 23.5251 83.755 23.7651 81.791 23.3481C79.776 22.9211 79.712 22.9981 81.258 23.9851C82.225 24.6031 83.409 24.8651 83.891 24.5681C84.579 24.1421 84.658 27.8291 84.028 31.0001C83.974 31.2751 83.277 30.3751 82.481 29.0001L81.032 26.5001L81.149 29.5001C81.214 31.1501 80.934 33.2881 80.526 34.2501C80.079 35.3091 80.223 36.0001 80.893 36.0001C81.502 36.0001 82.032 35.2121 82.07 34.2501C82.13 32.7541 82.265 32.7901 83 34.5001C83.717 36.1681 83.871 36.2151 83.93 34.7811C83.971 33.7711 84.552 33.2751 85.34 33.5771C86.077 33.8601 87.257 33.3961 87.962 32.5461C88.969 31.3331 88.977 31.0001 88 31.0001C87.1 31.0001 87.05 30.6441 87.82 29.7161C88.991 28.3051 87.764 25.4101 86.362 26.2761C85.888 26.5691 85.432 25.6811 85.35 24.3041C85.267 22.9261 84.654 21.2821 83.987 20.6501C83.05 19.7611 82.924 19.9921 83.429 21.6671ZM44.531 22.2931C44.103 23.2791 44.034 24.3671 44.376 24.7101C45.392 25.7251 46.211 24.2991 45.743 22.3281C45.329 20.5811 45.275 20.5801 44.531 22.2931ZM12 23.7511C1.456 24.9131 1 25.0641 1 27.4081C1 28.7911 1.889 30.1231 3.25 30.7801L5.5 31.8651L3.216 31.9321C1.06 31.9961 0.942 32.3631 1.111 38.5001C1.21 42.0751 1.675 45.0001 2.145 45.0001C2.615 45.0001 3 44.1001 3 43.0001C3 41.9001 3.626 41.0001 4.392 41.0001C5.971 41.0001 7.416 45.5171 6.376 47.2001C5.932 47.9181 6.153 48.0231 7.003 47.4981C7.98 46.8941 8.171 47.2371 7.751 48.8441C7.269 50.6871 7.609 51.0001 10.094 51.0001C11.692 51.0001 13 51.4001 13 51.8881C13 52.3771 10.863 52.6221 8.25 52.4331C5.638 52.2441 3.177 52.0691 2.781 52.0441C2.386 52.0201 2.304 51.3711 2.6 50.6011C2.895 49.8321 2.768 48.9771 2.318 48.7011C1.868 48.4251 1.399 50.8541 1.276 54.1001C1.093 58.9301 1.342 60.0001 2.648 60.0001C4.018 60.0001 4.053 60.2481 2.89 61.7501C1.599 63.4171 1.633 63.4171 3.596 61.7501C4.73 60.7881 6.41 60.0001 7.329 60.0001C8.248 60.0001 9 59.5271 9 58.9491C9 58.3141 11.18 57.9851 14.5 58.1201C19.732 58.3311 21.472 59.2391 18.75 60.3381C18.063 60.6151 18.625 60.8851 20 60.9361C21.767 61.0031 22.109 61.2791 21.165 61.8771C20.151 62.5201 20.331 62.8531 21.915 63.2681C23.804 63.7621 24.473 62.9971 24.118 60.7501C24.053 60.3371 24.45 60.0001 25 60.0001C25.55 60.0001 26 60.4501 26 61.0001C26 61.5501 28.137 61.9321 30.75 61.8501L35.5 61.7001L31 61.1001C26.335 60.4781 26.468 59.2991 31.183 59.4851C32.658 59.5431 33.633 59.2151 33.348 58.7551C33.064 58.2951 31.952 58.1981 30.877 58.5391C29.157 59.0851 29.007 58.8221 29.628 56.3481C30.016 54.8011 30.333 52.9651 30.333 52.2681C30.333 51.5711 31.383 51.0001 32.667 51.0001C33.95 51.0001 35 51.4501 35 52.0001C35 52.5501 35.675 53.0001 36.5 53.0001C37.325 53.0001 38 53.6751 38 54.5001C38 55.5611 36.903 56.0091 34.25 56.0301C31.573 56.0521 30.936 56.3161 32.022 56.9521C34.064 58.1491 42 55.9871 42 54.2341C42 53.4911 42.391 53.1241 42.87 53.4201C43.348 53.7151 43.754 52.5041 43.772 50.7291C43.97 31.0401 43.843 32.0081 46.25 31.8841C47.943 31.7971 48.067 31.6551 46.75 31.3111C45.677 31.0301 44.954 29.8181 44.882 28.1771C44.764 25.5041 44.762 25.5051 44 28.5001L43.237 31.5001L43.118 28.2101L43 24.9201L34.25 24.9941C29.438 25.0351 23.025 24.7101 20 24.2721C16.975 23.8341 13.375 23.6001 12 23.7511ZM76.638 24.5001C76.288 25.4141 76.637 26.0001 77.531 26.0001C78.339 26.0001 79 25.3251 79 24.5001C79 23.6751 78.598 23.0001 78.107 23.0001C77.616 23.0001 76.955 23.6751 76.638 24.5001ZM93.75 26.7571C91.576 27.2411 91.496 29.3531 93.571 31.4291C95.53 33.3871 96 33.4011 96 31.5001C96 30.6751 95.662 30.0531 95.25 30.1181C93.102 30.4581 92.827 29.8471 94.557 28.5821C96.738 26.9881 96.377 26.1731 93.75 26.7571ZM25 28.0001C23.061 29.2531 22 29.2531 22 28.0001C22 27.4501 23.012 27.0071 24.25 27.0151C26.069 27.0281 26.213 27.2161 25 28.0001ZM20 29.0901C21.119 29.8811 20.568 29.9961 17.828 29.5441C15.711 29.1951 13.886 29.3751 13.519 29.9691C12.655 31.3671 7 31.2851 7 29.8751C7 29.1621 8.083 28.9671 9.961 29.3421C11.59 29.6681 13.191 29.4991 13.52 28.9671C14.311 27.6871 18.116 27.7591 20 29.0901ZM39.125 31.0001C40.706 31.0001 42 31.3371 42.001 31.7501C42.002 32.8621 31.664 31.9861 30.5 30.7761C29.811 30.0591 30.551 29.9321 32.875 30.3681C34.731 30.7151 37.544 31.0001 39.125 31.0001ZM89.6 32.6001C89.244 33.5271 89.178 34.5111 89.453 34.7861C89.728 35.0611 90.244 34.5271 90.6 33.6001C90.956 32.6731 91.022 31.6891 90.747 31.4141C90.472 31.1391 89.956 31.6731 89.6 32.6001ZM74.214 34.8251C74.265 36.6111 74.687 38.3071 75.153 38.5951C76.292 39.2991 76.207 34.8751 75.046 33.0401C74.377 31.9821 74.147 32.4751 74.214 34.8251ZM95.232 37.0001C95.232 38.9251 95.438 39.7121 95.689 38.7501C95.941 37.7881 95.941 36.2121 95.689 35.2501C95.438 34.2881 95.232 35.0751 95.232 37.0001ZM86.618 36.5521C86.277 37.4421 86.445 37.8431 87.011 37.4931C87.555 37.1571 88 37.3761 88 37.9801C88 38.6871 88.496 38.6191 89.389 37.7891C90.396 36.8551 90.465 36.2981 89.639 35.7651C87.935 34.6661 87.276 34.8381 86.618 36.5521ZM56.25 38.0311C53.325 39.2071 53.413 39.5151 56.75 39.7911C58.263 39.9151 59.65 40.4631 59.833 41.0091C60.415 42.7371 62 42.0781 62 40.1071C62 38.6491 59.798 36.6381 58.668 37.0631C58.576 37.0981 57.487 37.5341 56.25 38.0311ZM85 40.0001C85 40.5501 85.477 41.0001 86.059 41.0001C86.641 41.0001 86.84 40.5501 86.5 40.0001C86.16 39.4501 85.684 39.0001 85.441 39.0001C85.198 39.0001 85 39.4501 85 40.0001ZM15.277 42.9521C15.558 44.0261 15.273 45.1151 14.644 45.3731C14.015 45.6311 14.25 45.8781 15.167 45.9211C16.083 45.9641 17.098 45.4381 17.421 44.7501C17.745 44.0631 17.838 44.7731 17.628 46.3291C17.391 48.0911 17.764 49.3561 18.618 49.6841C19.372 49.9731 19.74 50.6121 19.435 51.1051C19.131 51.5971 19.359 52.0001 19.941 52.0001C20.523 52.0001 21.007 51.4381 21.015 50.7501C21.026 49.9141 21.357 49.9971 22.015 51.0001C22.759 52.1331 23.192 52.2031 23.786 51.2881C24.677 49.9121 29 50.6931 29 52.2291C29 52.8331 26.269 53.0711 22.073 52.8341C14.696 52.4171 11 50.4181 11 46.8451C11 45.7851 10.256 44.9661 9.25 44.9211C7.984 44.8641 7.886 44.6891 8.896 44.2891C9.664 43.9851 11.031 44.7151 11.934 45.9121C13.553 48.0591 13.574 48.0411 13.458 44.5441C13.331 40.7321 14.442 39.7601 15.277 42.9521ZM53.079 42.5831C53.127 43.7481 53.364 43.9851 53.683 43.1881C53.972 42.4661 53.936 41.6031 53.604 41.2711C53.272 40.9391 53.036 41.5291 53.079 42.5831ZM40.493 42.5811C39.939 42.8141 39.644 44.9981 39.838 47.4341C40.123 51.0091 40.51 51.7661 41.845 51.3571C43.215 50.9361 43.196 51.0441 41.73 51.9851C39.441 53.4551 35.977 52.3491 36.079 50.1831C36.128 49.1421 36.35 48.9771 36.662 49.7501C36.94 50.4381 37.579 51.0001 38.083 51.0001C39.389 51.0001 39.223 45.2561 37.893 44.4341C36.702 43.6981 38.622 41.9751 40.5 42.0941C41.158 42.1361 41.155 42.3031 40.493 42.5811ZM76 46.8931C76 50.2721 75.546 51.9601 74.532 52.3491C73.725 52.6591 72.798 52.4821 72.473 51.9561C72.148 51.4301 72.61 51.0001 73.5 51.0001C74.39 51.0001 74.839 50.5491 74.498 49.9971C74.086 49.3301 73.229 49.3421 71.939 50.0321C70.604 50.7471 70 50.7481 70 50.0351C70 49.4661 69.325 49.0001 68.5 49.0001C67.675 49.0001 67.007 49.3371 67.015 49.7501C67.051 51.4931 68.665 52.8441 70.515 52.6781C71.9 52.5541 72.411 53.0291 72.206 54.2501C72.045 55.2121 72.409 56.0001 73.015 56.0001C73.622 56.0001 73.859 55.5811 73.543 55.0691C73.226 54.5571 73.425 53.8561 73.984 53.5101C75.108 52.8151 75.335 54.9631 74.395 57.4121C74.063 58.2791 73.388 58.7401 72.895 58.4351C72.403 58.1311 72 58.4071 72 59.0491C72 59.8051 72.911 59.9881 74.584 59.5681C76.017 59.2091 76.922 59.3171 76.616 59.8121C75.874 61.0121 84.314 58.7991 85.184 57.5651C86.028 56.3681 85.163 54.7811 84.044 55.4731C83.595 55.7511 82.634 55.2641 81.91 54.3921C80.72 52.9571 80.525 52.9821 79.867 54.6531C79.455 55.7021 79.11 53.3661 79.07 49.2501C79.015 43.5031 78.689 42.0001 77.5 42.0001C76.371 42.0001 76 43.2101 76 46.8931ZM59.26 44.4851C58.578 45.2601 58.423 46.1441 58.916 46.4481C59.409 46.7531 59.559 47.9721 59.249 49.1571C58.862 50.6341 59.049 51.0871 59.842 50.5971C60.504 50.1891 61 50.4681 61 51.2501C61 52.0021 61.712 53.4911 62.582 54.5591C63.839 56.1021 64.056 56.1561 63.641 54.8231C63.354 53.9011 63.767 52.6081 64.559 51.9511C66.805 50.0871 66.256 48.7181 63.476 49.2491C62.088 49.5151 60.711 49.3421 60.417 48.8661C60.123 48.3901 60.302 48.0001 60.816 48.0001C61.33 48.0001 61.75 46.8751 61.75 45.5001C61.75 42.6911 61.079 42.4181 59.26 44.4851ZM53.5 46.0001C53.84 46.5501 53.641 47.0001 53.059 47.0001C52.477 47.0001 52 47.5051 52 48.1221C52 48.8981 52.464 48.8601 53.5 48.0001C54.703 47.0021 55.329 47.0271 56.661 48.1281C58.181 49.3841 58.203 49.3091 56.92 47.2501C56.149 46.0131 54.926 45.0001 54.2 45.0001C53.475 45.0001 53.16 45.4501 53.5 46.0001ZM54.433 50.7501C54.574 51.7121 55.446 52.6481 56.371 52.8281C58.152 53.1761 58.242 51.0451 56.5 49.7651C54.86 48.5601 54.161 48.8931 54.433 50.7501ZM51.875 51.5001C51.806 51.7751 51.694 52.4131 51.625 52.9171C51.556 53.4211 51.163 54.1711 50.75 54.5831C50.337 54.9961 50 55.7831 50 56.3331C50 56.8831 50.284 57.0491 50.631 56.7021C50.979 56.3551 52.161 56.5511 53.259 57.1381C55.273 58.2171 57.06 56.9241 56.906 54.5001C56.871 53.9501 56.624 54.0371 56.356 54.6941C56.089 55.3501 55.227 55.6411 54.441 55.3391C53.655 55.0371 53.26 54.3881 53.565 53.8951C53.869 53.4031 53.615 53.0001 53 53.0001C52.385 53.0001 52.16 52.5501 52.5 52.0001C52.84 51.4501 52.866 51.0001 52.559 51.0001C52.252 51.0001 51.944 51.2251 51.875 51.5001ZM68.25 53.8201C65.313 54.2371 65.381 56.3651 68.395 58.3391C70.598 59.7831 70.827 59.7701 71.24 58.1881C71.977 55.3701 70.68 53.4741 68.25 53.8201ZM23 55.5001C23 56.3251 22.55 57.0001 22 57.0001C21.45 57.0001 21 56.3251 21 55.5001C21 54.6751 21.45 54.0001 22 54.0001C22.55 54.0001 23 54.6751 23 55.5001ZM28.409 54.8531C28.699 55.3221 28.332 56.5321 27.593 57.5421C26.347 59.2461 26.25 59.1851 26.25 56.6891C26.25 54.0701 27.348 53.1361 28.409 54.8531ZM87.141 56.3581C86.632 56.9861 86.051 58.4001 85.849 59.5001C85.581 60.9671 84.553 61.5861 81.992 61.8211C80.071 61.9981 78.073 62.5611 77.55 63.0711C76.212 64.3791 73.739 64.2321 74.566 62.8931C75.032 62.1381 74.335 61.9661 72.375 62.3511C70.794 62.6611 66.575 63.2041 63 63.5561C59.425 63.9091 56.05 64.5181 55.5 64.9101C54.404 65.6911 53.286 65.6451 51 64.7221C50.175 64.3891 48.6 63.9181 47.5 63.6751C46.393 63.4301 47.084 63.1801 49.05 63.1161C51.002 63.0521 53.14 63.5401 53.8 64.2001C54.664 65.0641 55 65.0811 55 64.2591C55 63.6311 54.55 62.8401 54 62.5001C52.235 61.4091 52.859 59.0181 54.75 59.6261C56.004 60.0291 56.136 59.9271 55.217 59.2651C54.511 58.7571 51.923 58.3771 49.466 58.4201C47.009 58.4641 44.999 58.1631 45 57.7501C45 57.3371 44.114 57.0001 43.031 57.0001C41.692 57.0001 41.247 57.4801 41.638 58.5001C42.05 59.5741 41.544 59.9961 39.857 59.9851C37.968 59.9721 37.798 59.7771 39 59.0001C40.213 58.2161 40.069 58.0281 38.25 58.0151C36.847 58.0061 36 58.6031 36 59.6011C36 60.8981 36.807 61.1041 40.25 60.6891C42.588 60.4081 45.737 59.8601 47.25 59.4721C48.925 59.0431 50 59.1691 50 59.7961C50 60.3611 48.087 61.1411 45.75 61.5281C43.413 61.9151 40.712 62.6461 39.75 63.1511C38.618 63.7461 38 63.7051 38 63.0351C38 62.4661 37.658 62.0001 37.239 62.0001C36.821 62.0001 36.42 63.4461 36.348 65.2121C36.233 68.0181 36.375 68.2081 37.468 66.7121C38.827 64.8541 41.532 64.4351 42.462 65.9391C42.781 66.4551 42.329 67.2761 41.458 67.7641C39.385 68.9241 38.839 77.2621 40.51 82.2501C41.928 86.4851 41.208 87.0241 38.405 83.8281C37.131 82.3761 36.997 81.9031 38 82.4021C38.825 82.8131 38.6 82.4161 37.5 81.5211C35.598 79.9731 35.484 80.0251 35.172 82.5681C34.991 84.0401 35.329 85.7291 35.922 86.3221C36.693 87.0931 37.004 86.9871 37.015 85.9501C37.028 84.7571 37.183 84.7401 37.889 85.8551C38.361 86.6001 40.789 87.3701 43.284 87.5671C47.035 87.8621 48.404 87.4551 51.191 85.2121C53.347 83.4771 54.461 81.7791 54.282 80.5001C54.049 78.8371 54.168 78.8871 54.985 80.7941C55.784 82.6571 56.322 82.8981 57.852 82.0791C58.889 81.5241 60.01 81.3441 60.344 81.6781C60.678 82.0121 61.618 81.7321 62.432 81.0561C63.246 80.3811 64.351 80.0991 64.887 80.4301C65.423 80.7621 66.127 80.6041 66.451 80.0801C66.774 79.5561 67.818 79.1411 68.77 79.1581C69.721 79.1741 71.625 78.8851 73 78.5151C78.016 77.1651 80.587 76.8171 84.797 76.9181C87.16 76.9741 90.076 76.4951 91.276 75.8521C94.17 74.3031 96.44 72.0001 95.071 72.0001C94.477 72.0001 94 70.0981 94 67.7231C94 65.3701 93.299 62.4451 92.443 61.2231C91.587 60.0001 91.144 59.0001 91.458 59.0001C91.772 59.0001 92.901 60.4331 93.967 62.1851C95.584 64.8451 95.876 65.0101 95.739 63.1851C95.648 61.9831 95.22 61.0001 94.787 61.0001C94.354 61.0001 94 60.3251 94 59.5001C94 58.5851 93.068 58.0001 91.608 58.0001C89.863 58.0001 89.039 58.7071 88.56 60.6181C88.198 62.0581 87.687 63.0201 87.423 62.7571C86.25 61.5831 89.078 57.0001 90.975 57.0001C92.089 57.0001 93 56.6631 92.999 56.2501C92.998 55.0281 88.146 55.1171 87.141 56.3581ZM8 58.0001C8 58.5501 7.127 59.0001 6.059 59.0001C4.991 59.0001 3.84 58.5501 3.5 58.0001C3.149 57.4331 3.99 57.0001 5.441 57.0001C6.848 57.0001 8 57.4501 8 58.0001ZM63.462 59.0611C63.143 59.5781 64.334 60.0001 66.108 60.0001C69.576 60.0001 69.602 59.1941 66.156 58.5301C64.993 58.3061 63.781 58.5451 63.462 59.0611ZM15 62.0591C15 62.6411 14.48 62.7971 13.845 62.4051C13.167 61.9851 12.961 62.1281 13.346 62.7521C13.707 63.3351 14.896 63.5781 15.99 63.2921C17.083 63.0071 17.731 62.3741 17.43 61.8861C16.669 60.6561 15 60.7741 15 62.0591ZM84.793 68.4191C84.67 73.0991 84.323 73.9871 82.251 74.9321C80.93 75.5331 79.414 75.7561 78.881 75.4271C78.348 75.0971 77.37 75.2551 76.706 75.7781C76.043 76.3001 74.825 76.7961 74 76.8801C73.175 76.9641 71.3 77.1381 69.833 77.2671C68.366 77.3951 66.829 77.8381 66.416 78.2501C65.113 79.5541 63.762 79.0611 64.362 77.5001C64.78 76.4091 64.244 76.0001 62.395 76.0001C60.529 76.0001 59.941 75.5431 60.185 74.2791C60.44 72.9531 61.469 72.5891 64.664 72.6911C68.043 72.8001 68.91 72.451 69.339 70.812C69.628 69.705 70.346 69.0961 70.933 69.4581C71.52 69.8211 72 69.6411 72 69.0591C72 68.4771 72.705 68.0001 73.567 68.0001C74.68 68.0001 74.95 68.5811 74.5 70.0001C74.065 71.3691 74.32 72.0001 75.308 72.0001C76.125 72.0001 77.022 70.6381 77.378 68.8581C78.055 65.4771 80.454 63.0831 83.218 63.0321C84.652 63.0051 84.912 63.8971 84.793 68.4191ZM18.269 64.6931C19.242 64.9471 20.592 64.9301 21.269 64.6561C21.946 64.3821 21.15 64.1751 19.5 64.1951C17.85 64.2151 17.296 64.4391 18.269 64.6931ZM90.395 65.1701C89.909 65.9571 90.217 66.131 91.336 65.701C92.684 65.184 93 65.699 93 68.409C93 70.2491 92.315 72.3241 91.477 73.0191C90.204 74.0761 90.057 74.0141 90.584 72.6411C91.007 71.5391 90.686 71.0001 89.607 71.0001C88.509 71.0001 88 70.1021 88 68.1671C88 65.2501 88.668 64.0001 90.226 64.0001C90.716 64.0001 90.793 64.5261 90.395 65.1701ZM22.484 66.0271C22.135 66.5911 21.321 66.9881 20.675 66.9081C20.029 66.8281 15.338 66.8161 10.25 66.8821C2.257 66.9841 1 67.2311 1 68.7001C1 70.0221 1.267 70.1331 2.2 69.2001C3.684 67.7161 5 67.6501 5 69.0591C5 69.6411 4.592 69.8661 4.093 69.5581C3.595 69.2491 3.414 69.8671 3.692 70.9291C4.008 72.1381 4.753 72.6481 5.682 72.2921C6.9 71.8241 6.928 71.5511 5.834 70.7741C4.878 70.0951 5.127 69.9641 6.713 70.3101C7.933 70.5761 9.447 70.1661 10.086 69.3971C10.723 68.6291 12.202 68.0451 13.372 68.1001C15.25 68.1881 15.206 68.2811 13 68.8911C11.36 69.3441 10.379 70.4281 10.149 72.0411C9.956 73.3931 9.328 74.7921 8.753 75.1491C8.179 75.5061 8.023 76.6181 8.408 77.6211C9.002 79.1681 9.248 79.2221 10.038 77.9721C10.55 77.1621 10.976 75.3051 10.985 73.8441C10.997 71.6831 11.373 71.2851 13 71.7101C14.1 71.9981 14.964 72.9681 14.921 73.8671C14.871 74.9031 14.658 75.0431 14.338 74.2501C14.06 73.5631 13.421 73.0001 12.917 73.0001C11.527 73.0001 11.82 76.7691 13.25 77.2801C13.938 77.5251 14.138 78.1121 13.696 78.5841C13.253 79.0561 12.528 78.8551 12.085 78.1371C11.577 77.3161 11.32 77.9701 11.389 79.9021C11.483 82.4901 11.814 82.8741 13.5 82.3551C14.6 82.0151 15.86 81.1221 16.3 80.3691C16.74 79.6161 17.554 79.0001 18.109 79.0001C18.664 79.0001 18.843 79.4451 18.507 79.9891C18.155 80.5591 18.564 80.7211 19.474 80.3721C20.779 79.8711 20.831 79.4851 19.776 78.1331C18.639 76.6781 18.691 76.6501 20.25 77.8721C21.753 79.0511 22 79.0281 22 77.7061C22 76.8591 21.539 75.9381 20.975 75.6581C20.411 75.3791 20.524 75.2781 21.225 75.4341C21.991 75.6041 22.402 76.9491 22.254 78.8021C22.119 80.4991 22.456 82.1641 23.004 82.5021C23.552 82.8411 24.045 82.5291 24.1 81.8091C24.155 81.0891 24.56 81.6251 25 83.0001C25.765 85.3871 25.805 85.3561 25.9 82.3091C25.955 80.5541 25.524 78.8241 24.941 78.4641C24.321 78.0801 24.158 76.5591 24.547 74.7861C25.042 72.5331 24.878 71.8741 23.904 72.1991C22.523 72.6591 19 70.1501 19 68.7061C19 68.2391 19.65 68.5071 20.444 69.3011C21.286 70.1431 22.956 70.5401 24.453 70.2541C26.503 69.8621 26.985 70.1391 26.851 71.6321C26.517 75.3531 27.02 78.1061 27.931 77.5431C28.443 77.2261 29.163 77.4541 29.53 78.0491C29.973 78.7651 30.88 78.5161 32.214 77.3151C34.211 75.5171 34.198 75.4951 30.944 75.0001C27.087 74.4131 25.908 72.5001 29.405 72.5001C30.727 72.5001 31.6 72.8381 31.345 73.2501C31.091 73.6621 31.359 74.0001 31.941 74.0001C32.523 74.0001 33.029 73.2131 33.063 72.2501C33.112 70.9091 33.338 71.0261 34.031 72.7501C34.529 73.9871 35.448 75.0001 36.075 75.0001C36.703 75.0001 36.942 74.2901 36.607 73.4181C36.273 72.5481 36 71.4231 36 70.9181C36 70.4131 34.425 70.0001 32.5 70.0001C30.459 70.0001 29 70.4971 29 71.1911C29 71.8461 28.375 71.5281 27.611 70.4831C26.847 69.4381 26.474 67.9291 26.781 67.1281C27.141 66.1911 26.923 65.9301 26.17 66.3951C25.526 66.7931 25 66.6411 25 66.0591C25 64.7051 23.314 64.6831 22.484 66.0271ZM56 68.0001C56 68.5501 55.523 69.0001 54.941 69.0001C54.359 69.0001 54.16 68.5501 54.5 68.0001C54.84 67.4501 55.316 67.0001 55.559 67.0001C55.802 67.0001 56 67.4501 56 68.0001ZM57.386 72.1511C56.917 75.6841 57.036 77.0961 57.763 76.6461C58.392 76.2581 58.688 76.7051 58.489 77.7451C58.304 78.7101 58.105 79.9501 58.046 80.5001C57.987 81.0501 57.434 80.6291 56.816 79.5651C55.537 77.3601 55.116 70.9981 56.25 70.9991C56.663 71.0001 57 70.1001 57 69.0001C57 67.9001 57.24 67.0001 57.534 67.0001C57.828 67.0001 57.761 69.3181 57.386 72.1511ZM51 70.0001C53.54 72.5401 53.544 76.5951 51.011 80.7501C48.619 84.6731 47.677 84.7681 44.336 81.4271C42.216 79.3071 41.864 78.2261 42.338 75.3031C42.96 71.4731 45.488 68.0001 47.655 68.0001C48.395 68.0001 49.9 68.9001 51 70.0001ZM21 72.9501C21 74.1681 18.114 73.7391 17.618 72.4471C17.315 71.6561 17.828 71.4041 19.075 71.7301C20.134 72.0071 21 72.5561 21 72.9501ZM38.079 73.5831C38.127 74.7481 38.364 74.9851 38.683 74.1881C38.972 73.4661 38.936 72.6031 38.604 72.2711C38.272 71.9391 38.036 72.5291 38.079 73.5831ZM1 75.3391C1 76.9191 1.89 78.0841 3.738 78.9271L6.477 80.1741L3.988 81.6561C2.62 82.4711 2.324 82.8821 3.332 82.5691C4.339 82.2561 5.577 82.0001 6.082 82.0001C6.587 82.0001 7 80.5751 7 78.8331C7 77.0921 6.703 75.9641 6.34 76.3271C5.977 76.6901 5.051 76.0901 4.283 74.9941C2.414 72.3251 1 72.4741 1 75.3391ZM50.03 74.8161C50.014 76.0891 49.534 78.0021 48.965 79.0661C48.244 80.4131 48.252 81.0001 48.99 81.0001C50.686 81.0001 52.157 76.0921 51.036 74.1711C50.2 72.7391 50.056 72.8321 50.03 74.8161ZM46 76.0001C46 77.1001 46.408 78.0001 46.906 78.0001C47.405 78.0001 47.577 77.1001 47.29 76.0001C47.002 74.9001 46.594 74.0001 46.383 74.0001C46.173 74.0001 46 74.9001 46 76.0001ZM43.543 75.9311C43.226 76.4431 43.35 77.0981 43.817 77.3871C44.284 77.6761 44.667 77.2571 44.667 76.4561C44.667 74.7701 44.351 74.6231 43.543 75.9311ZM86.729 75.604C86.397 75.936 85.534 75.9721 84.813 75.6831C84.015 75.3641 84.252 75.1271 85.417 75.0791C86.471 75.0361 87.061 75.272 86.729 75.604ZM37.158 78.0001C37.158 79.3751 37.385 79.9381 37.662 79.2501C37.94 78.5631 37.94 77.4381 37.662 76.7501C37.385 76.0631 37.158 76.6251 37.158 78.0001ZM27 81.0881C27 82.4611 27.705 83.0001 29.5 83.0001C31.056 83.0001 32 82.4331 32 81.5001C32 80.6751 31.663 79.966 31.25 79.923C30.837 79.881 29.712 79.6961 28.75 79.5121C27.577 79.2871 27 79.8071 27 81.0881ZM27.813 85.6831C28.534 85.9721 29.397 85.936 29.729 85.604C30.061 85.272 29.471 85.0361 28.417 85.0791C27.252 85.1271 27.015 85.3641 27.813 85.6831ZM32.667 86.6671C31.422 87.9111 31.993 88.8761 33.89 88.7331C34.994 88.6501 35.574 88.0521 35.283 87.2951C34.739 85.8771 33.705 85.6291 32.667 86.6671Z" fill="#64625E"/>
<path fill-rule="evenodd" clip-rule="evenodd" d="M1.01479 2.25005C1.02379 3.50805 1.35479 4.03205 1.76479 3.43905C2.16879 2.85505 4.07479 1.88805 5.99979 1.29105L9.49979 0.204053L5.24979 0.102053C1.47479 0.0110528 1.00179 0.251053 1.01479 2.25005ZM76.4998 6.00305C71.4478 9.34605 63.1588 11.2861 56.7498 10.6241C52.9378 10.2311 50.9998 10.3941 50.9998 11.1091C50.9998 11.7021 51.8998 12.4231 52.9998 12.7101C54.0998 12.9981 54.9998 13.7861 54.9998 14.4621C54.9998 15.4341 56.4148 15.4331 61.7498 14.4561C76.2638 11.8001 77.9998 11.7131 77.9998 13.6391C77.9998 14.8801 78.3128 15.0871 79.0598 14.3401C79.6438 13.7561 79.9808 11.1951 79.8098 8.64805L79.4998 4.01805L76.4998 6.00305ZM25.4798 15.3621C26.5038 16.1111 28.1598 16.5091 29.1598 16.2481C31.9248 15.5251 30.2898 14.0001 26.7498 14.0001C23.8618 14.0001 23.7628 14.1061 25.4798 15.3621ZM11.9998 23.7511C1.31479 24.9281 0.999788 25.0371 0.999788 27.5611C0.999788 30.4421 0.663788 30.4191 14.4738 28.4811C24.1308 27.1251 27.2248 27.1081 25.9148 28.4181C25.6848 28.6481 21.6718 29.3321 16.9978 29.9371C-0.632212 32.2191 0.999788 31.4881 0.999788 37.1071C0.999788 41.7871 1.11979 42.0081 3.35579 41.4471C4.83379 41.0761 6.29879 41.4421 7.28479 42.4281C9.23279 44.3761 9.75779 44.3851 11.6428 42.5001C13.5608 40.5821 14.4688 40.6121 16.5148 42.6581C17.5058 43.6491 17.9868 45.2891 17.7098 46.7371C17.4268 48.2181 17.7788 49.3621 18.6178 49.6841C19.3718 49.9731 19.7398 50.6121 19.4348 51.1051C19.1308 51.5971 19.3588 52.0001 19.9408 52.0001C20.5228 52.0001 21.0068 51.4381 21.0148 50.7501C21.0258 49.9141 21.3568 49.9971 22.0148 51.0001C22.7958 52.1891 23.1718 52.2341 23.8278 51.2191C24.3988 50.3361 25.3818 50.2061 26.9868 50.8001C28.2688 51.2741 30.3718 51.4601 31.6588 51.2141C33.6688 50.8301 33.9998 50.1761 33.9998 46.5831C33.9998 42.4691 34.0578 42.4001 37.4998 42.4001C41.1418 42.4001 41.2928 42.6751 41.2668 49.2501C41.2638 50.2121 41.6518 51.0001 42.1298 51.0001C42.6088 51.0001 42.9998 45.1321 42.9998 37.9601V24.9201L34.2498 24.9941C29.4378 25.0351 23.0248 24.7101 19.9998 24.2721C16.9748 23.8341 13.3748 23.6001 11.9998 23.7511ZM76.6378 24.5001C76.2878 25.4141 76.6368 26.0001 77.5308 26.0001C78.3388 26.0001 78.9998 25.3251 78.9998 24.5001C78.9998 23.6751 78.5978 23.0001 78.1068 23.0001C77.6158 23.0001 76.9548 23.6751 76.6378 24.5001ZM39.1248 31.0001C40.7058 31.0001 41.9998 31.3371 42.0008 31.7501C42.0018 32.8621 31.6638 31.9861 30.4998 30.7761C29.8108 30.0591 30.5508 29.9321 32.8748 30.3681C34.7308 30.7151 37.5438 31.0001 39.1248 31.0001ZM75.9998 47.0001C75.9998 49.7501 75.5918 52.0001 75.0938 52.0001C74.5948 52.0001 74.4108 52.8541 74.6838 53.8981C74.9558 54.9421 74.7208 56.6531 74.1598 57.7021C73.2488 59.4031 73.5188 59.6181 76.6758 59.7081C80.0928 59.8051 80.1908 59.7071 79.6058 56.7791C79.2728 55.1131 78.9998 51.1061 78.9998 47.8751C78.9998 43.3191 78.6628 42.0001 77.4998 42.0001C76.3668 42.0001 75.9998 43.2221 75.9998 47.0001ZM35.9998 46.4181C35.9998 48.5871 37.1098 51.0001 38.1068 51.0001C38.5978 51.0001 38.9998 49.6501 38.9998 48.0001C38.9998 46.0001 38.4998 45.0001 37.4998 45.0001C36.6748 45.0001 35.9998 45.6381 35.9998 46.4181ZM61.9998 49.8931C61.9998 51.0171 64.6008 52.0661 65.4018 51.2641C66.6058 50.0611 65.9488 49.0001 63.9998 49.0001C62.8998 49.0001 61.9998 49.4021 61.9998 49.8931ZM67.3928 50.5821C67.7268 51.4521 67.9998 52.3521 67.9998 52.5821C67.9998 52.8121 68.4498 53.0001 68.9998 53.0001C69.5498 53.0001 69.9998 52.1001 69.9998 51.0001C69.9998 49.8301 69.3328 49.0001 68.3928 49.0001C67.3378 49.0001 66.9948 49.5441 67.3928 50.5821ZM39.7498 52.6891C37.3368 53.3201 37.5388 56.0001 39.9998 56.0001C41.3328 56.0001 41.9998 55.3331 41.9998 54.0001C41.9998 52.9001 41.8878 52.0521 41.7498 52.1161C41.6118 52.1801 40.7118 52.4381 39.7498 52.6891ZM1.17279 56.5001C0.992788 59.1721 1.32479 60.0001 2.57579 60.0001C3.62079 60.0001 4.00579 59.4571 3.63779 58.5001C3.22279 57.4161 3.74779 57.0001 5.53079 57.0001C6.88879 57.0001 8.00379 57.3371 8.00879 57.7501C8.01479 58.1631 12.0648 58.5871 17.0088 58.6941L25.9998 58.8871V56.3601C25.9998 54.7721 26.4638 53.9961 27.2498 54.2701C27.9378 54.5111 28.3568 55.4931 28.1828 56.4541C27.9948 57.4901 28.2998 57.9321 28.9328 57.5411C29.5198 57.1791 29.9998 56.0091 29.9998 54.9411C29.9998 53.1101 29.1878 53.0001 15.7038 53.0001H1.40879L1.17279 56.5001ZM22.9998 55.5001C22.9998 56.3251 22.5498 57.0001 21.9998 57.0001C21.4498 57.0001 20.9998 56.3251 20.9998 55.5001C20.9998 54.6751 21.4498 54.0001 21.9998 54.0001C22.5498 54.0001 22.9998 54.6751 22.9998 55.5001ZM50.6668 54.6671C49.6158 55.7171 49.8848 56.6621 51.2498 56.7141C51.9378 56.7401 53.2878 57.0891 54.2498 57.4881C56.6618 58.4891 56.4998 56.3381 54.0658 55.0351C51.7878 53.8161 51.5438 53.7891 50.6668 54.6671ZM62.4998 55.0001C62.8398 55.5501 63.3158 56.0001 63.5588 56.0001C63.8018 56.0001 63.9998 55.5501 63.9998 55.0001C63.9998 54.4501 63.5228 54.0001 62.9408 54.0001C62.3588 54.0001 62.1598 54.4501 62.4998 55.0001ZM65.9998 55.3851C65.9998 56.1471 67.0778 57.4761 68.3948 58.3391C70.5948 59.7811 70.8268 59.7701 71.2328 58.2041C71.4758 57.2671 71.4848 55.9381 71.2538 55.2501C70.6738 53.5281 65.9998 53.6481 65.9998 55.3851ZM90.6648 59.0001C91.8548 59.4801 93.3518 60.6891 93.9898 61.6861C95.1068 63.4311 95.1288 63.4301 94.5758 61.6681C94.2588 60.6611 93.9998 59.4231 93.9998 58.9181C93.9998 58.4131 92.7628 58.0291 91.2498 58.0631C88.6828 58.1231 88.6438 58.1851 90.6648 59.0001ZM52.9638 65.8361C53.6228 67.1201 54.4358 67.897 54.7708 67.562C55.1068 67.227 54.5678 66.1761 53.5738 65.2261C51.8458 63.5761 51.8188 63.6031 52.9638 65.8361ZM19.9998 70.9061C17.5568 71.5971 17.5498 71.6261 19.6848 72.1961C21.0648 72.5641 22.0668 72.2671 22.4038 71.3891C22.6968 70.6251 22.8388 70.0451 22.7188 70.1001C22.5978 70.1551 21.3748 70.5171 19.9998 70.9061ZM31.4998 73.0001C31.1598 73.5501 31.3588 74.0001 31.9408 74.0001C32.5228 74.0001 32.9998 73.5501 32.9998 73.0001C32.9998 72.4501 32.8018 72.0001 32.5588 72.0001C32.3158 72.0001 31.8398 72.4501 31.4998 73.0001ZM14.9998 74.0111C14.9998 74.5551 15.6748 75.0001 16.4998 75.0001C19.0418 75.0001 18.1558 77.9231 15.4048 78.6131C13.5248 79.0851 13.1758 79.4911 14.1398 80.0861C14.9808 80.6071 16.2608 80.1641 17.6288 78.8791C18.8848 77.6991 20.0448 77.2641 20.4008 77.8391C20.7368 78.3841 20.6718 79.0191 20.2558 79.2511C19.8398 79.4831 20.0178 79.5521 20.6508 79.4051C21.2848 79.2591 22.0538 80.1001 22.3618 81.2761C22.6688 82.4511 23.2128 83.1211 23.5698 82.7641C24.3408 81.9931 21.8478 76.0001 20.7558 76.0001C20.3398 76.0001 19.9998 75.4231 19.9998 74.7181C19.9998 74.0131 18.8748 73.343 17.4998 73.229C16.1248 73.116 14.9998 73.4671 14.9998 74.0111ZM50.0298 74.8161C50.0138 76.0891 49.5338 78.0021 48.9648 79.0661C48.2438 80.4131 48.2518 81.0001 48.9898 81.0001C50.6858 81.0001 52.1568 76.0921 51.0358 74.1711C50.1998 72.7391 50.0558 72.8321 50.0298 74.8161ZM70.5438 77.5581C64.5188 78.8701 59.0178 80.1631 58.3208 80.4301C57.6228 80.6981 56.6538 80.2041 56.1668 79.3341C55.4338 78.0241 55.2008 78.1671 54.8198 80.1621L54.3588 82.5731L68.3228 79.3221C76.0038 77.5341 82.7848 75.8651 83.3938 75.6141C85.9918 74.5421 80.7488 75.3351 70.5438 77.5581ZM7.99979 77.0001C7.99979 77.5501 8.42279 78.0001 8.94079 78.0001C9.45879 78.0001 10.1598 77.5501 10.4998 77.0001C10.8398 76.4501 10.4158 76.0001 9.55879 76.0001C8.70179 76.0001 7.99979 76.4501 7.99979 77.0001ZM32.8128 87.6831C33.5338 87.9721 34.3968 87.936 34.7288 87.604C35.0608 87.272 34.4708 87.0361 33.4168 87.0791C32.2518 87.1271 32.0148 87.3641 32.8128 87.6831Z" fill="#F5F5F5"/>
<path fill-rule="evenodd" clip-rule="evenodd" d="M76.4999 6.00307C71.4479 9.34607 63.1589 11.2861 56.7499 10.6241C52.9379 10.2311 50.9999 10.3941 50.9999 11.1091C50.9999 11.7021 51.8999 12.4231 52.9999 12.7101C54.0999 12.9981 54.9999 13.7861 54.9999 14.4621C54.9999 15.4341 56.4149 15.4331 61.7499 14.4561C76.2639 11.8001 77.9999 11.7131 77.9999 13.6391C77.9999 14.8801 78.3129 15.0871 79.0599 14.3401C79.6439 13.7561 79.9809 11.1951 79.8099 8.64807L79.4999 4.01807L76.4999 6.00307ZM76.6379 24.5001C76.2879 25.4141 76.6369 26.0001 77.5309 26.0001C78.3389 26.0001 78.9999 25.3251 78.9999 24.5001C78.9999 23.6751 78.5979 23.0001 78.1069 23.0001C77.6159 23.0001 76.9549 23.6751 76.6379 24.5001ZM75.9999 47.0001C75.9999 49.7501 75.5919 52.0001 75.0939 52.0001C74.5949 52.0001 74.4109 52.8541 74.6839 53.8981C74.9559 54.9421 74.7209 56.6531 74.1599 57.7021C73.2489 59.4031 73.5189 59.6181 76.6759 59.7081C80.0929 59.8051 80.1909 59.7071 79.6059 56.7791C79.2729 55.1131 78.9999 51.1061 78.9999 47.8751C78.9999 43.3191 78.6629 42.0001 77.4999 42.0001C76.3669 42.0001 75.9999 43.2221 75.9999 47.0001ZM61.9999 49.8931C61.9999 51.0171 64.6009 52.0661 65.4019 51.2641C66.6059 50.0611 65.9489 49.0001 63.9999 49.0001C62.8999 49.0001 61.9999 49.4021 61.9999 49.8931ZM67.3929 50.5821C67.7269 51.4521 67.9999 52.3521 67.9999 52.5821C67.9999 52.8121 68.4499 53.0001 68.9999 53.0001C69.5499 53.0001 69.9999 52.1001 69.9999 51.0001C69.9999 49.8301 69.3329 49.0001 68.3929 49.0001C67.3379 49.0001 66.9949 49.5441 67.3929 50.5821ZM1.1729 56.5001C0.992896 59.1721 1.3249 60.0001 2.5759 60.0001C3.6209 60.0001 4.0059 59.4571 3.6379 58.5001C3.2229 57.4161 3.7479 57.0001 5.5309 57.0001C6.8889 57.0001 8.0039 57.3371 8.0089 57.7501C8.0149 58.1631 12.0649 58.5871 17.0089 58.6941L25.9999 58.8871V56.3601C25.9999 54.7721 26.4639 53.9961 27.2499 54.2701C27.9379 54.5111 28.3569 55.4931 28.1829 56.4541C27.9949 57.4901 28.2999 57.9321 28.9329 57.5411C29.5199 57.1791 29.9999 56.0091 29.9999 54.9411C29.9999 53.1101 29.1879 53.0001 15.7039 53.0001H1.4089L1.1729 56.5001ZM22.9999 55.5001C22.9999 56.3251 22.5499 57.0001 21.9999 57.0001C21.4499 57.0001 20.9999 56.3251 20.9999 55.5001C20.9999 54.6751 21.4499 54.0001 21.9999 54.0001C22.5499 54.0001 22.9999 54.6751 22.9999 55.5001ZM50.6669 54.6671C49.6159 55.7171 49.8849 56.6621 51.2499 56.7141C51.9379 56.7401 53.2879 57.0891 54.2499 57.4881C56.6619 58.4891 56.4999 56.3381 54.0659 55.0351C51.7879 53.8161 51.5439 53.7891 50.6669 54.6671ZM62.4999 55.0001C62.8399 55.5501 63.3159 56.0001 63.5589 56.0001C63.8019 56.0001 63.9999 55.5501 63.9999 55.0001C63.9999 54.4501 63.5229 54.0001 62.9409 54.0001C62.3589 54.0001 62.1599 54.4501 62.4999 55.0001ZM65.9999 55.3851C65.9999 56.1471 67.0779 57.4761 68.3949 58.3391C70.5949 59.7811 70.8269 59.7701 71.2329 58.2041C71.4759 57.2671 71.4849 55.9381 71.2539 55.2501C70.6739 53.5281 65.9999 53.6481 65.9999 55.3851ZM90.6649 59.0001C91.8549 59.4801 93.3519 60.6891 93.9899 61.6861C95.1069 63.4311 95.1289 63.4301 94.5759 61.6681C94.2589 60.6611 93.9999 59.4231 93.9999 58.9181C93.9999 58.4131 92.7629 58.0291 91.2499 58.0631C88.6829 58.1231 88.6439 58.1851 90.6649 59.0001ZM52.9639 65.8361C53.6229 67.1201 54.4359 67.8971 54.7709 67.5621C55.1069 67.2271 54.5679 66.1761 53.5739 65.2261C51.8459 63.5761 51.8189 63.6031 52.9639 65.8361ZM19.9999 70.9061C17.5569 71.5971 17.5499 71.6261 19.6849 72.1961C21.0649 72.5641 22.0669 72.2671 22.4039 71.3891C22.6969 70.6251 22.8389 70.0451 22.7189 70.1001C22.5979 70.1551 21.3749 70.5171 19.9999 70.9061ZM14.9999 74.0111C14.9999 74.5551 15.6749 75.0001 16.4999 75.0001C19.0419 75.0001 18.1559 77.9231 15.4049 78.6131C13.5249 79.0851 13.1759 79.4911 14.1399 80.0861C14.9809 80.6071 16.2609 80.1641 17.6289 78.8791C18.8849 77.6991 20.0449 77.2641 20.4009 77.8391C20.7369 78.3841 20.6719 79.0191 20.2559 79.2511C19.8399 79.4831 20.0179 79.5521 20.6509 79.4051C21.2849 79.2591 22.0539 80.1001 22.3619 81.2761C22.6689 82.4511 23.2129 83.1211 23.5699 82.7641C24.3409 81.9931 21.8479 76.0001 20.7559 76.0001C20.3399 76.0001 19.9999 75.4231 19.9999 74.7181C19.9999 74.0131 18.8749 73.3431 17.4999 73.2291C16.1249 73.1161 14.9999 73.4671 14.9999 74.0111ZM70.5439 77.5581C64.5189 78.8701 59.0179 80.1631 58.3209 80.4301C57.6229 80.6981 56.6539 80.2041 56.1669 79.3341C55.4339 78.0241 55.2009 78.1671 54.8199 80.1621L54.3589 82.5731L68.3229 79.3221C76.0039 77.5341 82.7849 75.8651 83.3939 75.6141C85.9919 74.5421 80.7489 75.3351 70.5439 77.5581ZM7.9999 77.0001C7.9999 77.5501 8.4229 78.0001 8.9409 78.0001C9.4589 78.0001 10.1599 77.5501 10.4999 77.0001C10.8399 76.4501 10.4159 76.0001 9.5589 76.0001C8.7019 76.0001 7.9999 76.4501 7.9999 77.0001ZM32.8129 87.6831C33.5339 87.9721 34.3969 87.9361 34.7289 87.6041C35.0609 87.2721 34.4709 87.0361 33.4169 87.0791C32.2519 87.1271 32.0149 87.3641 32.8129 87.6831Z" fill="#030303"/>
</svg>
