<svg width="94" height="93" viewBox="0 0 94 93" fill="none" xmlns="http://www.w3.org/2000/svg">
<path fill-rule="evenodd" clip-rule="evenodd" d="M1 46.5V93H47H93V46.5V0H47H1V46.5Z" fill="#D0E1F1"/>
<path fill-rule="evenodd" clip-rule="evenodd" d="M10.25 13.107L1 18.146V55.573V93H47H93V65.168V37.336L89.75 36.239C87.963 35.636 79.975 32.597 72 29.486C64.025 26.375 49.456 20.952 39.624 17.434C29.793 13.917 21.243 10.37 20.624 9.55301C19.663 8.28301 18.157 8.79901 10.25 13.107Z" fill="#4666B1"/>
<path fill-rule="evenodd" clip-rule="evenodd" d="M11.9699 12.199C7.86094 14.456 4.22494 16.724 3.88794 17.237C3.55194 17.751 2.87694 18.02 2.38794 17.835C1.88294 17.645 1.37894 33.795 1.21994 55.25L0.939941 93H46.9869H93.0339L92.7669 67.25C92.5079 42.289 92.4389 41.497 90.4999 41.414C89.3999 41.366 87.7129 41.029 86.7499 40.664C80.6689 38.358 80.3129 38.262 74.4999 37.381C72.2999 37.047 69.6829 36.344 68.6849 35.817C66.6909 34.766 64.5349 34.244 58.4999 33.355C56.2999 33.03 54.2389 32.352 53.9199 31.849C53.6009 31.345 52.5149 31.249 51.5059 31.636C50.1379 32.161 49.8809 32.002 50.4919 31.012C51.1079 30.017 50.7739 29.826 49.1559 30.249C47.9699 30.559 46.9999 30.461 46.9999 30.031C46.9999 29.601 44.3269 28.657 41.0599 27.932C37.7759 27.203 35.3869 26.183 35.7169 25.65C36.2649 24.762 35.6089 24.841 30.9999 26.223C30.1749 26.47 29.8369 26.483 30.2499 26.253C30.6619 26.022 30.9999 25.421 30.9999 24.917C30.9999 23.423 27.2699 23.873 25.5709 25.571C24.1429 27 23.9999 26.693 23.9999 22.194C23.9999 19.015 23.4639 16.8 22.4999 16C21.6749 15.315 20.9999 14.065 20.9999 13.223C20.9999 11.905 21.2629 11.928 22.8759 13.388C24.5369 14.891 24.8209 14.909 25.3449 13.543C25.7089 12.596 25.3849 12 24.5079 12C23.7209 12 22.2589 11.121 21.2589 10.047C19.4619 8.11902 19.3459 8.14602 11.9699 12.199ZM76.9999 32C77.8249 32.533 78.9499 32.969 79.4999 32.969C80.0499 32.969 79.8249 32.533 78.9999 32C78.1749 31.467 77.0499 31.031 76.4999 31.031C75.9499 31.031 76.1749 31.467 76.9999 32ZM82.9999 34.5C84.3749 35.286 85.9499 35.929 86.4999 35.929C87.0499 35.929 86.3749 35.286 84.9999 34.5C83.6249 33.714 82.0499 33.071 81.4999 33.071C80.9499 33.071 81.6249 33.714 82.9999 34.5ZM23.6829 50.188C23.3639 50.985 23.1269 50.748 23.0789 49.583C23.0359 48.529 23.2719 47.939 23.6039 48.271C23.9359 48.603 23.9719 49.466 23.6829 50.188ZM86.7289 57.604C86.3969 57.936 85.5339 57.972 84.8129 57.683C84.0149 57.364 84.2519 57.127 85.4169 57.079C86.4709 57.036 87.0609 57.272 86.7289 57.604ZM24.4999 61C24.8399 61.55 24.6409 62 24.0589 62C23.4769 62 22.9999 61.55 22.9999 61C22.9999 60.45 23.1979 60 23.4409 60C23.6839 60 24.1599 60.45 24.4999 61ZM66.9999 74C66.9999 74.55 66.5229 75 65.9409 75C65.3589 75 65.1599 74.55 65.4999 74C65.8399 73.45 66.3159 73 66.5589 73C66.8019 73 66.9999 73.45 66.9999 74Z" fill="#4B5265"/>
<path fill-rule="evenodd" clip-rule="evenodd" d="M19.632 9.62796C19.911 10.657 21.19 12.276 22.473 13.224C24.474 14.702 24.887 14.737 25.372 13.474C25.707 12.599 25.356 12 24.508 12C23.721 12 22.188 11.045 21.101 9.87796C19.328 7.97496 19.176 7.94896 19.632 9.62796ZM15.872 11.339C17.388 13.173 16.05 13.65 14.3 11.9C13.5 11.1 12.65 11.35 11.183 12.817C10.074 13.926 8.832 14.533 8.423 14.167C8.014 13.8 7.991 14.043 8.372 14.706C8.752 15.37 9.725 15.659 10.532 15.349C11.349 15.036 12 15.351 12 16.06C12 16.76 12.289 17.044 12.643 16.691C12.996 16.337 12.7 15.344 11.985 14.482C10.845 13.109 11.043 12.979 13.593 13.425C17.729 14.15 19.508 12.797 16.71 11.055C14.691 9.79796 14.619 9.82196 15.872 11.339ZM20.001 15.5C19.915 17.15 19.647 23.675 19.407 30C19.167 36.325 18.754 42.094 18.49 42.82C18.225 43.546 16.994 43.996 15.754 43.82C13.78 43.54 13.428 42.755 12.918 37.5C12.441 32.58 12.306 32.243 12.168 35.625C12.076 37.894 11.717 41.163 11.372 42.891C10.798 45.762 10.629 45.88 9.404 44.266C8.667 43.295 8.014 40.475 7.953 38C7.826 32.844 7.468 33.424 6.409 40.5C5.709 45.18 5.616 45.308 4.949 42.5L4.237 39.5L4.118 42.25C3.996 45.082 2.555 45.963 1.662 43.75C1.385 43.063 1.122 46.175 1.079 50.667C1.024 56.325 1.384 58.989 2.25 59.341C3.191 59.722 3.129 60.113 2 60.922C0.873 61.73 1.368 61.83 3.996 61.324C5.918 60.955 8.143 60 8.939 59.203C10.204 57.939 10.481 57.993 11.124 59.627C11.78 61.297 11.867 61.257 11.93 59.25C11.989 57.359 12.558 57 15.5 57C18.567 57 19 57.31 19 59.5C19 61.188 18.431 62.023 17.25 62.07C15.754 62.13 15.79 62.265 17.5 63C19.438 63.833 19.44 63.862 17.559 63.93C15.638 63.999 15.638 64.015 17.557 65.418C20.48 67.556 18.922 68.13 12.391 67.322C7.43 66.708 6.973 66.498 9.5 65.992L12.5 65.39L9.25 64.868C7.462 64.581 6 64.718 6 65.173C6 65.628 5.523 66 4.941 66C4.359 66 4.16 65.55 4.5 65C5.457 63.452 3.394 63.82 2.052 65.437C1.298 66.346 0.964 69.66 1.143 74.462C1.378 80.778 1.683 81.962 2.963 81.523C4.096 81.134 4.04 81.353 2.75 82.358C1.535 83.304 1 85.125 1 88.312V92.904L34.073 92.957L67.145 93.01L80.05 86.863L92.954 80.715L92.727 61.108C92.509 42.275 92.421 41.497 90.5 41.414C89.4 41.366 87.713 41.029 86.75 40.664C80.669 38.358 80.313 38.262 74.5 37.381C72.3 37.047 69.683 36.344 68.685 35.817C66.691 34.766 64.535 34.244 58.5 33.355C56.3 33.03 54.239 32.352 53.92 31.849C53.601 31.345 52.515 31.249 51.506 31.636C50.138 32.161 49.881 32.002 50.492 31.012C51.108 30.017 50.774 29.826 49.156 30.249C47.97 30.559 47 30.461 47 30.031C47 29.601 44.327 28.657 41.06 27.932C37.776 27.203 35.387 26.183 35.717 25.65C36.265 24.762 35.609 24.841 31 26.223C30.175 26.47 29.837 26.483 30.25 26.253C30.662 26.022 31 25.421 31 24.917C31 23.423 27.27 23.873 25.571 25.571C24.143 27 24 26.686 24 22.121C24 18.96 23.499 16.803 22.647 16.3C21.902 15.86 21.038 14.825 20.726 14C20.403 13.148 20.09 13.795 20.001 15.5ZM6.731 17.08C7.085 18.432 7.538 18.886 7.788 18.137C8.028 17.415 7.75 16.35 7.168 15.768C6.426 15.026 6.296 15.417 6.731 17.08ZM4.51 17.015C5.101 17.972 4.875 18.166 3.696 17.714C2.798 17.369 1.752 17.63 1.372 18.294C0.991 18.957 1.048 19.166 1.498 18.759C1.948 18.351 2.867 18.475 3.541 19.034C4.405 19.751 4.936 19.61 5.34 18.558C5.655 17.736 5.413 16.755 4.802 16.378C4.078 15.93 3.976 16.153 4.51 17.015ZM12.32 24C12.32 27.575 12.502 29.038 12.723 27.25C12.945 25.462 12.945 22.538 12.723 20.75C12.502 18.962 12.32 20.425 12.32 24ZM17.071 19.415C15.489 21.32 15.963 22.259 17.901 21.061C18.639 20.605 19.06 19.68 18.835 19.006C18.545 18.134 18.035 18.252 17.071 19.415ZM5.079 22.583C5.127 23.748 5.364 23.985 5.683 23.188C5.972 22.466 5.936 21.603 5.604 21.271C5.272 20.939 5.036 21.529 5.079 22.583ZM7.195 29.5C7.215 31.15 7.439 31.704 7.693 30.731C7.947 29.758 7.93 28.408 7.656 27.731C7.382 27.054 7.175 27.85 7.195 29.5ZM77 32C77.825 32.533 78.95 32.969 79.5 32.969C80.05 32.969 79.825 32.533 79 32C78.175 31.467 77.05 31.031 76.5 31.031C75.95 31.031 76.175 31.467 77 32ZM16.427 33.479C14.735 34.759 14.706 34.94 16.191 34.968C17.121 34.986 18.179 34.52 18.541 33.933C19.63 32.171 18.482 31.924 16.427 33.479ZM83 34.5C84.375 35.286 85.95 35.929 86.5 35.929C87.05 35.929 86.375 35.286 85 34.5C83.625 33.714 82.05 33.071 81.5 33.071C80.95 33.071 81.625 33.714 83 34.5ZM7 49.048C7 50.257 5.784 50.854 4.402 50.324C2.345 49.535 2.694 48.429 5 48.429C6.1 48.429 7 48.707 7 49.048ZM23.683 50.188C23.364 50.985 23.127 50.748 23.079 49.583C23.036 48.529 23.272 47.939 23.604 48.271C23.936 48.603 23.972 49.466 23.683 50.188ZM24.73 58.925C24.426 60.087 24.677 60.706 25.363 60.487C27.799 59.709 47.383 59.143 45.5 59.905C44.4 60.35 38.855 60.963 33.178 61.267C24.293 61.742 22.935 61.612 23.428 60.328C23.742 59.508 24 58.423 24 57.918C24 57.413 24.277 57 24.617 57C24.956 57 25.007 57.866 24.73 58.925ZM83.717 57.891C79.642 58.547 78.739 59.984 81.676 61.141C83.274 61.77 83.29 61.868 81.809 61.93C80.879 61.968 79.84 61.55 79.5 61C79.16 60.45 77.896 59.948 76.691 59.884C74.791 59.783 74.752 59.704 76.395 59.283C77.747 58.937 77.935 58.578 77.052 58.032C76.372 57.612 78.444 57.271 81.657 57.275C86.54 57.282 86.879 57.383 83.717 57.891ZM92 58C92 58.55 91.802 59 91.559 59C91.316 59 90.84 58.55 90.5 58C90.16 57.45 90.359 57 90.941 57C91.523 57 92 57.45 92 58ZM13 59.5C13 60.433 13.944 61 15.5 61C17.056 61 18 60.433 18 59.5C18 58.567 17.056 58 15.5 58C13.944 58 13 58.567 13 59.5ZM60.5 59C60.16 59.55 59.432 60 58.882 60C58.332 60 58.16 59.55 58.5 59C58.84 58.45 59.568 58 60.118 58C60.668 58 60.84 58.45 60.5 59ZM71.25 58.706C70.013 58.944 67.987 58.944 66.75 58.706C65.513 58.467 66.525 58.272 69 58.272C71.475 58.272 72.487 58.467 71.25 58.706ZM52.269 59.656C51.592 59.93 50.242 59.947 49.269 59.693C48.296 59.439 48.85 59.215 50.5 59.195C52.15 59.175 52.946 59.382 52.269 59.656ZM67.762 60.687C66.806 60.937 65.006 60.946 63.762 60.707C62.518 60.468 63.3 60.263 65.5 60.252C67.7 60.241 68.718 60.437 67.762 60.687ZM91.25 60.662C90.563 60.94 89.438 60.94 88.75 60.662C88.063 60.385 88.625 60.158 90 60.158C91.375 60.158 91.938 60.385 91.25 60.662ZM9.288 62.365C9.84 64.02 15 65.07 15 63.527C15 62.812 13.638 62.027 11.973 61.783C10.169 61.518 9.084 61.753 9.288 62.365ZM57.357 61.768C57.618 62.191 56.07 62.369 53.916 62.163C51.762 61.958 50 61.612 50 61.395C50 60.65 56.882 60.999 57.357 61.768ZM4.812 62.683C5.534 62.972 6.397 62.936 6.729 62.604C7.061 62.272 6.471 62.036 5.417 62.079C4.252 62.127 4.015 62.364 4.812 62.683ZM42.5 63.033C38.65 63.428 33.025 63.73 30 63.703L24.5 63.655L31 63C34.575 62.64 40.2 62.338 43.5 62.33L49.5 62.315L42.5 63.033ZM74.729 62.604C74.397 62.936 73.534 62.972 72.813 62.683C72.015 62.364 72.252 62.127 73.417 62.079C74.471 62.036 75.061 62.272 74.729 62.604ZM66.729 63.604C66.397 63.936 65.534 63.972 64.813 63.683C64.015 63.364 64.252 63.127 65.417 63.079C66.471 63.036 67.061 63.272 66.729 63.604ZM59 64.608C59 65.435 57.058 65.903 56.613 65.183C56.324 64.716 56.743 64.333 57.544 64.333C58.345 64.333 59 64.457 59 64.608ZM81.517 67.984C81.599 69.093 81.291 70 80.833 70C80.375 70 80 70.477 80 71.059C80 71.641 80.403 71.869 80.895 71.565C81.388 71.26 82.052 71.694 82.373 72.529C82.838 73.74 82.58 73.846 81.096 73.051C79.758 72.335 79.22 70.888 79.179 67.889C79.136 64.805 79.414 64.014 80.245 64.845C80.863 65.463 81.436 66.876 81.517 67.984ZM51.269 65.656C50.592 65.93 49.242 65.947 48.269 65.693C47.296 65.439 47.85 65.215 49.5 65.195C51.15 65.175 51.946 65.382 51.269 65.656ZM74.618 66.552C74.26 67.485 74.438 67.847 75.065 67.46C75.746 67.039 76.028 68.562 75.878 71.849C75.677 76.256 75.435 76.768 73.936 75.966C71.912 74.883 70.852 68.112 72.424 66.309C73.951 64.559 75.325 64.711 74.618 66.552ZM14.75 66.662C15.438 66.94 16.563 66.94 17.25 66.662C17.938 66.385 17.375 66.158 16 66.158C14.625 66.158 14.063 66.385 14.75 66.662ZM42.25 66.662C41.563 66.94 40.438 66.94 39.75 66.662C39.063 66.385 39.625 66.158 41 66.158C42.375 66.158 42.938 66.385 42.25 66.662ZM65.651 67.468C65.341 68.275 65.479 69.178 65.958 69.474C66.437 69.77 67.017 69.448 67.247 68.758C67.477 68.069 67.746 69.773 67.844 72.546C67.962 75.881 67.486 78.249 66.437 79.544C65.565 80.62 65.107 80.985 65.42 80.355C65.733 79.725 65.316 78.952 64.494 78.636C63.672 78.321 63 76.897 63 75.472C63 74.048 63.375 73.114 63.833 73.397C64.292 73.68 64.667 73.282 64.667 72.512C64.667 71.741 64.179 71.199 63.583 71.306C62.987 71.412 62.5 70.6 62.5 69.5C62.5 68.4 63.063 67.612 63.75 67.75C64.438 67.888 65 67.55 65 67C65 66.45 65.273 66 65.607 66C65.941 66 65.96 66.661 65.651 67.468ZM35.25 67.662C34.563 67.94 33.438 67.94 32.75 67.662C32.063 67.385 32.625 67.158 34 67.158C35.375 67.158 35.938 67.385 35.25 67.662ZM86.729 67.604C86.397 67.936 85.534 67.972 84.813 67.683C84.015 67.364 84.252 67.127 85.417 67.079C86.471 67.036 87.061 67.272 86.729 67.604ZM26.25 68.662C25.563 68.94 24.438 68.94 23.75 68.662C23.063 68.385 23.625 68.158 25 68.158C26.375 68.158 26.938 68.385 26.25 68.662ZM35 70.383C35 70.594 33.889 70.979 32.53 71.239C31.172 71.499 30.298 71.326 30.589 70.856C31.101 70.027 35 69.61 35 70.383ZM19.5 74C19.84 74.55 19.641 75 19.059 75C18.477 75 18 74.55 18 74C18 73.45 18.198 73 18.441 73C18.684 73 19.16 73.45 19.5 74ZM73.5 74C73.16 74.55 73.359 75 73.941 75C74.523 75 75 74.55 75 74C75 73.45 74.802 73 74.559 73C74.316 73 73.84 73.45 73.5 74ZM25.917 76.717C26.146 76.873 25.433 77 24.333 77C23.232 77 22.333 76.333 22.333 75.516C22.333 74.323 22.644 74.267 23.917 75.233C24.788 75.894 25.688 76.561 25.917 76.717ZM13 76C13 76.55 11.762 76.993 10.25 76.985C8.107 76.973 7.831 76.755 9 76C10.957 74.736 13 74.736 13 76ZM34.5 76C33.93 76.922 36.129 77.497 38.5 77.047C39.167 76.92 39.167 77.175 38.5 77.81C37.075 79.167 23.317 80.322 22.59 79.146C22.262 78.615 24.136 77.894 26.797 77.528C29.436 77.165 32.249 76.455 33.048 75.949C34.928 74.76 35.259 74.771 34.5 76ZM65 76.5C63.99 77.717 64.03 78 65.211 78C66.012 78 66.667 77.325 66.667 76.5C66.667 75.675 66.572 75 66.456 75C66.34 75 65.685 75.675 65 76.5ZM7.4 80.235C8.1 80.702 7.925 80.975 6.917 80.985C4.734 81.006 4.026 80.095 4.752 78.203C5.263 76.871 5.446 76.846 5.833 78.051C6.09 78.848 6.795 79.831 7.4 80.235ZM13.25 78.662C12.563 78.94 11.438 78.94 10.75 78.662C10.063 78.385 10.625 78.158 12 78.158C13.375 78.158 13.938 78.385 13.25 78.662ZM13.729 80.604C13.397 80.936 12.534 80.972 11.813 80.683C11.015 80.364 11.252 80.127 12.417 80.079C13.471 80.036 14.061 80.272 13.729 80.604ZM50.729 84.604C50.397 84.936 49.534 84.972 48.813 84.683C48.015 84.364 48.252 84.127 49.417 84.079C50.471 84.036 51.061 84.272 50.729 84.604Z" fill="#25449F"/>
<path fill-rule="evenodd" clip-rule="evenodd" d="M19.632 9.62796C19.911 10.657 21.19 12.276 22.473 13.224C24.474 14.702 24.887 14.737 25.372 13.474C25.707 12.599 25.356 12 24.508 12C23.721 12 22.188 11.045 21.101 9.87796C19.328 7.97496 19.176 7.94896 19.632 9.62796ZM15.872 11.339C17.388 13.173 16.05 13.65 14.3 11.9C13.5 11.1 12.65 11.35 11.183 12.817C10.074 13.926 8.832 14.533 8.423 14.167C8.014 13.8 7.991 14.043 8.372 14.706C8.752 15.37 9.725 15.659 10.532 15.349C11.349 15.036 12 15.351 12 16.06C12 16.76 12.289 17.044 12.643 16.691C12.996 16.337 12.7 15.344 11.985 14.482C10.845 13.109 11.043 12.979 13.593 13.425C17.729 14.15 19.508 12.797 16.71 11.055C14.691 9.79796 14.619 9.82196 15.872 11.339ZM20.079 15.583C20.127 16.748 20.364 16.985 20.683 16.188C20.972 15.466 20.936 14.603 20.604 14.271C20.272 13.939 20.036 14.529 20.079 15.583ZM6.731 17.08C7.085 18.432 7.538 18.886 7.788 18.137C8.028 17.415 7.75 16.35 7.168 15.768C6.426 15.026 6.296 15.417 6.731 17.08ZM4.51 17.015C5.101 17.972 4.875 18.166 3.696 17.714C2.798 17.369 1.752 17.63 1.372 18.294C0.991 18.957 1.048 19.166 1.498 18.759C1.948 18.351 2.867 18.475 3.541 19.034C4.405 19.751 4.936 19.61 5.34 18.558C5.655 17.736 5.413 16.755 4.802 16.378C4.078 15.93 3.976 16.153 4.51 17.015ZM22.59 20.03C22.756 22.222 22.441 24 21.886 24C21.334 24 21.203 24.52 21.595 25.155C22.041 25.876 21.869 26.037 21.138 25.585C20.494 25.187 20.226 24.443 20.543 23.931C20.859 23.419 20.668 23 20.117 23C19.518 23 19.125 26.857 19.137 32.622C19.157 42.564 18.526 44.437 15.356 43.835C13.877 43.554 13.382 42.266 12.918 37.491C12.44 32.57 12.306 32.236 12.168 35.625C12.076 37.894 11.717 41.163 11.372 42.891C10.798 45.762 10.629 45.88 9.404 44.266C8.667 43.295 8.014 40.475 7.953 38C7.826 32.844 7.468 33.424 6.409 40.5C5.709 45.18 5.616 45.308 4.949 42.5L4.237 39.5L4.118 42.25C3.996 45.082 2.555 45.963 1.662 43.75C1.385 43.063 1.122 46.175 1.079 50.667C1.024 56.325 1.384 58.989 2.25 59.341C3.191 59.722 3.129 60.113 2 60.922C0.873 61.73 1.368 61.83 3.996 61.324C5.918 60.955 8.143 60 8.939 59.203C10.204 57.939 10.481 57.993 11.124 59.627C11.78 61.297 11.867 61.257 11.93 59.25C11.989 57.359 12.558 57 15.5 57C18.567 57 19 57.31 19 59.5C19 61.188 18.431 62.023 17.25 62.07C15.754 62.13 15.79 62.265 17.5 63C19.438 63.833 19.44 63.862 17.559 63.93C15.638 63.999 15.638 64.015 17.557 65.418C20.48 67.556 18.922 68.13 12.391 67.322C7.43 66.708 6.973 66.498 9.5 65.992L12.5 65.39L9.25 64.868C7.462 64.581 6 64.718 6 65.173C6 65.628 5.523 66 4.941 66C4.359 66 4.16 65.55 4.5 65C5.457 63.452 3.394 63.82 2.052 65.437C1.298 66.346 0.964 69.66 1.143 74.462C1.378 80.778 1.683 81.962 2.963 81.523C4.096 81.134 4.04 81.353 2.75 82.358C1.535 83.304 1 85.125 1 88.312V92.904L34.073 92.957L67.145 93.01L80.048 86.863L92.951 80.717L92.925 68.63C92.911 61.861 92.537 57.131 92.075 57.879C91.513 58.788 91.037 58.868 90.581 58.132C89.839 56.931 81.114 57.698 79.58 59.099C79.048 59.585 79.68 60.346 81.08 60.906C82.72 61.562 82.955 61.894 81.809 61.937C80.879 61.971 79.84 61.55 79.5 61C79.16 60.45 77.896 59.968 76.691 59.93C74.569 59.862 74.563 59.83 76.5 58.933C77.911 58.28 77.027 58.152 73.5 58.5C70.75 58.77 60.85 59.443 51.5 59.994C42.15 60.545 31.913 61.245 28.75 61.548C23.141 62.086 23 62.038 23 59.609C23 58.239 23.515 56.8 24.145 56.41C24.934 55.923 25.134 56.517 24.789 58.321C24.486 59.908 24.679 60.698 25.28 60.327C25.825 59.99 29.698 59.605 33.886 59.471C43.811 59.155 78.735 57.129 86.75 56.405C92.051 55.927 93 55.549 93 53.92C93 52.551 92.3 52 90.559 52C89.216 52 87.81 51.502 87.434 50.893C86.948 50.107 86.527 50.147 85.981 51.031C85.406 51.96 84.631 51.734 82.916 50.136C81.186 48.525 80.424 48.306 79.825 49.249C79.218 50.205 79.027 50.213 79.015 49.281C79.007 48.611 78.325 48.322 77.5 48.638C76.443 49.044 75.966 48.518 75.884 46.857C75.8 45.142 75.643 44.98 75.308 46.262C75.029 47.333 74.388 47.725 73.674 47.262C73.028 46.843 71.375 46.5 70 46.5C68.373 46.5 67.158 45.721 66.521 44.269C65.355 41.612 63 40.45 63 42.531C63 43.646 62.518 43.518 61 42C58.783 39.783 53.424 39.298 52.708 41.25C52.354 42.217 51.939 42.184 50.875 41.103C50.006 40.221 49.96 39.966 50.75 40.412C51.438 40.8 52 40.641 52 40.059C52 39.477 51.325 39 50.5 39C49.675 39 49 38.55 49 38C49 37.45 48.175 37 47.167 37C46.158 37 45.02 36.687 44.638 36.304C44.255 35.922 43.393 35.495 42.721 35.357C42.049 35.218 40.15 34.845 38.5 34.526C36.85 34.208 34.269 33.457 32.764 32.858C31.259 32.259 28.672 31.968 27.014 32.211L24 32.654V24.886C24 20.614 23.615 16.88 23.144 16.589C22.674 16.298 22.424 17.847 22.59 20.03ZM12.32 24C12.32 27.575 12.502 29.038 12.723 27.25C12.945 25.462 12.945 22.538 12.723 20.75C12.502 18.962 12.32 20.425 12.32 24ZM17.071 19.415C15.489 21.32 15.963 22.259 17.901 21.061C18.639 20.605 19.06 19.68 18.835 19.006C18.545 18.134 18.035 18.252 17.071 19.415ZM5.079 22.583C5.127 23.748 5.364 23.985 5.683 23.188C5.972 22.466 5.936 21.603 5.604 21.271C5.272 20.939 5.036 21.529 5.079 22.583ZM7.195 29.5C7.215 31.15 7.439 31.704 7.693 30.731C7.947 29.758 7.93 28.408 7.656 27.731C7.382 27.054 7.175 27.85 7.195 29.5ZM77 32C77.825 32.533 78.95 32.969 79.5 32.969C80.05 32.969 79.825 32.533 79 32C78.175 31.467 77.05 31.031 76.5 31.031C75.95 31.031 76.175 31.467 77 32ZM16.427 33.479C14.735 34.759 14.706 34.94 16.191 34.968C17.121 34.986 18.179 34.52 18.541 33.933C19.63 32.171 18.482 31.924 16.427 33.479ZM83 34.5C84.375 35.286 85.95 35.929 86.5 35.929C87.05 35.929 86.375 35.286 85 34.5C83.625 33.714 82.05 33.071 81.5 33.071C80.95 33.071 81.625 33.714 83 34.5ZM68.638 44.5C68.291 45.405 68.633 46 69.5 46C70.367 46 70.709 45.405 70.362 44.5C70.045 43.675 69.657 43 69.5 43C69.343 43 68.955 43.675 68.638 44.5ZM24 49.5C24 50.26 23.663 51.091 23.25 51.345C22.837 51.6 22.5 50.77 22.5 49.5C22.5 48.23 22.837 47.4 23.25 47.655C23.663 47.909 24 48.74 24 49.5ZM7 49.048C7 50.257 5.784 50.854 4.402 50.324C2.345 49.535 2.694 48.429 5 48.429C6.1 48.429 7 48.707 7 49.048ZM23.124 55.267C22.136 56.247 22.022 56.132 22.564 54.707C22.94 53.721 23.499 53.166 23.807 53.474C24.115 53.781 23.808 54.588 23.124 55.267ZM13 59.5C13 60.433 13.944 61 15.5 61C17.056 61 18 60.433 18 59.5C18 58.567 17.056 58 15.5 58C13.944 58 13 58.567 13 59.5ZM67.762 60.687C66.806 60.937 65.006 60.946 63.762 60.707C62.518 60.468 63.3 60.263 65.5 60.252C67.7 60.241 68.718 60.437 67.762 60.687ZM91.25 60.662C90.563 60.94 89.438 60.94 88.75 60.662C88.063 60.385 88.625 60.158 90 60.158C91.375 60.158 91.938 60.385 91.25 60.662ZM9.288 62.365C9.84 64.02 15 65.07 15 63.527C15 62.812 13.638 62.027 11.973 61.783C10.169 61.518 9.084 61.753 9.288 62.365ZM57.357 61.768C57.618 62.191 56.07 62.369 53.916 62.163C51.762 61.958 50 61.612 50 61.395C50 60.65 56.882 60.999 57.357 61.768ZM4.812 62.683C5.534 62.972 6.397 62.936 6.729 62.604C7.061 62.272 6.471 62.036 5.417 62.079C4.252 62.127 4.015 62.364 4.812 62.683ZM42.5 63.033C38.65 63.428 33.025 63.73 30 63.703L24.5 63.655L31 63C34.575 62.64 40.2 62.338 43.5 62.33L49.5 62.315L42.5 63.033ZM74.729 62.604C74.397 62.936 73.534 62.972 72.813 62.683C72.015 62.364 72.252 62.127 73.417 62.079C74.471 62.036 75.061 62.272 74.729 62.604ZM66.729 63.604C66.397 63.936 65.534 63.972 64.813 63.683C64.015 63.364 64.252 63.127 65.417 63.079C66.471 63.036 67.061 63.272 66.729 63.604ZM59 64.608C59 65.435 57.058 65.903 56.613 65.183C56.324 64.716 56.743 64.333 57.544 64.333C58.345 64.333 59 64.457 59 64.608ZM81.517 67.984C81.599 69.093 81.291 70 80.833 70C80.375 70 80 70.477 80 71.059C80 71.641 80.403 71.869 80.895 71.565C81.388 71.26 82.052 71.694 82.373 72.529C82.838 73.74 82.58 73.846 81.096 73.051C79.758 72.335 79.22 70.888 79.179 67.889C79.136 64.805 79.414 64.014 80.245 64.845C80.863 65.463 81.436 66.876 81.517 67.984ZM51.269 65.656C50.592 65.93 49.242 65.947 48.269 65.693C47.296 65.439 47.85 65.215 49.5 65.195C51.15 65.175 51.946 65.382 51.269 65.656ZM74.618 66.552C74.26 67.485 74.438 67.847 75.065 67.46C75.746 67.039 76.028 68.562 75.878 71.849C75.677 76.256 75.435 76.768 73.936 75.966C71.912 74.883 70.852 68.112 72.424 66.309C73.951 64.559 75.325 64.711 74.618 66.552ZM14.75 66.662C15.438 66.94 16.563 66.94 17.25 66.662C17.938 66.385 17.375 66.158 16 66.158C14.625 66.158 14.063 66.385 14.75 66.662ZM42.25 66.662C41.563 66.94 40.438 66.94 39.75 66.662C39.063 66.385 39.625 66.158 41 66.158C42.375 66.158 42.938 66.385 42.25 66.662ZM65.651 67.468C65.341 68.275 65.479 69.178 65.958 69.474C66.437 69.77 67.017 69.448 67.247 68.758C67.477 68.069 67.746 69.773 67.844 72.546C67.962 75.881 67.486 78.249 66.437 79.544C65.565 80.62 65.107 80.985 65.42 80.355C65.733 79.725 65.316 78.952 64.494 78.636C63.672 78.321 63 76.897 63 75.472C63 74.048 63.375 73.114 63.833 73.397C64.292 73.68 64.667 73.282 64.667 72.512C64.667 71.741 64.179 71.199 63.583 71.306C62.987 71.412 62.5 70.6 62.5 69.5C62.5 68.4 63.063 67.612 63.75 67.75C64.438 67.888 65 67.55 65 67C65 66.45 65.273 66 65.607 66C65.941 66 65.96 66.661 65.651 67.468ZM35.25 67.662C34.563 67.94 33.438 67.94 32.75 67.662C32.063 67.385 32.625 67.158 34 67.158C35.375 67.158 35.938 67.385 35.25 67.662ZM86.729 67.604C86.397 67.936 85.534 67.972 84.813 67.683C84.015 67.364 84.252 67.127 85.417 67.079C86.471 67.036 87.061 67.272 86.729 67.604ZM26.25 68.662C25.563 68.94 24.438 68.94 23.75 68.662C23.063 68.385 23.625 68.158 25 68.158C26.375 68.158 26.938 68.385 26.25 68.662ZM35 70.383C35 70.594 33.889 70.979 32.53 71.239C31.172 71.499 30.298 71.326 30.589 70.856C31.101 70.027 35 69.61 35 70.383ZM19.5 74C19.84 74.55 19.641 75 19.059 75C18.477 75 18 74.55 18 74C18 73.45 18.198 73 18.441 73C18.684 73 19.16 73.45 19.5 74ZM73.5 74C73.16 74.55 73.359 75 73.941 75C74.523 75 75 74.55 75 74C75 73.45 74.802 73 74.559 73C74.316 73 73.84 73.45 73.5 74ZM25.917 76.717C26.146 76.873 25.433 77 24.333 77C23.232 77 22.333 76.333 22.333 75.516C22.333 74.323 22.644 74.267 23.917 75.233C24.788 75.894 25.688 76.561 25.917 76.717ZM13 76C13 76.55 11.762 76.993 10.25 76.985C8.107 76.973 7.831 76.755 9 76C10.957 74.736 13 74.736 13 76ZM34.5 76C33.93 76.922 36.129 77.497 38.5 77.047C39.167 76.92 39.167 77.175 38.5 77.81C37.075 79.167 23.317 80.322 22.59 79.146C22.262 78.615 24.136 77.894 26.797 77.528C29.436 77.165 32.249 76.455 33.048 75.949C34.928 74.76 35.259 74.771 34.5 76ZM65 76.5C63.99 77.717 64.03 78 65.211 78C66.012 78 66.667 77.325 66.667 76.5C66.667 75.675 66.572 75 66.456 75C66.34 75 65.685 75.675 65 76.5ZM7.4 80.235C8.1 80.702 7.925 80.975 6.917 80.985C4.734 81.006 4.026 80.095 4.752 78.203C5.263 76.871 5.446 76.846 5.833 78.051C6.09 78.848 6.795 79.831 7.4 80.235ZM13.25 78.662C12.563 78.94 11.438 78.94 10.75 78.662C10.063 78.385 10.625 78.158 12 78.158C13.375 78.158 13.938 78.385 13.25 78.662ZM13.729 80.604C13.397 80.936 12.534 80.972 11.813 80.683C11.015 80.364 11.252 80.127 12.417 80.079C13.471 80.036 14.061 80.272 13.729 80.604ZM50.729 84.604C50.397 84.936 49.534 84.972 48.813 84.683C48.015 84.364 48.252 84.127 49.417 84.079C50.471 84.036 51.061 84.272 50.729 84.604Z" fill="#0B2876"/>
<path fill-rule="evenodd" clip-rule="evenodd" d="M19.6319 9.62796C19.9109 10.657 21.1899 12.276 22.4729 13.224C24.4739 14.702 24.8869 14.737 25.3719 13.474C25.7069 12.599 25.3559 12 24.5079 12C23.7209 12 22.1879 11.045 21.1009 9.87796C19.3279 7.97496 19.1759 7.94896 19.6319 9.62796ZM15.8719 11.339C17.3879 13.173 16.0499 13.65 14.2999 11.9C13.4999 11.1 12.6499 11.35 11.1829 12.817C10.0739 13.926 8.83187 14.533 8.42287 14.167C8.01387 13.8 8.00787 14.07 8.40887 14.766C8.80987 15.463 9.60687 15.743 10.1809 15.388C10.7539 15.034 11.6159 15.364 12.0959 16.122C12.6699 17.028 12.9749 17.092 12.9849 16.309C12.9929 15.654 12.5019 14.81 11.8929 14.434C11.1179 13.955 11.1829 13.505 12.1099 12.932C12.8419 12.479 13.9819 12.57 14.6639 13.136C15.3859 13.736 16.5259 13.805 17.4219 13.304C18.7129 12.581 18.6059 12.235 16.7239 11.064C14.6909 9.79796 14.6179 9.82096 15.8719 11.339ZM1.37187 18.294C0.99087 18.957 1.04787 19.166 1.49787 18.759C1.94787 18.351 2.91987 18.519 3.65787 19.131C4.50187 19.831 4.99987 19.868 4.99987 19.229C4.99987 17.668 2.15187 16.933 1.37187 18.294ZM23.3949 30.5C23.3959 38.2 23.5529 41.218 23.7429 37.206C23.9339 33.195 23.9319 26.895 23.7409 23.206C23.5489 19.518 23.3929 22.8 23.3949 30.5ZM17.0709 19.415C15.4889 21.32 15.9629 22.259 17.9009 21.061C18.6389 20.605 19.0599 19.68 18.8349 19.006C18.5449 18.134 18.0349 18.252 17.0709 19.415ZM76.9999 32C77.8249 32.533 78.9499 32.969 79.4999 32.969C80.0499 32.969 79.8249 32.533 78.9999 32C78.1749 31.467 77.0499 31.031 76.4999 31.031C75.9499 31.031 76.1749 31.467 76.9999 32ZM16.4269 33.479C14.7349 34.759 14.7059 34.94 16.1909 34.968C17.1209 34.986 18.1789 34.52 18.5409 33.933C19.6299 32.171 18.4819 31.924 16.4269 33.479ZM82.9999 34.5C84.3749 35.286 85.9499 35.929 86.4999 35.929C87.0499 35.929 86.3749 35.286 84.9999 34.5C83.6249 33.714 82.0499 33.071 81.4999 33.071C80.9499 33.071 81.6249 33.714 82.9999 34.5ZM19.1579 43C19.1579 44.375 19.3849 44.938 19.6619 44.25C19.9399 43.563 19.9399 42.438 19.6619 41.75C19.3849 41.063 19.1579 41.625 19.1579 43ZM7.23187 45C7.23187 46.925 7.43787 47.712 7.68887 46.75C7.94087 45.788 7.94087 44.212 7.68887 43.25C7.43787 42.288 7.23187 43.075 7.23187 45ZM12.0789 45.583C12.1269 46.748 12.3639 46.985 12.6829 46.188C12.9719 45.466 12.9359 44.603 12.6039 44.271C12.2719 43.939 12.0359 44.529 12.0789 45.583ZM4.07887 46.583C4.12687 47.748 4.36387 47.985 4.68287 47.188C4.97187 46.466 4.93587 45.603 4.60387 45.271C4.27187 44.939 4.03587 45.529 4.07887 46.583ZM15.4999 48C15.1599 48.55 15.7719 49 16.8589 49C18.6129 49 18.8729 49.806 19.1679 56.157C19.4989 63.299 18.8339 65.426 15.9999 66.287C15.1749 66.537 15.8359 66.566 17.4689 66.352C19.7099 66.058 20.1549 66.245 19.2849 67.115C18.0019 68.398 10.9999 69.245 10.9999 68.118C10.9999 67.724 9.35787 67.593 7.34987 67.828C4.03387 68.215 3.75087 68.059 4.25687 66.127C4.87487 63.76 4.02387 63.376 2.19987 65.2C0.41687 66.983 0.64787 73 2.49987 73C3.32487 73 3.96387 73.787 3.92087 74.75C3.87387 75.795 3.63887 75.997 3.33787 75.25C2.46687 73.093 1.20487 73.888 1.35587 76.499C1.52987 79.515 1.33487 79.5 6.70487 76.901C9.10687 75.738 11.7999 75.093 12.7419 75.455C14.2029 76.015 14.2349 76.239 12.9719 77.038C11.6819 77.854 11.6859 77.99 12.9999 78.135C13.8249 78.226 12.4749 78.572 9.99987 78.904L5.49987 79.507L8.78387 80.714C10.5909 81.377 11.8019 81.488 11.4749 80.96C11.1489 80.432 11.7939 80 12.9099 80C14.3009 80 14.7569 80.471 14.3619 81.5C13.5359 83.651 15.6399 83.353 17.2219 81.094C18.0899 79.855 20.8209 78.755 25.0279 77.951C28.5879 77.27 32.2879 76.312 33.2499 75.822C34.3639 75.254 34.9999 75.306 34.9999 75.965C34.9999 76.534 36.1249 77 37.4999 77C38.8749 77 39.9999 77.392 39.9999 77.871C39.9999 78.696 29.4919 84.247 25.7499 85.399C22.9419 86.263 23.7339 88 26.9349 88C28.5489 88 33.1159 87.317 37.0839 86.482C41.0519 85.648 44.4479 85.114 44.6299 85.297C44.8129 85.479 41.7079 86.58 37.7309 87.743C18.5979 93.337 17.9399 92.78 43.8339 92.896L67.1669 93L80.0589 86.858L92.9509 80.717L92.9249 68.63C92.9109 61.861 92.5369 57.131 92.0749 57.879C91.5129 58.788 91.0369 58.868 90.5809 58.132C89.8389 56.931 81.1139 57.698 79.5799 59.099C79.0479 59.585 79.6799 60.346 81.0799 60.906C83.0109 61.678 83.1219 61.886 81.6279 61.937C80.1059 61.988 79.9809 62.272 80.9599 63.452C81.6479 64.281 81.8689 65.837 81.4749 67.077C81.0089 68.547 81.1439 69.029 81.8929 68.566C82.5019 68.19 82.9999 68.359 82.9999 68.941C82.9999 69.523 82.3249 70 81.4999 70C80.6749 70 79.9999 70.477 79.9999 71.059C79.9999 71.641 80.4119 71.864 80.9149 71.553C81.4179 71.242 82.0199 71.553 82.2519 72.244C82.6899 73.543 80.2599 75.935 78.4999 75.938C77.9499 75.939 78.3119 75.467 79.3049 74.889C80.5139 74.186 80.7999 73.452 80.1709 72.669C78.6889 70.826 77.7799 65.254 78.8519 64.591C80.6459 63.482 79.3509 60.505 76.9089 60.125C74.6279 59.771 74.6059 59.704 76.4999 58.867C77.8839 58.256 77.1149 58.131 73.9999 58.46C71.5249 58.722 61.3999 59.408 51.4999 59.984C23.1509 61.634 23.0249 61.655 22.8639 64.822L22.7279 67.5L22.2789 65C22.0319 63.625 21.4189 62.073 20.9149 61.55C20.4119 61.028 19.9999 58.252 19.9999 55.382C19.9999 52.512 19.7269 49.452 19.3929 48.582C18.7129 46.81 16.4449 46.471 15.4999 48ZM12.1319 51.625C12.0589 53.344 11.8359 56.044 11.6349 57.625C11.4339 59.206 11.4649 59.712 11.7039 58.75C12.0019 57.554 13.1189 57 15.2359 57C16.9399 57 18.0019 56.668 17.5959 56.263C17.1909 55.857 16.1029 55.52 15.1789 55.513C14.0479 55.504 13.2979 54.357 12.8819 52L12.2629 48.5L12.1319 51.625ZM3.93087 55C3.37687 60.512 3.51787 61.815 4.55587 60.777C4.86187 60.471 4.97087 57.809 4.79787 54.861L4.48387 49.5L3.93087 55ZM6.72887 51.332C5.70087 53.916 5.82087 61 6.89287 61C8.37187 61 8.75687 58.748 8.08987 54C7.62987 50.723 7.25987 49.998 6.72887 51.332ZM12.9999 59.5C12.9999 60.433 13.9439 61 15.4999 61C17.0559 61 17.9999 60.433 17.9999 59.5C17.9999 58.567 17.0559 58 15.4999 58C13.9439 58 12.9999 58.567 12.9999 59.5ZM67.7619 60.687C66.8059 60.937 65.0059 60.946 63.7619 60.707C62.5179 60.468 63.2999 60.263 65.4999 60.252C67.6999 60.241 68.7179 60.437 67.7619 60.687ZM91.2499 60.662C90.5629 60.94 89.4379 60.94 88.7499 60.662C88.0629 60.385 88.6249 60.158 89.9999 60.158C91.3749 60.158 91.9379 60.385 91.2499 60.662ZM57.3569 61.768C57.6179 62.191 56.0699 62.369 53.9159 62.163C51.7619 61.958 49.9999 61.612 49.9999 61.395C49.9999 60.65 56.8819 60.999 57.3569 61.768ZM13.4999 63C13.8399 63.55 14.3159 64 14.5589 64C14.8019 64 14.9999 63.55 14.9999 63C14.9999 62.45 14.5229 62 13.9409 62C13.3589 62 13.1599 62.45 13.4999 63ZM16.8129 62.683C17.5339 62.972 18.3969 62.936 18.7289 62.604C19.0609 62.272 18.4709 62.036 17.4169 62.079C16.2519 62.127 16.0149 62.364 16.8129 62.683ZM42.4999 63.033C38.6499 63.428 33.0249 63.73 29.9999 63.703L24.4999 63.655L30.9999 63C34.5749 62.64 40.1999 62.338 43.4999 62.33L49.4999 62.315L42.4999 63.033ZM74.7289 62.604C74.3969 62.936 73.5339 62.972 72.8129 62.683C72.0149 62.364 72.2519 62.127 73.4169 62.079C74.4709 62.036 75.0609 62.272 74.7289 62.604ZM66.7289 63.604C66.3969 63.936 65.5339 63.972 64.8129 63.683C64.0149 63.364 64.2519 63.127 65.4169 63.079C66.4709 63.036 67.0609 63.272 66.7289 63.604ZM89.7289 63.604C89.3969 63.936 88.5339 63.972 87.8129 63.683C87.0149 63.364 87.2519 63.127 88.4169 63.079C89.4709 63.036 90.0609 63.272 89.7289 63.604ZM5.99987 65.173C5.99987 65.628 7.34987 66 8.99987 66C10.6499 66 11.9999 65.826 11.9999 65.613C11.9999 65.401 10.6499 65.029 8.99987 64.787C7.34987 64.545 5.99987 64.718 5.99987 65.173ZM59.9999 64.455C59.9999 65.227 57.0239 65.847 56.6009 65.164C56.3469 64.752 57.0069 64.35 58.0689 64.27C59.1309 64.19 59.9999 64.273 59.9999 64.455ZM51.2689 65.656C50.5919 65.93 49.2419 65.947 48.2689 65.693C47.2959 65.439 47.8499 65.215 49.4999 65.195C51.1499 65.175 51.9459 65.382 51.2689 65.656ZM76.0359 68.041C76.9919 71.616 76.0639 76.761 74.3439 77.421C73.5479 77.727 73.1519 77.563 73.4639 77.058C73.7769 76.552 73.6139 75.88 73.1029 75.564C71.8799 74.808 70.6469 67.381 71.5119 65.981C72.6489 64.141 75.3179 65.356 76.0359 68.041ZM42.2499 66.662C41.5629 66.94 40.4379 66.94 39.7499 66.662C39.0629 66.385 39.6249 66.158 40.9999 66.158C42.3749 66.158 42.9379 66.385 42.2499 66.662ZM67.1849 68.213C68.6959 69.956 68.9659 71.283 68.4539 74.463C68.0959 76.683 67.0709 79.175 66.1759 80C65.2799 80.825 64.8669 81.094 65.2579 80.599C65.6489 80.103 65.2709 79.187 64.4179 78.564C62.3359 77.041 61.3599 69.476 62.9919 67.51C64.6249 65.542 64.9089 65.589 67.1849 68.213ZM35.2499 67.662C34.5629 67.94 33.4379 67.94 32.7499 67.662C32.0629 67.385 32.6249 67.158 33.9999 67.158C35.3749 67.158 35.9379 67.385 35.2499 67.662ZM86.7289 67.604C86.3969 67.936 85.5339 67.972 84.8129 67.683C84.0149 67.364 84.2519 67.127 85.4169 67.079C86.4709 67.036 87.0609 67.272 86.7289 67.604ZM26.2499 68.662C25.5629 68.94 24.4379 68.94 23.7499 68.662C23.0629 68.385 23.6249 68.158 24.9999 68.158C26.3749 68.158 26.9379 68.385 26.2499 68.662ZM34.9999 69.883C34.9999 70.369 33.7709 71.002 32.2689 71.289C29.7149 71.777 29.6619 71.72 31.4599 70.405C33.6579 68.799 34.9999 68.601 34.9999 69.883ZM19.9999 74C19.9999 74.55 19.5499 75 18.9999 75C18.4499 75 17.9999 74.55 17.9999 74C17.9999 73.45 18.4499 73 18.9999 73C19.5499 73 19.9999 73.45 19.9999 74ZM32.7499 73.72C31.7879 73.955 30.9999 74.564 30.9999 75.073C30.9999 75.583 30.5229 76 29.9409 76C29.3589 76 29.1359 75.588 29.4469 75.085C29.7579 74.582 29.4469 73.981 28.7559 73.748C28.0649 73.516 29.0749 73.318 30.9999 73.309C32.9249 73.3 33.7119 73.485 32.7499 73.72ZM73.4999 74C73.1599 74.55 73.3589 75 73.9409 75C74.5229 75 74.9999 74.55 74.9999 74C74.9999 73.45 74.8019 73 74.5589 73C74.3159 73 73.8399 73.45 73.4999 74ZM25.9999 75.714C25.9999 76.421 25.1749 77 24.1669 77C23.1579 77 22.3329 76.421 22.3329 75.714C22.3329 75.007 23.1579 74.429 24.1669 74.429C25.1749 74.429 25.9999 75.007 25.9999 75.714ZM49.1039 76.296C47.8199 77.58 46.5189 76.588 47.4689 75.05C47.8369 74.455 48.5959 74.251 49.1559 74.597C49.8389 75.019 49.8219 75.578 49.1039 76.296ZM64.9999 76.5C63.9899 77.717 64.0299 78 65.2109 78C66.0119 78 66.6669 77.325 66.6669 76.5C66.6669 75.675 66.5719 75 66.4559 75C66.3399 75 65.6849 75.675 64.9999 76.5ZM8.49987 83C9.59987 83.473 11.1749 83.859 11.9999 83.859C12.9449 83.859 12.7609 83.542 11.4999 83C10.3999 82.527 8.82487 82.141 7.99987 82.141C7.05487 82.141 7.23887 82.458 8.49987 83ZM58.7289 82.604C58.3969 82.936 57.5339 82.972 56.8129 82.683C56.0149 82.364 56.2519 82.127 57.4169 82.079C58.4709 82.036 59.0609 82.272 58.7289 82.604ZM54.7289 83.604C54.3969 83.936 53.5339 83.972 52.8129 83.683C52.0149 83.364 52.2519 83.127 53.4169 83.079C54.4709 83.036 55.0609 83.272 54.7289 83.604ZM14.8129 84.683C15.5339 84.972 16.3969 84.936 16.7289 84.604C17.0609 84.272 16.4709 84.036 15.4169 84.079C14.2519 84.127 14.0149 84.364 14.8129 84.683ZM50.2499 84.662C49.5629 84.94 48.4379 84.94 47.7499 84.662C47.0629 84.385 47.6249 84.158 48.9999 84.158C50.3749 84.158 50.9379 84.385 50.2499 84.662Z" fill="#0C1013"/>
<path fill-rule="evenodd" clip-rule="evenodd" d="M19.632 9.62796C19.911 10.657 21.19 12.276 22.473 13.224C24.474 14.702 24.887 14.737 25.372 13.474C25.707 12.599 25.356 12 24.508 12C23.721 12 22.188 11.045 21.101 9.87796C19.328 7.97496 19.176 7.94896 19.632 9.62796ZM15.872 11.339C17.388 13.173 16.05 13.65 14.3 11.9C13.5 11.1 12.65 11.35 11.183 12.817C10.074 13.926 8.832 14.533 8.423 14.167C8.014 13.8 8.008 14.07 8.409 14.766C8.81 15.463 9.607 15.743 10.181 15.388C10.754 15.034 11.616 15.364 12.096 16.122C12.67 17.028 12.975 17.092 12.985 16.309C12.993 15.654 12.502 14.81 11.893 14.434C11.118 13.955 11.183 13.505 12.11 12.932C12.842 12.479 13.982 12.57 14.664 13.136C15.386 13.736 16.526 13.805 17.422 13.304C18.713 12.581 18.606 12.235 16.724 11.064C14.691 9.79796 14.618 9.82096 15.872 11.339ZM1.372 18.294C0.991 18.957 1.048 19.166 1.498 18.759C1.948 18.351 2.92 18.519 3.658 19.131C4.502 19.831 5 19.868 5 19.229C5 17.668 2.152 16.933 1.372 18.294ZM23.395 30.5C23.396 38.2 23.553 41.218 23.743 37.206C23.934 33.195 23.932 26.895 23.741 23.206C23.549 19.518 23.393 22.8 23.395 30.5ZM17.071 19.415C15.489 21.32 15.963 22.259 17.901 21.061C18.639 20.605 19.06 19.68 18.835 19.006C18.545 18.134 18.035 18.252 17.071 19.415ZM77 32C77.825 32.533 78.95 32.969 79.5 32.969C80.05 32.969 79.825 32.533 79 32C78.175 31.467 77.05 31.031 76.5 31.031C75.95 31.031 76.175 31.467 77 32ZM16.427 33.479C14.735 34.759 14.706 34.94 16.191 34.968C17.121 34.986 18.179 34.52 18.541 33.933C19.63 32.171 18.482 31.924 16.427 33.479ZM83 34.5C84.375 35.286 85.95 35.929 86.5 35.929C87.05 35.929 86.375 35.286 85 34.5C83.625 33.714 82.05 33.071 81.5 33.071C80.95 33.071 81.625 33.714 83 34.5ZM15.5 48C15.16 48.55 15.809 49 16.941 49C18.073 49 19 48.55 19 48C19 47.45 18.352 47 17.559 47C16.766 47 15.84 47.45 15.5 48ZM83.5 57.906C81.3 58.248 79.59 59.017 79.701 59.616C79.823 60.278 78.856 60.504 77.229 60.193C74.786 59.726 74.725 59.609 76.528 58.833C77.834 58.271 76.98 58.145 74 58.46C71.525 58.722 61.4 59.408 51.5 59.984C41.6 60.56 31.137 61.282 28.25 61.588C23.239 62.119 23 62.277 23 65.072C23 68.6 23.714 68.668 39.076 66.59C44.809 65.815 51.975 64.924 55 64.611C58.025 64.298 67.475 63.133 76 62.022C84.525 60.911 91.838 60.002 92.25 60.001C92.662 60.001 92.993 59.212 92.985 58.25C92.973 56.887 92.779 56.8 92.11 57.857C91.51 58.803 91.043 58.878 90.566 58.107C89.842 56.936 89.753 56.934 83.5 57.906ZM13 59.5C13 60.433 13.944 61 15.5 61C17.056 61 18 60.433 18 59.5C18 58.567 17.056 58 15.5 58C13.944 58 13 58.567 13 59.5ZM67.762 60.687C66.806 60.937 65.006 60.946 63.762 60.707C62.518 60.468 63.3 60.263 65.5 60.252C67.7 60.241 68.718 60.437 67.762 60.687ZM57.357 61.768C57.618 62.191 56.07 62.369 53.916 62.163C51.762 61.958 50 61.612 50 61.395C50 60.65 56.882 60.999 57.357 61.768ZM16.813 62.683C17.534 62.972 18.397 62.936 18.729 62.604C19.061 62.272 18.471 62.036 17.417 62.079C16.252 62.127 16.015 62.364 16.813 62.683ZM42.5 63.033C38.65 63.428 33.025 63.73 30 63.703L24.5 63.655L31 63C34.575 62.64 40.2 62.338 43.5 62.33L49.5 62.315L42.5 63.033ZM87.25 63.723C83.831 64.148 82.579 66.943 85.75 67.07C87.26 67.131 87.226 67.27 85.5 68.081C84.052 68.762 84.601 68.856 87.492 68.42C89.688 68.089 91.826 67.608 92.242 67.35C93.508 66.568 93.088 62.989 91.75 63.16C91.063 63.248 89.037 63.502 87.25 63.723ZM2.5 65C2.16 65.55 2.332 66 2.882 66C3.432 66 4.16 65.55 4.5 65C4.84 64.45 4.668 64 4.118 64C3.568 64 2.84 64.45 2.5 65ZM6 65.173C6 65.628 7.35 66 9 66C10.65 66 12 65.826 12 65.613C12 65.401 10.65 65.029 9 64.787C7.35 64.545 6 64.718 6 65.173ZM14.75 66.662C15.438 66.94 16.563 66.94 17.25 66.662C17.938 66.385 17.375 66.158 16 66.158C14.625 66.158 14.063 66.385 14.75 66.662ZM80 71.059C80 71.641 80.45 71.84 81 71.5C81.55 71.16 82 70.684 82 70.441C82 70.198 81.55 70 81 70C80.45 70 80 70.477 80 71.059ZM87.434 71.95C84.648 72.941 81.498 74.204 80.434 74.754C75.902 77.101 70.799 79 69.025 79C67.976 79 66.866 79.408 66.558 79.907C66.249 80.406 61.61 81.819 56.248 83.046C47.493 85.052 42.054 86.518 25.5 91.336C20.757 92.717 21.697 92.797 43.834 92.896L67.167 93L80.084 86.847L93 80.693V75.347C93 72.406 92.888 70.033 92.75 70.073C92.612 70.113 90.22 70.958 87.434 71.95ZM73.5 74C73.16 74.55 73.359 75 73.941 75C74.523 75 75 74.55 75 74C75 73.45 74.802 73 74.559 73C74.316 73 73.84 73.45 73.5 74ZM1 75C1 75.55 1.45 76 2 76C2.55 76 3 75.55 3 75C3 74.45 2.55 74 2 74C1.45 74 1 74.45 1 75ZM25.217 76.486C19.336 77.653 15.895 79.044 19.083 78.965C21.516 78.905 33.076 76.257 33.721 75.613C34.529 74.805 32.783 74.984 25.217 76.486ZM65 76.5C63.99 77.717 64.03 78 65.211 78C66.012 78 66.667 77.325 66.667 76.5C66.667 75.675 66.572 75 66.456 75C66.34 75 65.685 75.675 65 76.5ZM10 78.9C6.967 79.304 6.052 79.727 7.192 80.196C9.294 81.061 16 80.051 16 78.869C16 78.391 15.662 78.068 15.25 78.15C14.838 78.233 12.475 78.57 10 78.9Z" fill="#7B7C7B"/>
<path fill-rule="evenodd" clip-rule="evenodd" d="M20.0002 10.43C20.0002 10.705 20.9002 11.411 22.0002 12C23.1002 12.589 24.0002 12.845 24.0002 12.57C24.0002 12.295 23.1002 11.589 22.0002 11C20.9002 10.411 20.0002 10.155 20.0002 10.43ZM23.0792 22.583C23.1272 23.748 23.3642 23.985 23.6832 23.188C23.9722 22.466 23.9362 21.603 23.6042 21.271C23.2722 20.939 23.0362 21.529 23.0792 22.583ZM16.0002 33.969C16.0002 34.501 16.6752 34.678 17.5002 34.362C18.3252 34.045 19.0002 33.609 19.0002 33.393C19.0002 33.177 18.3252 33 17.5002 33C16.6752 33 16.0002 33.436 16.0002 33.969ZM87.7502 59.662C88.4382 59.94 89.5632 59.94 90.2502 59.662C90.9382 59.385 90.3752 59.158 89.0002 59.158C87.6252 59.158 87.0632 59.385 87.7502 59.662ZM67.7862 60.948C60.7982 61.534 57.9412 62.333 59.0832 63.383C59.7422 63.988 77.8052 61.528 78.6102 60.723C79.0082 60.325 78.4712 60.068 77.4172 60.151C76.3622 60.234 72.0292 60.593 67.7862 60.948ZM81.2692 60.693C82.2422 60.947 83.5922 60.93 84.2692 60.656C84.9462 60.382 84.1502 60.175 82.5002 60.195C80.8502 60.215 80.2962 60.439 81.2692 60.693ZM35.2642 61.718C36.7842 61.947 39.0342 61.941 40.2642 61.704C41.4942 61.467 40.2502 61.279 37.5002 61.286C34.7502 61.294 33.7442 61.488 35.2642 61.718ZM25.2692 62.693C26.2422 62.947 27.5922 62.93 28.2692 62.656C28.9462 62.382 28.1502 62.175 26.5002 62.195C24.8502 62.215 24.2962 62.439 25.2692 62.693ZM44.0002 63.098C39.3252 63.556 32.7142 64.204 29.3092 64.538C24.3402 65.026 23.2332 65.445 23.6992 66.658C24.1162 67.746 25.1522 68.011 27.3902 67.602C29.1002 67.29 35.0002 66.572 40.5002 66.007C54.3282 64.587 57.1472 64.047 56.4692 62.949C56.1462 62.427 55.1212 62.06 54.1912 62.133C53.2612 62.206 48.6752 62.64 44.0002 63.098ZM85.4682 66.052C84.9052 66.963 89.9322 67.963 91.6872 67.29C93.2242 66.7 93.4572 65 92.0002 65C91.4502 65 90.9932 65.563 90.9852 66.25C90.9742 67.114 90.7422 67.16 90.2352 66.401C89.4152 65.176 86.1572 64.937 85.4682 66.052ZM83.5002 74.101C73.0532 78.518 57.2862 83.715 50.5002 84.977C47.2002 85.591 39.3252 87.617 33.0002 89.48L21.5002 92.865L43.8732 92.933L66.2462 93L79.6232 86.567L93.0002 80.135V75.567C93.0002 72.543 92.5782 71.024 91.7502 71.07C91.0632 71.109 87.3502 72.473 83.5002 74.101ZM19.0002 78.052C17.9252 78.785 18.6342 78.884 21.5002 78.404C26.4612 77.574 27.2592 76.995 23.4172 77.015C21.8132 77.024 19.8252 77.49 19.0002 78.052ZM9.76222 79.707C11.0062 79.946 12.8062 79.937 13.7622 79.687C14.7182 79.437 13.7002 79.241 11.5002 79.252C9.30022 79.263 8.51822 79.468 9.76222 79.707Z" fill="#A7A398"/>
</svg>
